<?xml version="1.0" encoding="utf-8" standalone="no"?>
<!DOCTYPE svg PUBLIC "-//W3C//DTD SVG 1.1//EN"
  "http://www.w3.org/Graphics/SVG/1.1/DTD/svg11.dtd">
<svg xmlns:xlink="http://www.w3.org/1999/xlink" width="735.002187pt" height="332.368039pt" viewBox="0 0 735.002187 332.368039" xmlns="http://www.w3.org/2000/svg" version="1.1">
 <metadata>
  <rdf:RDF xmlns:dc="http://purl.org/dc/elements/1.1/" xmlns:cc="http://creativecommons.org/ns#" xmlns:rdf="http://www.w3.org/1999/02/22-rdf-syntax-ns#">
   <cc:Work>
    <dc:type rdf:resource="http://purl.org/dc/dcmitype/StillImage"/>
    <dc:date>2026-03-12T17:58:11.632204</dc:date>
    <dc:format>image/svg+xml</dc:format>
    <dc:creator>
     <cc:Agent>
      <dc:title>Matplotlib v3.10.6, https://matplotlib.org/</dc:title>
     </cc:Agent>
    </dc:creator>
   </cc:Work>
  </rdf:RDF>
 </metadata>
 <defs>
  <style type="text/css">*{stroke-linejoin: round; stroke-linecap: butt}</style>
 </defs>
 <g id="figure_1">
  <g id="patch_1">
   <path d="M 0 332.368039 
L 735.002187 332.368039 
L 735.002187 0 
L 0 0 
z
" style="fill: #ffffff"/>
  </g>
  <g id="axes_1">
   <g id="patch_2">
    <path d="M 65.670625 276.591354 
L 669.570625 276.591354 
L 669.570625 22.663594 
L 65.670625 22.663594 
z
" style="fill: #ffffff"/>
   </g>
   <g id="matplotlib.axis_1">
    <g id="xtick_1">
     <g id="text_1">
      <!-- 2024-01 -->
      <g style="fill: #262626" transform="translate(81.916508 310.898427) rotate(-45) scale(0.08 -0.08)">
       <defs>
        <path id="ArialMT-32" d="M 3222 541 
L 3222 0 
L 194 0 
Q 188 203 259 391 
Q 375 700 629 1000 
Q 884 1300 1366 1694 
Q 2113 2306 2375 2664 
Q 2638 3022 2638 3341 
Q 2638 3675 2398 3904 
Q 2159 4134 1775 4134 
Q 1369 4134 1125 3890 
Q 881 3647 878 3216 
L 300 3275 
Q 359 3922 746 4261 
Q 1134 4600 1788 4600 
Q 2447 4600 2831 4234 
Q 3216 3869 3216 3328 
Q 3216 3053 3103 2787 
Q 2991 2522 2730 2228 
Q 2469 1934 1863 1422 
Q 1356 997 1212 845 
Q 1069 694 975 541 
L 3222 541 
z
" transform="scale(0.015625)"/>
        <path id="ArialMT-30" d="M 266 2259 
Q 266 3072 433 3567 
Q 600 4063 929 4331 
Q 1259 4600 1759 4600 
Q 2128 4600 2406 4451 
Q 2684 4303 2865 4023 
Q 3047 3744 3150 3342 
Q 3253 2941 3253 2259 
Q 3253 1453 3087 958 
Q 2922 463 2592 192 
Q 2263 -78 1759 -78 
Q 1097 -78 719 397 
Q 266 969 266 2259 
z
M 844 2259 
Q 844 1131 1108 757 
Q 1372 384 1759 384 
Q 2147 384 2411 759 
Q 2675 1134 2675 2259 
Q 2675 3391 2411 3762 
Q 2147 4134 1753 4134 
Q 1366 4134 1134 3806 
Q 844 3388 844 2259 
z
" transform="scale(0.015625)"/>
        <path id="ArialMT-34" d="M 2069 0 
L 2069 1097 
L 81 1097 
L 81 1613 
L 2172 4581 
L 2631 4581 
L 2631 1613 
L 3250 1613 
L 3250 1097 
L 2631 1097 
L 2631 0 
L 2069 0 
z
M 2069 1613 
L 2069 3678 
L 634 1613 
L 2069 1613 
z
" transform="scale(0.015625)"/>
        <path id="ArialMT-2d" d="M 203 1375 
L 203 1941 
L 1931 1941 
L 1931 1375 
L 203 1375 
z
" transform="scale(0.015625)"/>
        <path id="ArialMT-31" d="M 2384 0 
L 1822 0 
L 1822 3584 
Q 1619 3391 1289 3197 
Q 959 3003 697 2906 
L 697 3450 
Q 1169 3672 1522 3987 
Q 1875 4303 2022 4600 
L 2384 4600 
L 2384 0 
z
" transform="scale(0.015625)"/>
       </defs>
       <use xlink:href="#ArialMT-32"/>
       <use xlink:href="#ArialMT-30" transform="translate(55.615234 0)"/>
       <use xlink:href="#ArialMT-32" transform="translate(111.230469 0)"/>
       <use xlink:href="#ArialMT-34" transform="translate(166.845703 0)"/>
       <use xlink:href="#ArialMT-2d" transform="translate(222.460938 0)"/>
       <use xlink:href="#ArialMT-30" transform="translate(255.761719 0)"/>
       <use xlink:href="#ArialMT-31" transform="translate(311.376953 0)"/>
      </g>
     </g>
    </g>
    <g id="xtick_2">
     <g id="text_2">
      <!-- 2024-02 -->
      <g style="fill: #262626" transform="translate(132.241508 310.898427) rotate(-45) scale(0.08 -0.08)">
       <use xlink:href="#ArialMT-32"/>
       <use xlink:href="#ArialMT-30" transform="translate(55.615234 0)"/>
       <use xlink:href="#ArialMT-32" transform="translate(111.230469 0)"/>
       <use xlink:href="#ArialMT-34" transform="translate(166.845703 0)"/>
       <use xlink:href="#ArialMT-2d" transform="translate(222.460938 0)"/>
       <use xlink:href="#ArialMT-30" transform="translate(255.761719 0)"/>
       <use xlink:href="#ArialMT-32" transform="translate(311.376953 0)"/>
      </g>
     </g>
    </g>
    <g id="xtick_3">
     <g id="text_3">
      <!-- 2024-03 -->
      <g style="fill: #262626" transform="translate(182.566508 310.898427) rotate(-45) scale(0.08 -0.08)">
       <defs>
        <path id="ArialMT-33" d="M 269 1209 
L 831 1284 
Q 928 806 1161 595 
Q 1394 384 1728 384 
Q 2125 384 2398 659 
Q 2672 934 2672 1341 
Q 2672 1728 2419 1979 
Q 2166 2231 1775 2231 
Q 1616 2231 1378 2169 
L 1441 2663 
Q 1497 2656 1531 2656 
Q 1891 2656 2178 2843 
Q 2466 3031 2466 3422 
Q 2466 3731 2256 3934 
Q 2047 4138 1716 4138 
Q 1388 4138 1169 3931 
Q 950 3725 888 3313 
L 325 3413 
Q 428 3978 793 4289 
Q 1159 4600 1703 4600 
Q 2078 4600 2393 4439 
Q 2709 4278 2876 4000 
Q 3044 3722 3044 3409 
Q 3044 3113 2884 2869 
Q 2725 2625 2413 2481 
Q 2819 2388 3044 2092 
Q 3269 1797 3269 1353 
Q 3269 753 2831 336 
Q 2394 -81 1725 -81 
Q 1122 -81 723 278 
Q 325 638 269 1209 
z
" transform="scale(0.015625)"/>
       </defs>
       <use xlink:href="#ArialMT-32"/>
       <use xlink:href="#ArialMT-30" transform="translate(55.615234 0)"/>
       <use xlink:href="#ArialMT-32" transform="translate(111.230469 0)"/>
       <use xlink:href="#ArialMT-34" transform="translate(166.845703 0)"/>
       <use xlink:href="#ArialMT-2d" transform="translate(222.460938 0)"/>
       <use xlink:href="#ArialMT-30" transform="translate(255.761719 0)"/>
       <use xlink:href="#ArialMT-33" transform="translate(311.376953 0)"/>
      </g>
     </g>
    </g>
    <g id="xtick_4">
     <g id="text_4">
      <!-- 2024-04 -->
      <g style="fill: #262626" transform="translate(232.891508 310.898427) rotate(-45) scale(0.08 -0.08)">
       <use xlink:href="#ArialMT-32"/>
       <use xlink:href="#ArialMT-30" transform="translate(55.615234 0)"/>
       <use xlink:href="#ArialMT-32" transform="translate(111.230469 0)"/>
       <use xlink:href="#ArialMT-34" transform="translate(166.845703 0)"/>
       <use xlink:href="#ArialMT-2d" transform="translate(222.460938 0)"/>
       <use xlink:href="#ArialMT-30" transform="translate(255.761719 0)"/>
       <use xlink:href="#ArialMT-34" transform="translate(311.376953 0)"/>
      </g>
     </g>
    </g>
    <g id="xtick_5">
     <g id="text_5">
      <!-- 2024-05 -->
      <g style="fill: #262626" transform="translate(283.216508 310.898427) rotate(-45) scale(0.08 -0.08)">
       <defs>
        <path id="ArialMT-35" d="M 266 1200 
L 856 1250 
Q 922 819 1161 601 
Q 1400 384 1738 384 
Q 2144 384 2425 690 
Q 2706 997 2706 1503 
Q 2706 1984 2436 2262 
Q 2166 2541 1728 2541 
Q 1456 2541 1237 2417 
Q 1019 2294 894 2097 
L 366 2166 
L 809 4519 
L 3088 4519 
L 3088 3981 
L 1259 3981 
L 1013 2750 
Q 1425 3038 1878 3038 
Q 2478 3038 2890 2622 
Q 3303 2206 3303 1553 
Q 3303 931 2941 478 
Q 2500 -78 1738 -78 
Q 1113 -78 717 272 
Q 322 622 266 1200 
z
" transform="scale(0.015625)"/>
       </defs>
       <use xlink:href="#ArialMT-32"/>
       <use xlink:href="#ArialMT-30" transform="translate(55.615234 0)"/>
       <use xlink:href="#ArialMT-32" transform="translate(111.230469 0)"/>
       <use xlink:href="#ArialMT-34" transform="translate(166.845703 0)"/>
       <use xlink:href="#ArialMT-2d" transform="translate(222.460938 0)"/>
       <use xlink:href="#ArialMT-30" transform="translate(255.761719 0)"/>
       <use xlink:href="#ArialMT-35" transform="translate(311.376953 0)"/>
      </g>
     </g>
    </g>
    <g id="xtick_6">
     <g id="text_6">
      <!-- 2024-06 -->
      <g style="fill: #262626" transform="translate(333.541508 310.898427) rotate(-45) scale(0.08 -0.08)">
       <defs>
        <path id="ArialMT-36" d="M 3184 3459 
L 2625 3416 
Q 2550 3747 2413 3897 
Q 2184 4138 1850 4138 
Q 1581 4138 1378 3988 
Q 1113 3794 959 3422 
Q 806 3050 800 2363 
Q 1003 2672 1297 2822 
Q 1591 2972 1913 2972 
Q 2475 2972 2870 2558 
Q 3266 2144 3266 1488 
Q 3266 1056 3080 686 
Q 2894 316 2569 119 
Q 2244 -78 1831 -78 
Q 1128 -78 684 439 
Q 241 956 241 2144 
Q 241 3472 731 4075 
Q 1159 4600 1884 4600 
Q 2425 4600 2770 4297 
Q 3116 3994 3184 3459 
z
M 888 1484 
Q 888 1194 1011 928 
Q 1134 663 1356 523 
Q 1578 384 1822 384 
Q 2178 384 2434 671 
Q 2691 959 2691 1453 
Q 2691 1928 2437 2201 
Q 2184 2475 1800 2475 
Q 1419 2475 1153 2201 
Q 888 1928 888 1484 
z
" transform="scale(0.015625)"/>
       </defs>
       <use xlink:href="#ArialMT-32"/>
       <use xlink:href="#ArialMT-30" transform="translate(55.615234 0)"/>
       <use xlink:href="#ArialMT-32" transform="translate(111.230469 0)"/>
       <use xlink:href="#ArialMT-34" transform="translate(166.845703 0)"/>
       <use xlink:href="#ArialMT-2d" transform="translate(222.460938 0)"/>
       <use xlink:href="#ArialMT-30" transform="translate(255.761719 0)"/>
       <use xlink:href="#ArialMT-36" transform="translate(311.376953 0)"/>
      </g>
     </g>
    </g>
    <g id="xtick_7">
     <g id="text_7">
      <!-- 2024-07 -->
      <g style="fill: #262626" transform="translate(383.866508 310.898427) rotate(-45) scale(0.08 -0.08)">
       <defs>
        <path id="ArialMT-37" d="M 303 3981 
L 303 4522 
L 3269 4522 
L 3269 4084 
Q 2831 3619 2401 2847 
Q 1972 2075 1738 1259 
Q 1569 684 1522 0 
L 944 0 
Q 953 541 1156 1306 
Q 1359 2072 1739 2783 
Q 2119 3494 2547 3981 
L 303 3981 
z
" transform="scale(0.015625)"/>
       </defs>
       <use xlink:href="#ArialMT-32"/>
       <use xlink:href="#ArialMT-30" transform="translate(55.615234 0)"/>
       <use xlink:href="#ArialMT-32" transform="translate(111.230469 0)"/>
       <use xlink:href="#ArialMT-34" transform="translate(166.845703 0)"/>
       <use xlink:href="#ArialMT-2d" transform="translate(222.460938 0)"/>
       <use xlink:href="#ArialMT-30" transform="translate(255.761719 0)"/>
       <use xlink:href="#ArialMT-37" transform="translate(311.376953 0)"/>
      </g>
     </g>
    </g>
    <g id="xtick_8">
     <g id="text_8">
      <!-- 2024-08 -->
      <g style="fill: #262626" transform="translate(434.191508 310.898427) rotate(-45) scale(0.08 -0.08)">
       <defs>
        <path id="ArialMT-38" d="M 1131 2484 
Q 781 2613 612 2850 
Q 444 3088 444 3419 
Q 444 3919 803 4259 
Q 1163 4600 1759 4600 
Q 2359 4600 2725 4251 
Q 3091 3903 3091 3403 
Q 3091 3084 2923 2848 
Q 2756 2613 2416 2484 
Q 2838 2347 3058 2040 
Q 3278 1734 3278 1309 
Q 3278 722 2862 322 
Q 2447 -78 1769 -78 
Q 1091 -78 675 323 
Q 259 725 259 1325 
Q 259 1772 486 2073 
Q 713 2375 1131 2484 
z
M 1019 3438 
Q 1019 3113 1228 2906 
Q 1438 2700 1772 2700 
Q 2097 2700 2305 2904 
Q 2513 3109 2513 3406 
Q 2513 3716 2298 3927 
Q 2084 4138 1766 4138 
Q 1444 4138 1231 3931 
Q 1019 3725 1019 3438 
z
M 838 1322 
Q 838 1081 952 856 
Q 1066 631 1291 507 
Q 1516 384 1775 384 
Q 2178 384 2440 643 
Q 2703 903 2703 1303 
Q 2703 1709 2433 1975 
Q 2163 2241 1756 2241 
Q 1359 2241 1098 1978 
Q 838 1716 838 1322 
z
" transform="scale(0.015625)"/>
       </defs>
       <use xlink:href="#ArialMT-32"/>
       <use xlink:href="#ArialMT-30" transform="translate(55.615234 0)"/>
       <use xlink:href="#ArialMT-32" transform="translate(111.230469 0)"/>
       <use xlink:href="#ArialMT-34" transform="translate(166.845703 0)"/>
       <use xlink:href="#ArialMT-2d" transform="translate(222.460938 0)"/>
       <use xlink:href="#ArialMT-30" transform="translate(255.761719 0)"/>
       <use xlink:href="#ArialMT-38" transform="translate(311.376953 0)"/>
      </g>
     </g>
    </g>
    <g id="xtick_9">
     <g id="text_9">
      <!-- 2024-09 -->
      <g style="fill: #262626" transform="translate(484.516508 310.898427) rotate(-45) scale(0.08 -0.08)">
       <defs>
        <path id="ArialMT-39" d="M 350 1059 
L 891 1109 
Q 959 728 1153 556 
Q 1347 384 1650 384 
Q 1909 384 2104 503 
Q 2300 622 2425 820 
Q 2550 1019 2634 1356 
Q 2719 1694 2719 2044 
Q 2719 2081 2716 2156 
Q 2547 1888 2255 1720 
Q 1963 1553 1622 1553 
Q 1053 1553 659 1965 
Q 266 2378 266 3053 
Q 266 3750 677 4175 
Q 1088 4600 1706 4600 
Q 2153 4600 2523 4359 
Q 2894 4119 3086 3673 
Q 3278 3228 3278 2384 
Q 3278 1506 3087 986 
Q 2897 466 2520 194 
Q 2144 -78 1638 -78 
Q 1100 -78 759 220 
Q 419 519 350 1059 
z
M 2653 3081 
Q 2653 3566 2395 3850 
Q 2138 4134 1775 4134 
Q 1400 4134 1122 3828 
Q 844 3522 844 3034 
Q 844 2597 1108 2323 
Q 1372 2050 1759 2050 
Q 2150 2050 2401 2323 
Q 2653 2597 2653 3081 
z
" transform="scale(0.015625)"/>
       </defs>
       <use xlink:href="#ArialMT-32"/>
       <use xlink:href="#ArialMT-30" transform="translate(55.615234 0)"/>
       <use xlink:href="#ArialMT-32" transform="translate(111.230469 0)"/>
       <use xlink:href="#ArialMT-34" transform="translate(166.845703 0)"/>
       <use xlink:href="#ArialMT-2d" transform="translate(222.460938 0)"/>
       <use xlink:href="#ArialMT-30" transform="translate(255.761719 0)"/>
       <use xlink:href="#ArialMT-39" transform="translate(311.376953 0)"/>
      </g>
     </g>
    </g>
    <g id="xtick_10">
     <g id="text_10">
      <!-- 2024-10 -->
      <g style="fill: #262626" transform="translate(534.841508 310.898427) rotate(-45) scale(0.08 -0.08)">
       <use xlink:href="#ArialMT-32"/>
       <use xlink:href="#ArialMT-30" transform="translate(55.615234 0)"/>
       <use xlink:href="#ArialMT-32" transform="translate(111.230469 0)"/>
       <use xlink:href="#ArialMT-34" transform="translate(166.845703 0)"/>
       <use xlink:href="#ArialMT-2d" transform="translate(222.460938 0)"/>
       <use xlink:href="#ArialMT-31" transform="translate(255.761719 0)"/>
       <use xlink:href="#ArialMT-30" transform="translate(311.376953 0)"/>
      </g>
     </g>
    </g>
    <g id="xtick_11">
     <g id="text_11">
      <!-- 2024-11 -->
      <g style="fill: #262626" transform="translate(585.375105 310.481234) rotate(-45) scale(0.08 -0.08)">
       <use xlink:href="#ArialMT-32"/>
       <use xlink:href="#ArialMT-30" transform="translate(55.615234 0)"/>
       <use xlink:href="#ArialMT-32" transform="translate(111.230469 0)"/>
       <use xlink:href="#ArialMT-34" transform="translate(166.845703 0)"/>
       <use xlink:href="#ArialMT-2d" transform="translate(222.460938 0)"/>
       <use xlink:href="#ArialMT-31" transform="translate(255.761719 0)"/>
       <use xlink:href="#ArialMT-31" transform="translate(304.001953 0)"/>
      </g>
     </g>
    </g>
    <g id="xtick_12">
     <g id="text_12">
      <!-- 2024-12 -->
      <g style="fill: #262626" transform="translate(635.491508 310.898427) rotate(-45) scale(0.08 -0.08)">
       <use xlink:href="#ArialMT-32"/>
       <use xlink:href="#ArialMT-30" transform="translate(55.615234 0)"/>
       <use xlink:href="#ArialMT-32" transform="translate(111.230469 0)"/>
       <use xlink:href="#ArialMT-34" transform="translate(166.845703 0)"/>
       <use xlink:href="#ArialMT-2d" transform="translate(222.460938 0)"/>
       <use xlink:href="#ArialMT-31" transform="translate(255.761719 0)"/>
       <use xlink:href="#ArialMT-32" transform="translate(311.376953 0)"/>
      </g>
     </g>
    </g>
    <g id="text_13">
     <!-- Periodo -->
     <g style="fill: #262626" transform="translate(350.387812 323.180539) scale(0.1 -0.1)">
      <defs>
       <path id="ArialMT-50" d="M 494 0 
L 494 4581 
L 2222 4581 
Q 2678 4581 2919 4538 
Q 3256 4481 3484 4323 
Q 3713 4166 3852 3881 
Q 3991 3597 3991 3256 
Q 3991 2672 3619 2267 
Q 3247 1863 2275 1863 
L 1100 1863 
L 1100 0 
L 494 0 
z
M 1100 2403 
L 2284 2403 
Q 2872 2403 3119 2622 
Q 3366 2841 3366 3238 
Q 3366 3525 3220 3729 
Q 3075 3934 2838 4000 
Q 2684 4041 2272 4041 
L 1100 4041 
L 1100 2403 
z
" transform="scale(0.015625)"/>
       <path id="ArialMT-65" d="M 2694 1069 
L 3275 997 
Q 3138 488 2766 206 
Q 2394 -75 1816 -75 
Q 1088 -75 661 373 
Q 234 822 234 1631 
Q 234 2469 665 2931 
Q 1097 3394 1784 3394 
Q 2450 3394 2872 2941 
Q 3294 2488 3294 1666 
Q 3294 1616 3291 1516 
L 816 1516 
Q 847 969 1125 678 
Q 1403 388 1819 388 
Q 2128 388 2347 550 
Q 2566 713 2694 1069 
z
M 847 1978 
L 2700 1978 
Q 2663 2397 2488 2606 
Q 2219 2931 1791 2931 
Q 1403 2931 1139 2672 
Q 875 2413 847 1978 
z
" transform="scale(0.015625)"/>
       <path id="ArialMT-72" d="M 416 0 
L 416 3319 
L 922 3319 
L 922 2816 
Q 1116 3169 1280 3281 
Q 1444 3394 1641 3394 
Q 1925 3394 2219 3213 
L 2025 2691 
Q 1819 2813 1613 2813 
Q 1428 2813 1281 2702 
Q 1134 2591 1072 2394 
Q 978 2094 978 1738 
L 978 0 
L 416 0 
z
" transform="scale(0.015625)"/>
       <path id="ArialMT-69" d="M 425 3934 
L 425 4581 
L 988 4581 
L 988 3934 
L 425 3934 
z
M 425 0 
L 425 3319 
L 988 3319 
L 988 0 
L 425 0 
z
" transform="scale(0.015625)"/>
       <path id="ArialMT-6f" d="M 213 1659 
Q 213 2581 725 3025 
Q 1153 3394 1769 3394 
Q 2453 3394 2887 2945 
Q 3322 2497 3322 1706 
Q 3322 1066 3130 698 
Q 2938 331 2570 128 
Q 2203 -75 1769 -75 
Q 1072 -75 642 372 
Q 213 819 213 1659 
z
M 791 1659 
Q 791 1022 1069 705 
Q 1347 388 1769 388 
Q 2188 388 2466 706 
Q 2744 1025 2744 1678 
Q 2744 2294 2464 2611 
Q 2184 2928 1769 2928 
Q 1347 2928 1069 2612 
Q 791 2297 791 1659 
z
" transform="scale(0.015625)"/>
       <path id="ArialMT-64" d="M 2575 0 
L 2575 419 
Q 2259 -75 1647 -75 
Q 1250 -75 917 144 
Q 584 363 401 755 
Q 219 1147 219 1656 
Q 219 2153 384 2558 
Q 550 2963 881 3178 
Q 1213 3394 1622 3394 
Q 1922 3394 2156 3267 
Q 2391 3141 2538 2938 
L 2538 4581 
L 3097 4581 
L 3097 0 
L 2575 0 
z
M 797 1656 
Q 797 1019 1065 703 
Q 1334 388 1700 388 
Q 2069 388 2326 689 
Q 2584 991 2584 1609 
Q 2584 2291 2321 2609 
Q 2059 2928 1675 2928 
Q 1300 2928 1048 2622 
Q 797 2316 797 1656 
z
" transform="scale(0.015625)"/>
      </defs>
      <use xlink:href="#ArialMT-50"/>
      <use xlink:href="#ArialMT-65" transform="translate(66.699219 0)"/>
      <use xlink:href="#ArialMT-72" transform="translate(122.314453 0)"/>
      <use xlink:href="#ArialMT-69" transform="translate(155.615234 0)"/>
      <use xlink:href="#ArialMT-6f" transform="translate(177.832031 0)"/>
      <use xlink:href="#ArialMT-64" transform="translate(233.447266 0)"/>
      <use xlink:href="#ArialMT-6f" transform="translate(289.0625 0)"/>
     </g>
    </g>
   </g>
   <g id="matplotlib.axis_2">
    <g id="ytick_1">
     <g id="line2d_1">
      <path d="M 65.670625 276.591354 
L 669.570625 276.591354 
" clip-path="url(#p4107920662)" style="fill: none; stroke: #cccccc; stroke-opacity: 0.25; stroke-linecap: round"/>
     </g>
     <g id="line2d_2">
      <defs>
       <path id="m95a424d8d8" d="M 0 0 
L -6 0 
" style="stroke: #262626; stroke-width: 1.25"/>
      </defs>
      <g>
       <use xlink:href="#m95a424d8d8" x="65.670625" y="276.591354" style="fill: #262626; stroke: #262626; stroke-width: 1.25"/>
      </g>
     </g>
     <g id="text_14">
      <!-- 0 -->
      <g style="fill: #262626" transform="translate(51.721875 279.454479) scale(0.08 -0.08)">
       <use xlink:href="#ArialMT-30"/>
      </g>
     </g>
    </g>
    <g id="ytick_2">
     <g id="line2d_3">
      <path d="M 65.670625 234.75637 
L 669.570625 234.75637 
" clip-path="url(#p4107920662)" style="fill: none; stroke: #cccccc; stroke-opacity: 0.25; stroke-linecap: round"/>
     </g>
     <g id="line2d_4">
      <g>
       <use xlink:href="#m95a424d8d8" x="65.670625" y="234.75637" style="fill: #262626; stroke: #262626; stroke-width: 1.25"/>
      </g>
     </g>
     <g id="text_15">
      <!-- 200.000 -->
      <g style="fill: #262626" transform="translate(27.255625 237.619495) scale(0.08 -0.08)">
       <defs>
        <path id="ArialMT-2e" d="M 581 0 
L 581 641 
L 1222 641 
L 1222 0 
L 581 0 
z
" transform="scale(0.015625)"/>
       </defs>
       <use xlink:href="#ArialMT-32"/>
       <use xlink:href="#ArialMT-30" transform="translate(55.615234 0)"/>
       <use xlink:href="#ArialMT-30" transform="translate(111.230469 0)"/>
       <use xlink:href="#ArialMT-2e" transform="translate(166.845703 0)"/>
       <use xlink:href="#ArialMT-30" transform="translate(194.628906 0)"/>
       <use xlink:href="#ArialMT-30" transform="translate(250.244141 0)"/>
       <use xlink:href="#ArialMT-30" transform="translate(305.859375 0)"/>
      </g>
     </g>
    </g>
    <g id="ytick_3">
     <g id="line2d_5">
      <path d="M 65.670625 192.921386 
L 669.570625 192.921386 
" clip-path="url(#p4107920662)" style="fill: none; stroke: #cccccc; stroke-opacity: 0.25; stroke-linecap: round"/>
     </g>
     <g id="line2d_6">
      <g>
       <use xlink:href="#m95a424d8d8" x="65.670625" y="192.921386" style="fill: #262626; stroke: #262626; stroke-width: 1.25"/>
      </g>
     </g>
     <g id="text_16">
      <!-- 400.000 -->
      <g style="fill: #262626" transform="translate(27.255625 195.784511) scale(0.08 -0.08)">
       <use xlink:href="#ArialMT-34"/>
       <use xlink:href="#ArialMT-30" transform="translate(55.615234 0)"/>
       <use xlink:href="#ArialMT-30" transform="translate(111.230469 0)"/>
       <use xlink:href="#ArialMT-2e" transform="translate(166.845703 0)"/>
       <use xlink:href="#ArialMT-30" transform="translate(194.628906 0)"/>
       <use xlink:href="#ArialMT-30" transform="translate(250.244141 0)"/>
       <use xlink:href="#ArialMT-30" transform="translate(305.859375 0)"/>
      </g>
     </g>
    </g>
    <g id="ytick_4">
     <g id="line2d_7">
      <path d="M 65.670625 151.086403 
L 669.570625 151.086403 
" clip-path="url(#p4107920662)" style="fill: none; stroke: #cccccc; stroke-opacity: 0.25; stroke-linecap: round"/>
     </g>
     <g id="line2d_8">
      <g>
       <use xlink:href="#m95a424d8d8" x="65.670625" y="151.086403" style="fill: #262626; stroke: #262626; stroke-width: 1.25"/>
      </g>
     </g>
     <g id="text_17">
      <!-- 600.000 -->
      <g style="fill: #262626" transform="translate(27.255625 153.949528) scale(0.08 -0.08)">
       <use xlink:href="#ArialMT-36"/>
       <use xlink:href="#ArialMT-30" transform="translate(55.615234 0)"/>
       <use xlink:href="#ArialMT-30" transform="translate(111.230469 0)"/>
       <use xlink:href="#ArialMT-2e" transform="translate(166.845703 0)"/>
       <use xlink:href="#ArialMT-30" transform="translate(194.628906 0)"/>
       <use xlink:href="#ArialMT-30" transform="translate(250.244141 0)"/>
       <use xlink:href="#ArialMT-30" transform="translate(305.859375 0)"/>
      </g>
     </g>
    </g>
    <g id="ytick_5">
     <g id="line2d_9">
      <path d="M 65.670625 109.251419 
L 669.570625 109.251419 
" clip-path="url(#p4107920662)" style="fill: none; stroke: #cccccc; stroke-opacity: 0.25; stroke-linecap: round"/>
     </g>
     <g id="line2d_10">
      <g>
       <use xlink:href="#m95a424d8d8" x="65.670625" y="109.251419" style="fill: #262626; stroke: #262626; stroke-width: 1.25"/>
      </g>
     </g>
     <g id="text_18">
      <!-- 800.000 -->
      <g style="fill: #262626" transform="translate(27.255625 112.114544) scale(0.08 -0.08)">
       <use xlink:href="#ArialMT-38"/>
       <use xlink:href="#ArialMT-30" transform="translate(55.615234 0)"/>
       <use xlink:href="#ArialMT-30" transform="translate(111.230469 0)"/>
       <use xlink:href="#ArialMT-2e" transform="translate(166.845703 0)"/>
       <use xlink:href="#ArialMT-30" transform="translate(194.628906 0)"/>
       <use xlink:href="#ArialMT-30" transform="translate(250.244141 0)"/>
       <use xlink:href="#ArialMT-30" transform="translate(305.859375 0)"/>
      </g>
     </g>
    </g>
    <g id="ytick_6">
     <g id="line2d_11">
      <path d="M 65.670625 67.416436 
L 669.570625 67.416436 
" clip-path="url(#p4107920662)" style="fill: none; stroke: #cccccc; stroke-opacity: 0.25; stroke-linecap: round"/>
     </g>
     <g id="line2d_12">
      <g>
       <use xlink:href="#m95a424d8d8" x="65.670625" y="67.416436" style="fill: #262626; stroke: #262626; stroke-width: 1.25"/>
      </g>
     </g>
     <g id="text_19">
      <!-- 1.000.000 -->
      <g style="fill: #262626" transform="translate(20.584375 70.279561) scale(0.08 -0.08)">
       <use xlink:href="#ArialMT-31"/>
       <use xlink:href="#ArialMT-2e" transform="translate(55.615234 0)"/>
       <use xlink:href="#ArialMT-30" transform="translate(83.398438 0)"/>
       <use xlink:href="#ArialMT-30" transform="translate(139.013672 0)"/>
       <use xlink:href="#ArialMT-30" transform="translate(194.628906 0)"/>
       <use xlink:href="#ArialMT-2e" transform="translate(250.244141 0)"/>
       <use xlink:href="#ArialMT-30" transform="translate(278.027344 0)"/>
       <use xlink:href="#ArialMT-30" transform="translate(333.642578 0)"/>
       <use xlink:href="#ArialMT-30" transform="translate(389.257812 0)"/>
      </g>
     </g>
    </g>
    <g id="ytick_7">
     <g id="line2d_13">
      <path d="M 65.670625 25.581452 
L 669.570625 25.581452 
" clip-path="url(#p4107920662)" style="fill: none; stroke: #cccccc; stroke-opacity: 0.25; stroke-linecap: round"/>
     </g>
     <g id="line2d_14">
      <g>
       <use xlink:href="#m95a424d8d8" x="65.670625" y="25.581452" style="fill: #262626; stroke: #262626; stroke-width: 1.25"/>
      </g>
     </g>
     <g id="text_20">
      <!-- 1.200.000 -->
      <g style="fill: #262626" transform="translate(20.584375 28.444577) scale(0.08 -0.08)">
       <use xlink:href="#ArialMT-31"/>
       <use xlink:href="#ArialMT-2e" transform="translate(55.615234 0)"/>
       <use xlink:href="#ArialMT-32" transform="translate(83.398438 0)"/>
       <use xlink:href="#ArialMT-30" transform="translate(139.013672 0)"/>
       <use xlink:href="#ArialMT-30" transform="translate(194.628906 0)"/>
       <use xlink:href="#ArialMT-2e" transform="translate(250.244141 0)"/>
       <use xlink:href="#ArialMT-30" transform="translate(278.027344 0)"/>
       <use xlink:href="#ArialMT-30" transform="translate(333.642578 0)"/>
       <use xlink:href="#ArialMT-30" transform="translate(389.257812 0)"/>
      </g>
     </g>
    </g>
    <g id="text_21">
     <!-- kWh (distribución) -->
     <g style="fill: #262626" transform="translate(14.479687 189.635286) rotate(-90) scale(0.1 -0.1)">
      <defs>
       <path id="ArialMT-6b" d="M 425 0 
L 425 4581 
L 988 4581 
L 988 1969 
L 2319 3319 
L 3047 3319 
L 1778 2088 
L 3175 0 
L 2481 0 
L 1384 1697 
L 988 1316 
L 988 0 
L 425 0 
z
" transform="scale(0.015625)"/>
       <path id="ArialMT-57" d="M 1294 0 
L 78 4581 
L 700 4581 
L 1397 1578 
Q 1509 1106 1591 641 
Q 1766 1375 1797 1488 
L 2669 4581 
L 3400 4581 
L 4056 2263 
Q 4303 1400 4413 641 
Q 4500 1075 4641 1638 
L 5359 4581 
L 5969 4581 
L 4713 0 
L 4128 0 
L 3163 3491 
Q 3041 3928 3019 4028 
Q 2947 3713 2884 3491 
L 1913 0 
L 1294 0 
z
" transform="scale(0.015625)"/>
       <path id="ArialMT-68" d="M 422 0 
L 422 4581 
L 984 4581 
L 984 2938 
Q 1378 3394 1978 3394 
Q 2347 3394 2619 3248 
Q 2891 3103 3008 2847 
Q 3125 2591 3125 2103 
L 3125 0 
L 2563 0 
L 2563 2103 
Q 2563 2525 2380 2717 
Q 2197 2909 1863 2909 
Q 1613 2909 1392 2779 
Q 1172 2650 1078 2428 
Q 984 2206 984 1816 
L 984 0 
L 422 0 
z
" transform="scale(0.015625)"/>
       <path id="ArialMT-20" transform="scale(0.015625)"/>
       <path id="ArialMT-28" d="M 1497 -1347 
Q 1031 -759 709 28 
Q 388 816 388 1659 
Q 388 2403 628 3084 
Q 909 3875 1497 4659 
L 1900 4659 
Q 1522 4009 1400 3731 
Q 1209 3300 1100 2831 
Q 966 2247 966 1656 
Q 966 153 1900 -1347 
L 1497 -1347 
z
" transform="scale(0.015625)"/>
       <path id="ArialMT-73" d="M 197 991 
L 753 1078 
Q 800 744 1014 566 
Q 1228 388 1613 388 
Q 2000 388 2187 545 
Q 2375 703 2375 916 
Q 2375 1106 2209 1216 
Q 2094 1291 1634 1406 
Q 1016 1563 777 1677 
Q 538 1791 414 1992 
Q 291 2194 291 2438 
Q 291 2659 392 2848 
Q 494 3038 669 3163 
Q 800 3259 1026 3326 
Q 1253 3394 1513 3394 
Q 1903 3394 2198 3281 
Q 2494 3169 2634 2976 
Q 2775 2784 2828 2463 
L 2278 2388 
Q 2241 2644 2061 2787 
Q 1881 2931 1553 2931 
Q 1166 2931 1000 2803 
Q 834 2675 834 2503 
Q 834 2394 903 2306 
Q 972 2216 1119 2156 
Q 1203 2125 1616 2013 
Q 2213 1853 2448 1751 
Q 2684 1650 2818 1456 
Q 2953 1263 2953 975 
Q 2953 694 2789 445 
Q 2625 197 2315 61 
Q 2006 -75 1616 -75 
Q 969 -75 630 194 
Q 291 463 197 991 
z
" transform="scale(0.015625)"/>
       <path id="ArialMT-74" d="M 1650 503 
L 1731 6 
Q 1494 -44 1306 -44 
Q 1000 -44 831 53 
Q 663 150 594 308 
Q 525 466 525 972 
L 525 2881 
L 113 2881 
L 113 3319 
L 525 3319 
L 525 4141 
L 1084 4478 
L 1084 3319 
L 1650 3319 
L 1650 2881 
L 1084 2881 
L 1084 941 
Q 1084 700 1114 631 
Q 1144 563 1211 522 
Q 1278 481 1403 481 
Q 1497 481 1650 503 
z
" transform="scale(0.015625)"/>
       <path id="ArialMT-62" d="M 941 0 
L 419 0 
L 419 4581 
L 981 4581 
L 981 2947 
Q 1338 3394 1891 3394 
Q 2197 3394 2470 3270 
Q 2744 3147 2920 2923 
Q 3097 2700 3197 2384 
Q 3297 2069 3297 1709 
Q 3297 856 2875 390 
Q 2453 -75 1863 -75 
Q 1275 -75 941 416 
L 941 0 
z
M 934 1684 
Q 934 1088 1097 822 
Q 1363 388 1816 388 
Q 2184 388 2453 708 
Q 2722 1028 2722 1663 
Q 2722 2313 2464 2622 
Q 2206 2931 1841 2931 
Q 1472 2931 1203 2611 
Q 934 2291 934 1684 
z
" transform="scale(0.015625)"/>
       <path id="ArialMT-75" d="M 2597 0 
L 2597 488 
Q 2209 -75 1544 -75 
Q 1250 -75 995 37 
Q 741 150 617 320 
Q 494 491 444 738 
Q 409 903 409 1263 
L 409 3319 
L 972 3319 
L 972 1478 
Q 972 1038 1006 884 
Q 1059 663 1231 536 
Q 1403 409 1656 409 
Q 1909 409 2131 539 
Q 2353 669 2445 892 
Q 2538 1116 2538 1541 
L 2538 3319 
L 3100 3319 
L 3100 0 
L 2597 0 
z
" transform="scale(0.015625)"/>
       <path id="ArialMT-63" d="M 2588 1216 
L 3141 1144 
Q 3050 572 2676 248 
Q 2303 -75 1759 -75 
Q 1078 -75 664 370 
Q 250 816 250 1647 
Q 250 2184 428 2587 
Q 606 2991 970 3192 
Q 1334 3394 1763 3394 
Q 2303 3394 2647 3120 
Q 2991 2847 3088 2344 
L 2541 2259 
Q 2463 2594 2264 2762 
Q 2066 2931 1784 2931 
Q 1359 2931 1093 2626 
Q 828 2322 828 1663 
Q 828 994 1084 691 
Q 1341 388 1753 388 
Q 2084 388 2306 591 
Q 2528 794 2588 1216 
z
" transform="scale(0.015625)"/>
       <path id="ArialMT-f3" d="M 213 1659 
Q 213 2581 725 3025 
Q 1153 3394 1769 3394 
Q 2453 3394 2887 2945 
Q 3322 2497 3322 1706 
Q 3322 1066 3130 698 
Q 2938 331 2570 128 
Q 2203 -75 1769 -75 
Q 1072 -75 642 372 
Q 213 819 213 1659 
z
M 791 1659 
Q 791 1022 1069 705 
Q 1347 388 1769 388 
Q 2188 388 2466 706 
Q 2744 1025 2744 1678 
Q 2744 2294 2464 2611 
Q 2184 2928 1769 2928 
Q 1347 2928 1069 2612 
Q 791 2297 791 1659 
z
M 1454 3731 
L 1869 4606 
L 2607 4606 
L 1919 3731 
L 1454 3731 
z
" transform="scale(0.015625)"/>
       <path id="ArialMT-6e" d="M 422 0 
L 422 3319 
L 928 3319 
L 928 2847 
Q 1294 3394 1984 3394 
Q 2284 3394 2536 3286 
Q 2788 3178 2913 3003 
Q 3038 2828 3088 2588 
Q 3119 2431 3119 2041 
L 3119 0 
L 2556 0 
L 2556 2019 
Q 2556 2363 2490 2533 
Q 2425 2703 2258 2804 
Q 2091 2906 1866 2906 
Q 1506 2906 1245 2678 
Q 984 2450 984 1813 
L 984 0 
L 422 0 
z
" transform="scale(0.015625)"/>
       <path id="ArialMT-29" d="M 791 -1347 
L 388 -1347 
Q 1322 153 1322 1656 
Q 1322 2244 1188 2822 
Q 1081 3291 891 3722 
Q 769 4003 388 4659 
L 791 4659 
Q 1378 3875 1659 3084 
Q 1900 2403 1900 1659 
Q 1900 816 1576 28 
Q 1253 -759 791 -1347 
z
" transform="scale(0.015625)"/>
      </defs>
      <use xlink:href="#ArialMT-6b"/>
      <use xlink:href="#ArialMT-57" transform="translate(50 0)"/>
      <use xlink:href="#ArialMT-68" transform="translate(144.384766 0)"/>
      <use xlink:href="#ArialMT-20" transform="translate(200 0)"/>
      <use xlink:href="#ArialMT-28" transform="translate(227.783203 0)"/>
      <use xlink:href="#ArialMT-64" transform="translate(261.083984 0)"/>
      <use xlink:href="#ArialMT-69" transform="translate(316.699219 0)"/>
      <use xlink:href="#ArialMT-73" transform="translate(338.916016 0)"/>
      <use xlink:href="#ArialMT-74" transform="translate(388.916016 0)"/>
      <use xlink:href="#ArialMT-72" transform="translate(416.699219 0)"/>
      <use xlink:href="#ArialMT-69" transform="translate(450 0)"/>
      <use xlink:href="#ArialMT-62" transform="translate(472.216797 0)"/>
      <use xlink:href="#ArialMT-75" transform="translate(527.832031 0)"/>
      <use xlink:href="#ArialMT-63" transform="translate(583.447266 0)"/>
      <use xlink:href="#ArialMT-69" transform="translate(633.447266 0)"/>
      <use xlink:href="#ArialMT-f3" transform="translate(655.664062 0)"/>
      <use xlink:href="#ArialMT-6e" transform="translate(711.279297 0)"/>
      <use xlink:href="#ArialMT-29" transform="translate(766.894531 0)"/>
     </g>
    </g>
   </g>
   <g id="patch_3">
    <path d="M 65.670625 276.591354 
L 65.670625 22.663594 
" style="fill: none; stroke: #d0d5dd; stroke-width: 0.9; stroke-linejoin: miter; stroke-linecap: square"/>
   </g>
   <g id="patch_4">
    <path d="M 65.670625 276.591354 
L 669.570625 276.591354 
" style="fill: none; stroke: #d0d5dd; stroke-width: 0.9; stroke-linejoin: miter; stroke-linecap: square"/>
   </g>
   <g id="patch_5">
    <path d="M 76.99375 162.902419 
L 104.6725 162.902419 
L 104.6725 162.902419 
L 76.99375 162.902419 
L 76.99375 162.902419 
z
" clip-path="url(#p4107920662)" style="fill: #deecfa; stroke: #8e8e8e; stroke-linejoin: miter"/>
   </g>
   <g id="line2d_15">
    <path d="M 90.833125 162.902419 
L 90.833125 162.902419 
" clip-path="url(#p4107920662)" style="fill: none; stroke: #1f3a5f"/>
   </g>
   <g id="line2d_16">
    <path d="M 90.833125 162.902419 
L 90.833125 162.902419 
" clip-path="url(#p4107920662)" style="fill: none; stroke: #1f3a5f"/>
   </g>
   <g id="line2d_17">
    <path d="M 83.913438 162.902419 
L 97.752812 162.902419 
" clip-path="url(#p4107920662)" style="fill: none; stroke: #1f3a5f; stroke-linecap: round"/>
   </g>
   <g id="line2d_18">
    <path d="M 83.913438 162.902419 
L 97.752812 162.902419 
" clip-path="url(#p4107920662)" style="fill: none; stroke: #1f3a5f; stroke-linecap: round"/>
   </g>
   <g id="patch_6">
    <path d="M 127.31875 186.748975 
L 154.9975 186.748975 
L 154.9975 186.748975 
L 127.31875 186.748975 
L 127.31875 186.748975 
z
" clip-path="url(#p4107920662)" style="fill: #deecfa; stroke: #8e8e8e; stroke-linejoin: miter"/>
   </g>
   <g id="line2d_19">
    <path d="M 141.158125 186.748975 
L 141.158125 186.748975 
" clip-path="url(#p4107920662)" style="fill: none; stroke: #1f3a5f"/>
   </g>
   <g id="line2d_20">
    <path d="M 141.158125 186.748975 
L 141.158125 186.748975 
" clip-path="url(#p4107920662)" style="fill: none; stroke: #1f3a5f"/>
   </g>
   <g id="line2d_21">
    <path d="M 134.238438 186.748975 
L 148.077812 186.748975 
" clip-path="url(#p4107920662)" style="fill: none; stroke: #1f3a5f; stroke-linecap: round"/>
   </g>
   <g id="line2d_22">
    <path d="M 134.238438 186.748975 
L 148.077812 186.748975 
" clip-path="url(#p4107920662)" style="fill: none; stroke: #1f3a5f; stroke-linecap: round"/>
   </g>
   <g id="patch_7">
    <path d="M 177.64375 175.866209 
L 205.3225 175.866209 
L 205.3225 175.866209 
L 177.64375 175.866209 
L 177.64375 175.866209 
z
" clip-path="url(#p4107920662)" style="fill: #deecfa; stroke: #8e8e8e; stroke-linejoin: miter"/>
   </g>
   <g id="line2d_23">
    <path d="M 191.483125 175.866209 
L 191.483125 175.866209 
" clip-path="url(#p4107920662)" style="fill: none; stroke: #1f3a5f"/>
   </g>
   <g id="line2d_24">
    <path d="M 191.483125 175.866209 
L 191.483125 175.866209 
" clip-path="url(#p4107920662)" style="fill: none; stroke: #1f3a5f"/>
   </g>
   <g id="line2d_25">
    <path d="M 184.563438 175.866209 
L 198.402813 175.866209 
" clip-path="url(#p4107920662)" style="fill: none; stroke: #1f3a5f; stroke-linecap: round"/>
   </g>
   <g id="line2d_26">
    <path d="M 184.563438 175.866209 
L 198.402813 175.866209 
" clip-path="url(#p4107920662)" style="fill: none; stroke: #1f3a5f; stroke-linecap: round"/>
   </g>
   <g id="patch_8">
    <path d="M 227.96875 214.267925 
L 255.6475 214.267925 
L 255.6475 214.267925 
L 227.96875 214.267925 
L 227.96875 214.267925 
z
" clip-path="url(#p4107920662)" style="fill: #deecfa; stroke: #8e8e8e; stroke-linejoin: miter"/>
   </g>
   <g id="line2d_27">
    <path d="M 241.808125 214.267925 
L 241.808125 214.267925 
" clip-path="url(#p4107920662)" style="fill: none; stroke: #1f3a5f"/>
   </g>
   <g id="line2d_28">
    <path d="M 241.808125 214.267925 
L 241.808125 214.267925 
" clip-path="url(#p4107920662)" style="fill: none; stroke: #1f3a5f"/>
   </g>
   <g id="line2d_29">
    <path d="M 234.888437 214.267925 
L 248.727813 214.267925 
" clip-path="url(#p4107920662)" style="fill: none; stroke: #1f3a5f; stroke-linecap: round"/>
   </g>
   <g id="line2d_30">
    <path d="M 234.888437 214.267925 
L 248.727813 214.267925 
" clip-path="url(#p4107920662)" style="fill: none; stroke: #1f3a5f; stroke-linecap: round"/>
   </g>
   <g id="patch_9">
    <path d="M 278.29375 243.537373 
L 305.9725 243.537373 
L 305.9725 243.537373 
L 278.29375 243.537373 
L 278.29375 243.537373 
z
" clip-path="url(#p4107920662)" style="fill: #deecfa; stroke: #8e8e8e; stroke-linejoin: miter"/>
   </g>
   <g id="line2d_31">
    <path d="M 292.133125 243.537373 
L 292.133125 243.537373 
" clip-path="url(#p4107920662)" style="fill: none; stroke: #1f3a5f"/>
   </g>
   <g id="line2d_32">
    <path d="M 292.133125 243.537373 
L 292.133125 243.537373 
" clip-path="url(#p4107920662)" style="fill: none; stroke: #1f3a5f"/>
   </g>
   <g id="line2d_33">
    <path d="M 285.213437 243.537373 
L 299.052813 243.537373 
" clip-path="url(#p4107920662)" style="fill: none; stroke: #1f3a5f; stroke-linecap: round"/>
   </g>
   <g id="line2d_34">
    <path d="M 285.213437 243.537373 
L 299.052813 243.537373 
" clip-path="url(#p4107920662)" style="fill: none; stroke: #1f3a5f; stroke-linecap: round"/>
   </g>
   <g id="patch_10">
    <path d="M 328.61875 248.093078 
L 356.2975 248.093078 
L 356.2975 248.093078 
L 328.61875 248.093078 
L 328.61875 248.093078 
z
" clip-path="url(#p4107920662)" style="fill: #deecfa; stroke: #8e8e8e; stroke-linejoin: miter"/>
   </g>
   <g id="line2d_35">
    <path d="M 342.458125 248.093078 
L 342.458125 248.093078 
" clip-path="url(#p4107920662)" style="fill: none; stroke: #1f3a5f"/>
   </g>
   <g id="line2d_36">
    <path d="M 342.458125 248.093078 
L 342.458125 248.093078 
" clip-path="url(#p4107920662)" style="fill: none; stroke: #1f3a5f"/>
   </g>
   <g id="line2d_37">
    <path d="M 335.538437 248.093078 
L 349.377813 248.093078 
" clip-path="url(#p4107920662)" style="fill: none; stroke: #1f3a5f; stroke-linecap: round"/>
   </g>
   <g id="line2d_38">
    <path d="M 335.538437 248.093078 
L 349.377813 248.093078 
" clip-path="url(#p4107920662)" style="fill: none; stroke: #1f3a5f; stroke-linecap: round"/>
   </g>
   <g id="patch_11">
    <path d="M 378.94375 230.47392 
L 406.6225 230.47392 
L 406.6225 230.47392 
L 378.94375 230.47392 
L 378.94375 230.47392 
z
" clip-path="url(#p4107920662)" style="fill: #deecfa; stroke: #8e8e8e; stroke-linejoin: miter"/>
   </g>
   <g id="line2d_39">
    <path d="M 392.783125 230.47392 
L 392.783125 230.47392 
" clip-path="url(#p4107920662)" style="fill: none; stroke: #1f3a5f"/>
   </g>
   <g id="line2d_40">
    <path d="M 392.783125 230.47392 
L 392.783125 230.47392 
" clip-path="url(#p4107920662)" style="fill: none; stroke: #1f3a5f"/>
   </g>
   <g id="line2d_41">
    <path d="M 385.863437 230.47392 
L 399.702813 230.47392 
" clip-path="url(#p4107920662)" style="fill: none; stroke: #1f3a5f; stroke-linecap: round"/>
   </g>
   <g id="line2d_42">
    <path d="M 385.863437 230.47392 
L 399.702813 230.47392 
" clip-path="url(#p4107920662)" style="fill: none; stroke: #1f3a5f; stroke-linecap: round"/>
   </g>
   <g id="patch_12">
    <path d="M 429.26875 195.407939 
L 456.9475 195.407939 
L 456.9475 195.407939 
L 429.26875 195.407939 
L 429.26875 195.407939 
z
" clip-path="url(#p4107920662)" style="fill: #deecfa; stroke: #8e8e8e; stroke-linejoin: miter"/>
   </g>
   <g id="line2d_43">
    <path d="M 443.108125 195.407939 
L 443.108125 195.407939 
" clip-path="url(#p4107920662)" style="fill: none; stroke: #1f3a5f"/>
   </g>
   <g id="line2d_44">
    <path d="M 443.108125 195.407939 
L 443.108125 195.407939 
" clip-path="url(#p4107920662)" style="fill: none; stroke: #1f3a5f"/>
   </g>
   <g id="line2d_45">
    <path d="M 436.188438 195.407939 
L 450.027813 195.407939 
" clip-path="url(#p4107920662)" style="fill: none; stroke: #1f3a5f; stroke-linecap: round"/>
   </g>
   <g id="line2d_46">
    <path d="M 436.188438 195.407939 
L 450.027813 195.407939 
" clip-path="url(#p4107920662)" style="fill: none; stroke: #1f3a5f; stroke-linecap: round"/>
   </g>
   <g id="patch_13">
    <path d="M 479.59375 157.615922 
L 507.2725 157.615922 
L 507.2725 157.615922 
L 479.59375 157.615922 
L 479.59375 157.615922 
z
" clip-path="url(#p4107920662)" style="fill: #deecfa; stroke: #8e8e8e; stroke-linejoin: miter"/>
   </g>
   <g id="line2d_47">
    <path d="M 493.433125 157.615922 
L 493.433125 157.615922 
" clip-path="url(#p4107920662)" style="fill: none; stroke: #1f3a5f"/>
   </g>
   <g id="line2d_48">
    <path d="M 493.433125 157.615922 
L 493.433125 157.615922 
" clip-path="url(#p4107920662)" style="fill: none; stroke: #1f3a5f"/>
   </g>
   <g id="line2d_49">
    <path d="M 486.513438 157.615922 
L 500.352812 157.615922 
" clip-path="url(#p4107920662)" style="fill: none; stroke: #1f3a5f; stroke-linecap: round"/>
   </g>
   <g id="line2d_50">
    <path d="M 486.513438 157.615922 
L 500.352812 157.615922 
" clip-path="url(#p4107920662)" style="fill: none; stroke: #1f3a5f; stroke-linecap: round"/>
   </g>
   <g id="patch_14">
    <path d="M 529.91875 70.104503 
L 557.5975 70.104503 
L 557.5975 70.104503 
L 529.91875 70.104503 
L 529.91875 70.104503 
z
" clip-path="url(#p4107920662)" style="fill: #deecfa; stroke: #8e8e8e; stroke-linejoin: miter"/>
   </g>
   <g id="line2d_51">
    <path d="M 543.758125 70.104503 
L 543.758125 70.104503 
" clip-path="url(#p4107920662)" style="fill: none; stroke: #1f3a5f"/>
   </g>
   <g id="line2d_52">
    <path d="M 543.758125 70.104503 
L 543.758125 70.104503 
" clip-path="url(#p4107920662)" style="fill: none; stroke: #1f3a5f"/>
   </g>
   <g id="line2d_53">
    <path d="M 536.838438 70.104503 
L 550.677812 70.104503 
" clip-path="url(#p4107920662)" style="fill: none; stroke: #1f3a5f; stroke-linecap: round"/>
   </g>
   <g id="line2d_54">
    <path d="M 536.838438 70.104503 
L 550.677812 70.104503 
" clip-path="url(#p4107920662)" style="fill: none; stroke: #1f3a5f; stroke-linecap: round"/>
   </g>
   <g id="patch_15">
    <path d="M 580.24375 24.78513 
L 607.9225 24.78513 
L 607.9225 24.78513 
L 580.24375 24.78513 
L 580.24375 24.78513 
z
" clip-path="url(#p4107920662)" style="fill: #deecfa; stroke: #8e8e8e; stroke-linejoin: miter"/>
   </g>
   <g id="line2d_55">
    <path d="M 594.083125 24.78513 
L 594.083125 24.78513 
" clip-path="url(#p4107920662)" style="fill: none; stroke: #1f3a5f"/>
   </g>
   <g id="line2d_56">
    <path d="M 594.083125 24.78513 
L 594.083125 24.78513 
" clip-path="url(#p4107920662)" style="fill: none; stroke: #1f3a5f"/>
   </g>
   <g id="line2d_57">
    <path d="M 587.163438 24.78513 
L 601.002813 24.78513 
" clip-path="url(#p4107920662)" style="fill: none; stroke: #1f3a5f; stroke-linecap: round"/>
   </g>
   <g id="line2d_58">
    <path d="M 587.163438 24.78513 
L 601.002813 24.78513 
" clip-path="url(#p4107920662)" style="fill: none; stroke: #1f3a5f; stroke-linecap: round"/>
   </g>
   <g id="patch_16">
    <path d="M 630.56875 114.851053 
L 658.2475 114.851053 
L 658.2475 114.851053 
L 630.56875 114.851053 
L 630.56875 114.851053 
z
" clip-path="url(#p4107920662)" style="fill: #deecfa; stroke: #8e8e8e; stroke-linejoin: miter"/>
   </g>
   <g id="line2d_59">
    <path d="M 644.408125 114.851053 
L 644.408125 114.851053 
" clip-path="url(#p4107920662)" style="fill: none; stroke: #1f3a5f"/>
   </g>
   <g id="line2d_60">
    <path d="M 644.408125 114.851053 
L 644.408125 114.851053 
" clip-path="url(#p4107920662)" style="fill: none; stroke: #1f3a5f"/>
   </g>
   <g id="line2d_61">
    <path d="M 637.488438 114.851053 
L 651.327812 114.851053 
" clip-path="url(#p4107920662)" style="fill: none; stroke: #1f3a5f; stroke-linecap: round"/>
   </g>
   <g id="line2d_62">
    <path d="M 637.488438 114.851053 
L 651.327812 114.851053 
" clip-path="url(#p4107920662)" style="fill: none; stroke: #1f3a5f; stroke-linecap: round"/>
   </g>
   <g id="text_22">
    <!-- Vertimientos por empresa en cada mes (kWh) -->
    <g style="fill: #262626" transform="translate(227.108906 16.663594) scale(0.13 -0.13)">
     <defs>
      <path id="Arial-BoldMT-56" d="M 1634 0 
L -3 4581 
L 1000 4581 
L 2159 1191 
L 3281 4581 
L 4263 4581 
L 2622 0 
L 1634 0 
z
" transform="scale(0.015625)"/>
      <path id="Arial-BoldMT-65" d="M 2381 1056 
L 3256 909 
Q 3088 428 2723 176 
Q 2359 -75 1813 -75 
Q 947 -75 531 491 
Q 203 944 203 1634 
Q 203 2459 634 2926 
Q 1066 3394 1725 3394 
Q 2466 3394 2894 2905 
Q 3322 2416 3303 1406 
L 1103 1406 
Q 1113 1016 1316 798 
Q 1519 581 1822 581 
Q 2028 581 2168 693 
Q 2309 806 2381 1056 
z
M 2431 1944 
Q 2422 2325 2234 2523 
Q 2047 2722 1778 2722 
Q 1491 2722 1303 2513 
Q 1116 2303 1119 1944 
L 2431 1944 
z
" transform="scale(0.015625)"/>
      <path id="Arial-BoldMT-72" d="M 1300 0 
L 422 0 
L 422 3319 
L 1238 3319 
L 1238 2847 
Q 1447 3181 1614 3287 
Q 1781 3394 1994 3394 
Q 2294 3394 2572 3228 
L 2300 2463 
Q 2078 2606 1888 2606 
Q 1703 2606 1575 2504 
Q 1447 2403 1373 2137 
Q 1300 1872 1300 1025 
L 1300 0 
z
" transform="scale(0.015625)"/>
      <path id="Arial-BoldMT-74" d="M 1981 3319 
L 1981 2619 
L 1381 2619 
L 1381 1281 
Q 1381 875 1398 808 
Q 1416 741 1477 697 
Q 1538 653 1625 653 
Q 1747 653 1978 738 
L 2053 56 
Q 1747 -75 1359 -75 
Q 1122 -75 931 4 
Q 741 84 652 211 
Q 563 338 528 553 
Q 500 706 500 1172 
L 500 2619 
L 97 2619 
L 97 3319 
L 500 3319 
L 500 3978 
L 1381 4491 
L 1381 3319 
L 1981 3319 
z
" transform="scale(0.015625)"/>
      <path id="Arial-BoldMT-69" d="M 459 3769 
L 459 4581 
L 1338 4581 
L 1338 3769 
L 459 3769 
z
M 459 0 
L 459 3319 
L 1338 3319 
L 1338 0 
L 459 0 
z
" transform="scale(0.015625)"/>
      <path id="Arial-BoldMT-6d" d="M 394 3319 
L 1203 3319 
L 1203 2866 
Q 1638 3394 2238 3394 
Q 2556 3394 2790 3262 
Q 3025 3131 3175 2866 
Q 3394 3131 3647 3262 
Q 3900 3394 4188 3394 
Q 4553 3394 4806 3245 
Q 5059 3097 5184 2809 
Q 5275 2597 5275 2122 
L 5275 0 
L 4397 0 
L 4397 1897 
Q 4397 2391 4306 2534 
Q 4184 2722 3931 2722 
Q 3747 2722 3584 2609 
Q 3422 2497 3350 2280 
Q 3278 2063 3278 1594 
L 3278 0 
L 2400 0 
L 2400 1819 
Q 2400 2303 2353 2443 
Q 2306 2584 2207 2653 
Q 2109 2722 1941 2722 
Q 1738 2722 1575 2612 
Q 1413 2503 1342 2297 
Q 1272 2091 1272 1613 
L 1272 0 
L 394 0 
L 394 3319 
z
" transform="scale(0.015625)"/>
      <path id="Arial-BoldMT-6e" d="M 3478 0 
L 2600 0 
L 2600 1694 
Q 2600 2231 2544 2389 
Q 2488 2547 2361 2634 
Q 2234 2722 2056 2722 
Q 1828 2722 1647 2597 
Q 1466 2472 1398 2265 
Q 1331 2059 1331 1503 
L 1331 0 
L 453 0 
L 453 3319 
L 1269 3319 
L 1269 2831 
Q 1703 3394 2363 3394 
Q 2653 3394 2893 3289 
Q 3134 3184 3257 3021 
Q 3381 2859 3429 2653 
Q 3478 2447 3478 2063 
L 3478 0 
z
" transform="scale(0.015625)"/>
      <path id="Arial-BoldMT-6f" d="M 256 1706 
Q 256 2144 472 2553 
Q 688 2963 1083 3178 
Q 1478 3394 1966 3394 
Q 2719 3394 3200 2905 
Q 3681 2416 3681 1669 
Q 3681 916 3195 420 
Q 2709 -75 1972 -75 
Q 1516 -75 1102 131 
Q 688 338 472 736 
Q 256 1134 256 1706 
z
M 1156 1659 
Q 1156 1166 1390 903 
Q 1625 641 1969 641 
Q 2313 641 2545 903 
Q 2778 1166 2778 1666 
Q 2778 2153 2545 2415 
Q 2313 2678 1969 2678 
Q 1625 2678 1390 2415 
Q 1156 2153 1156 1659 
z
" transform="scale(0.015625)"/>
      <path id="Arial-BoldMT-73" d="M 150 947 
L 1031 1081 
Q 1088 825 1259 692 
Q 1431 559 1741 559 
Q 2081 559 2253 684 
Q 2369 772 2369 919 
Q 2369 1019 2306 1084 
Q 2241 1147 2013 1200 
Q 950 1434 666 1628 
Q 272 1897 272 2375 
Q 272 2806 612 3100 
Q 953 3394 1669 3394 
Q 2350 3394 2681 3172 
Q 3013 2950 3138 2516 
L 2309 2363 
Q 2256 2556 2107 2659 
Q 1959 2763 1684 2763 
Q 1338 2763 1188 2666 
Q 1088 2597 1088 2488 
Q 1088 2394 1175 2328 
Q 1294 2241 1995 2081 
Q 2697 1922 2975 1691 
Q 3250 1456 3250 1038 
Q 3250 581 2869 253 
Q 2488 -75 1741 -75 
Q 1063 -75 667 200 
Q 272 475 150 947 
z
" transform="scale(0.015625)"/>
      <path id="Arial-BoldMT-20" transform="scale(0.015625)"/>
      <path id="Arial-BoldMT-70" d="M 434 3319 
L 1253 3319 
L 1253 2831 
Q 1413 3081 1684 3237 
Q 1956 3394 2288 3394 
Q 2866 3394 3269 2941 
Q 3672 2488 3672 1678 
Q 3672 847 3265 386 
Q 2859 -75 2281 -75 
Q 2006 -75 1782 34 
Q 1559 144 1313 409 
L 1313 -1263 
L 434 -1263 
L 434 3319 
z
M 1303 1716 
Q 1303 1156 1525 889 
Q 1747 622 2066 622 
Q 2372 622 2575 867 
Q 2778 1113 2778 1672 
Q 2778 2194 2568 2447 
Q 2359 2700 2050 2700 
Q 1728 2700 1515 2451 
Q 1303 2203 1303 1716 
z
" transform="scale(0.015625)"/>
      <path id="Arial-BoldMT-61" d="M 1116 2306 
L 319 2450 
Q 453 2931 781 3162 
Q 1109 3394 1756 3394 
Q 2344 3394 2631 3255 
Q 2919 3116 3036 2902 
Q 3153 2688 3153 2116 
L 3144 1091 
Q 3144 653 3186 445 
Q 3228 238 3344 0 
L 2475 0 
Q 2441 88 2391 259 
Q 2369 338 2359 363 
Q 2134 144 1878 34 
Q 1622 -75 1331 -75 
Q 819 -75 523 203 
Q 228 481 228 906 
Q 228 1188 362 1408 
Q 497 1628 739 1745 
Q 981 1863 1438 1950 
Q 2053 2066 2291 2166 
L 2291 2253 
Q 2291 2506 2166 2614 
Q 2041 2722 1694 2722 
Q 1459 2722 1328 2630 
Q 1197 2538 1116 2306 
z
M 2291 1594 
Q 2122 1538 1756 1459 
Q 1391 1381 1278 1306 
Q 1106 1184 1106 997 
Q 1106 813 1243 678 
Q 1381 544 1594 544 
Q 1831 544 2047 700 
Q 2206 819 2256 991 
Q 2291 1103 2291 1419 
L 2291 1594 
z
" transform="scale(0.015625)"/>
      <path id="Arial-BoldMT-63" d="M 3353 2338 
L 2488 2181 
Q 2444 2441 2289 2572 
Q 2134 2703 1888 2703 
Q 1559 2703 1364 2476 
Q 1169 2250 1169 1719 
Q 1169 1128 1367 884 
Q 1566 641 1900 641 
Q 2150 641 2309 783 
Q 2469 925 2534 1272 
L 3397 1125 
Q 3263 531 2881 228 
Q 2500 -75 1859 -75 
Q 1131 -75 698 384 
Q 266 844 266 1656 
Q 266 2478 700 2936 
Q 1134 3394 1875 3394 
Q 2481 3394 2839 3133 
Q 3197 2872 3353 2338 
z
" transform="scale(0.015625)"/>
      <path id="Arial-BoldMT-64" d="M 3503 0 
L 2688 0 
L 2688 488 
Q 2484 203 2207 64 
Q 1931 -75 1650 -75 
Q 1078 -75 670 386 
Q 263 847 263 1672 
Q 263 2516 659 2955 
Q 1056 3394 1663 3394 
Q 2219 3394 2625 2931 
L 2625 4581 
L 3503 4581 
L 3503 0 
z
M 1159 1731 
Q 1159 1200 1306 963 
Q 1519 619 1900 619 
Q 2203 619 2415 876 
Q 2628 1134 2628 1647 
Q 2628 2219 2422 2470 
Q 2216 2722 1894 2722 
Q 1581 2722 1370 2473 
Q 1159 2225 1159 1731 
z
" transform="scale(0.015625)"/>
      <path id="Arial-BoldMT-28" d="M 1916 -1347 
L 1313 -1347 
Q 834 -625 584 153 
Q 334 931 334 1659 
Q 334 2563 644 3369 
Q 913 4069 1325 4659 
L 1925 4659 
Q 1497 3713 1336 3048 
Q 1175 2384 1175 1641 
Q 1175 1128 1270 590 
Q 1366 53 1531 -431 
Q 1641 -750 1916 -1347 
z
" transform="scale(0.015625)"/>
      <path id="Arial-BoldMT-6b" d="M 428 0 
L 428 4581 
L 1306 4581 
L 1306 2150 
L 2334 3319 
L 3416 3319 
L 2281 2106 
L 3497 0 
L 2550 0 
L 1716 1491 
L 1306 1063 
L 1306 0 
L 428 0 
z
" transform="scale(0.015625)"/>
      <path id="Arial-BoldMT-57" d="M 1116 0 
L 22 4581 
L 969 4581 
L 1659 1434 
L 2497 4581 
L 3597 4581 
L 4400 1381 
L 5103 4581 
L 6034 4581 
L 4922 0 
L 3941 0 
L 3028 3425 
L 2119 0 
L 1116 0 
z
" transform="scale(0.015625)"/>
      <path id="Arial-BoldMT-68" d="M 1334 4581 
L 1334 2897 
Q 1759 3394 2350 3394 
Q 2653 3394 2897 3281 
Q 3141 3169 3264 2994 
Q 3388 2819 3433 2606 
Q 3478 2394 3478 1947 
L 3478 0 
L 2600 0 
L 2600 1753 
Q 2600 2275 2550 2415 
Q 2500 2556 2373 2639 
Q 2247 2722 2056 2722 
Q 1838 2722 1666 2615 
Q 1494 2509 1414 2295 
Q 1334 2081 1334 1663 
L 1334 0 
L 456 0 
L 456 4581 
L 1334 4581 
z
" transform="scale(0.015625)"/>
      <path id="Arial-BoldMT-29" d="M 216 -1347 
Q 475 -791 581 -494 
Q 688 -197 778 190 
Q 869 578 912 926 
Q 956 1275 956 1641 
Q 956 2384 797 3048 
Q 638 3713 209 4659 
L 806 4659 
Q 1278 3988 1539 3234 
Q 1800 2481 1800 1706 
Q 1800 1053 1594 306 
Q 1359 -531 822 -1347 
L 216 -1347 
z
" transform="scale(0.015625)"/>
     </defs>
     <use xlink:href="#Arial-BoldMT-56"/>
     <use xlink:href="#Arial-BoldMT-65" transform="translate(61.199219 0)"/>
     <use xlink:href="#Arial-BoldMT-72" transform="translate(116.814453 0)"/>
     <use xlink:href="#Arial-BoldMT-74" transform="translate(155.730469 0)"/>
     <use xlink:href="#Arial-BoldMT-69" transform="translate(189.03125 0)"/>
     <use xlink:href="#Arial-BoldMT-6d" transform="translate(216.814453 0)"/>
     <use xlink:href="#Arial-BoldMT-69" transform="translate(305.730469 0)"/>
     <use xlink:href="#Arial-BoldMT-65" transform="translate(333.513672 0)"/>
     <use xlink:href="#Arial-BoldMT-6e" transform="translate(389.128906 0)"/>
     <use xlink:href="#Arial-BoldMT-74" transform="translate(450.212891 0)"/>
     <use xlink:href="#Arial-BoldMT-6f" transform="translate(483.513672 0)"/>
     <use xlink:href="#Arial-BoldMT-73" transform="translate(544.597656 0)"/>
     <use xlink:href="#Arial-BoldMT-20" transform="translate(600.212891 0)"/>
     <use xlink:href="#Arial-BoldMT-70" transform="translate(627.996094 0)"/>
     <use xlink:href="#Arial-BoldMT-6f" transform="translate(689.080078 0)"/>
     <use xlink:href="#Arial-BoldMT-72" transform="translate(750.164062 0)"/>
     <use xlink:href="#Arial-BoldMT-20" transform="translate(789.080078 0)"/>
     <use xlink:href="#Arial-BoldMT-65" transform="translate(816.863281 0)"/>
     <use xlink:href="#Arial-BoldMT-6d" transform="translate(872.478516 0)"/>
     <use xlink:href="#Arial-BoldMT-70" transform="translate(961.394531 0)"/>
     <use xlink:href="#Arial-BoldMT-72" transform="translate(1022.478516 0)"/>
     <use xlink:href="#Arial-BoldMT-65" transform="translate(1061.394531 0)"/>
     <use xlink:href="#Arial-BoldMT-73" transform="translate(1117.009766 0)"/>
     <use xlink:href="#Arial-BoldMT-61" transform="translate(1172.625 0)"/>
     <use xlink:href="#Arial-BoldMT-20" transform="translate(1228.240234 0)"/>
     <use xlink:href="#Arial-BoldMT-65" transform="translate(1256.023438 0)"/>
     <use xlink:href="#Arial-BoldMT-6e" transform="translate(1311.638672 0)"/>
     <use xlink:href="#Arial-BoldMT-20" transform="translate(1372.722656 0)"/>
     <use xlink:href="#Arial-BoldMT-63" transform="translate(1400.505859 0)"/>
     <use xlink:href="#Arial-BoldMT-61" transform="translate(1456.121094 0)"/>
     <use xlink:href="#Arial-BoldMT-64" transform="translate(1511.736328 0)"/>
     <use xlink:href="#Arial-BoldMT-61" transform="translate(1572.820312 0)"/>
     <use xlink:href="#Arial-BoldMT-20" transform="translate(1628.435547 0)"/>
     <use xlink:href="#Arial-BoldMT-6d" transform="translate(1656.21875 0)"/>
     <use xlink:href="#Arial-BoldMT-65" transform="translate(1745.134766 0)"/>
     <use xlink:href="#Arial-BoldMT-73" transform="translate(1800.75 0)"/>
     <use xlink:href="#Arial-BoldMT-20" transform="translate(1856.365234 0)"/>
     <use xlink:href="#Arial-BoldMT-28" transform="translate(1884.148438 0)"/>
     <use xlink:href="#Arial-BoldMT-6b" transform="translate(1917.449219 0)"/>
     <use xlink:href="#Arial-BoldMT-57" transform="translate(1973.064453 0)"/>
     <use xlink:href="#Arial-BoldMT-68" transform="translate(2067.449219 0)"/>
     <use xlink:href="#Arial-BoldMT-29" transform="translate(2128.533203 0)"/>
    </g>
   </g>
   <g id="line2d_63">
    <path d="M 76.99375 162.902419 
L 104.6725 162.902419 
" clip-path="url(#p4107920662)" style="fill: none; stroke: #1f3a5f"/>
   </g>
   <g id="line2d_64">
    <path d="M 127.31875 186.748975 
L 154.9975 186.748975 
" clip-path="url(#p4107920662)" style="fill: none; stroke: #1f3a5f"/>
   </g>
   <g id="line2d_65">
    <path d="M 177.64375 175.866209 
L 205.3225 175.866209 
" clip-path="url(#p4107920662)" style="fill: none; stroke: #1f3a5f"/>
   </g>
   <g id="line2d_66">
    <path d="M 227.96875 214.267925 
L 255.6475 214.267925 
" clip-path="url(#p4107920662)" style="fill: none; stroke: #1f3a5f"/>
   </g>
   <g id="line2d_67">
    <path d="M 278.29375 243.537373 
L 305.9725 243.537373 
" clip-path="url(#p4107920662)" style="fill: none; stroke: #1f3a5f"/>
   </g>
   <g id="line2d_68">
    <path d="M 328.61875 248.093078 
L 356.2975 248.093078 
" clip-path="url(#p4107920662)" style="fill: none; stroke: #1f3a5f"/>
   </g>
   <g id="line2d_69">
    <path d="M 378.94375 230.47392 
L 406.6225 230.47392 
" clip-path="url(#p4107920662)" style="fill: none; stroke: #1f3a5f"/>
   </g>
   <g id="line2d_70">
    <path d="M 429.26875 195.407939 
L 456.9475 195.407939 
" clip-path="url(#p4107920662)" style="fill: none; stroke: #1f3a5f"/>
   </g>
   <g id="line2d_71">
    <path d="M 479.59375 157.615922 
L 507.2725 157.615922 
" clip-path="url(#p4107920662)" style="fill: none; stroke: #1f3a5f"/>
   </g>
   <g id="line2d_72">
    <path d="M 529.91875 70.104503 
L 557.5975 70.104503 
" clip-path="url(#p4107920662)" style="fill: none; stroke: #1f3a5f"/>
   </g>
   <g id="line2d_73">
    <path d="M 580.24375 24.78513 
L 607.9225 24.78513 
" clip-path="url(#p4107920662)" style="fill: none; stroke: #1f3a5f"/>
   </g>
   <g id="line2d_74">
    <path d="M 630.56875 114.851053 
L 658.2475 114.851053 
" clip-path="url(#p4107920662)" style="fill: none; stroke: #1f3a5f"/>
   </g>
  </g>
  <g id="axes_2">
   <g id="matplotlib.axis_3">
    <g id="ytick_8">
     <g id="line2d_75">
      <defs>
       <path id="mf691024fb8" d="M 0 0 
L 6 0 
" style="stroke: #262626; stroke-width: 1.25"/>
      </defs>
      <g>
       <use xlink:href="#mf691024fb8" x="669.570625" y="251.262431" style="fill: #262626; stroke: #262626; stroke-width: 1.25"/>
      </g>
     </g>
     <g id="text_23">
      <!-- 200.000 -->
      <g style="fill: #262626" transform="translate(679.070625 254.125556) scale(0.08 -0.08)">
       <use xlink:href="#ArialMT-32"/>
       <use xlink:href="#ArialMT-30" transform="translate(55.615234 0)"/>
       <use xlink:href="#ArialMT-30" transform="translate(111.230469 0)"/>
       <use xlink:href="#ArialMT-2e" transform="translate(166.845703 0)"/>
       <use xlink:href="#ArialMT-30" transform="translate(194.628906 0)"/>
       <use xlink:href="#ArialMT-30" transform="translate(250.244141 0)"/>
       <use xlink:href="#ArialMT-30" transform="translate(305.859375 0)"/>
      </g>
     </g>
    </g>
    <g id="ytick_9">
     <g id="line2d_76">
      <g>
       <use xlink:href="#mf691024fb8" x="669.570625" y="208.015737" style="fill: #262626; stroke: #262626; stroke-width: 1.25"/>
      </g>
     </g>
     <g id="text_24">
      <!-- 400.000 -->
      <g style="fill: #262626" transform="translate(679.070625 210.878862) scale(0.08 -0.08)">
       <use xlink:href="#ArialMT-34"/>
       <use xlink:href="#ArialMT-30" transform="translate(55.615234 0)"/>
       <use xlink:href="#ArialMT-30" transform="translate(111.230469 0)"/>
       <use xlink:href="#ArialMT-2e" transform="translate(166.845703 0)"/>
       <use xlink:href="#ArialMT-30" transform="translate(194.628906 0)"/>
       <use xlink:href="#ArialMT-30" transform="translate(250.244141 0)"/>
       <use xlink:href="#ArialMT-30" transform="translate(305.859375 0)"/>
      </g>
     </g>
    </g>
    <g id="ytick_10">
     <g id="line2d_77">
      <g>
       <use xlink:href="#mf691024fb8" x="669.570625" y="164.769042" style="fill: #262626; stroke: #262626; stroke-width: 1.25"/>
      </g>
     </g>
     <g id="text_25">
      <!-- 600.000 -->
      <g style="fill: #262626" transform="translate(679.070625 167.632167) scale(0.08 -0.08)">
       <use xlink:href="#ArialMT-36"/>
       <use xlink:href="#ArialMT-30" transform="translate(55.615234 0)"/>
       <use xlink:href="#ArialMT-30" transform="translate(111.230469 0)"/>
       <use xlink:href="#ArialMT-2e" transform="translate(166.845703 0)"/>
       <use xlink:href="#ArialMT-30" transform="translate(194.628906 0)"/>
       <use xlink:href="#ArialMT-30" transform="translate(250.244141 0)"/>
       <use xlink:href="#ArialMT-30" transform="translate(305.859375 0)"/>
      </g>
     </g>
    </g>
    <g id="ytick_11">
     <g id="line2d_78">
      <g>
       <use xlink:href="#mf691024fb8" x="669.570625" y="121.522348" style="fill: #262626; stroke: #262626; stroke-width: 1.25"/>
      </g>
     </g>
     <g id="text_26">
      <!-- 800.000 -->
      <g style="fill: #262626" transform="translate(679.070625 124.385473) scale(0.08 -0.08)">
       <use xlink:href="#ArialMT-38"/>
       <use xlink:href="#ArialMT-30" transform="translate(55.615234 0)"/>
       <use xlink:href="#ArialMT-30" transform="translate(111.230469 0)"/>
       <use xlink:href="#ArialMT-2e" transform="translate(166.845703 0)"/>
       <use xlink:href="#ArialMT-30" transform="translate(194.628906 0)"/>
       <use xlink:href="#ArialMT-30" transform="translate(250.244141 0)"/>
       <use xlink:href="#ArialMT-30" transform="translate(305.859375 0)"/>
      </g>
     </g>
    </g>
    <g id="ytick_12">
     <g id="line2d_79">
      <g>
       <use xlink:href="#mf691024fb8" x="669.570625" y="78.275653" style="fill: #262626; stroke: #262626; stroke-width: 1.25"/>
      </g>
     </g>
     <g id="text_27">
      <!-- 1.000.000 -->
      <g style="fill: #262626" transform="translate(679.070625 81.138778) scale(0.08 -0.08)">
       <use xlink:href="#ArialMT-31"/>
       <use xlink:href="#ArialMT-2e" transform="translate(55.615234 0)"/>
       <use xlink:href="#ArialMT-30" transform="translate(83.398438 0)"/>
       <use xlink:href="#ArialMT-30" transform="translate(139.013672 0)"/>
       <use xlink:href="#ArialMT-30" transform="translate(194.628906 0)"/>
       <use xlink:href="#ArialMT-2e" transform="translate(250.244141 0)"/>
       <use xlink:href="#ArialMT-30" transform="translate(278.027344 0)"/>
       <use xlink:href="#ArialMT-30" transform="translate(333.642578 0)"/>
       <use xlink:href="#ArialMT-30" transform="translate(389.257812 0)"/>
      </g>
     </g>
    </g>
    <g id="ytick_13">
     <g id="line2d_80">
      <g>
       <use xlink:href="#mf691024fb8" x="669.570625" y="35.028959" style="fill: #262626; stroke: #262626; stroke-width: 1.25"/>
      </g>
     </g>
     <g id="text_28">
      <!-- 1.200.000 -->
      <g style="fill: #262626" transform="translate(679.070625 37.892084) scale(0.08 -0.08)">
       <use xlink:href="#ArialMT-31"/>
       <use xlink:href="#ArialMT-2e" transform="translate(55.615234 0)"/>
       <use xlink:href="#ArialMT-32" transform="translate(83.398438 0)"/>
       <use xlink:href="#ArialMT-30" transform="translate(139.013672 0)"/>
       <use xlink:href="#ArialMT-30" transform="translate(194.628906 0)"/>
       <use xlink:href="#ArialMT-2e" transform="translate(250.244141 0)"/>
       <use xlink:href="#ArialMT-30" transform="translate(278.027344 0)"/>
       <use xlink:href="#ArialMT-30" transform="translate(333.642578 0)"/>
       <use xlink:href="#ArialMT-30" transform="translate(389.257812 0)"/>
      </g>
     </g>
    </g>
    <g id="text_29">
     <!-- kWh total mensual -->
     <g style="fill: #262626" transform="translate(725.814687 190.753255) rotate(-90) scale(0.1 -0.1)">
      <defs>
       <path id="ArialMT-61" d="M 2588 409 
Q 2275 144 1986 34 
Q 1697 -75 1366 -75 
Q 819 -75 525 192 
Q 231 459 231 875 
Q 231 1119 342 1320 
Q 453 1522 633 1644 
Q 813 1766 1038 1828 
Q 1203 1872 1538 1913 
Q 2219 1994 2541 2106 
Q 2544 2222 2544 2253 
Q 2544 2597 2384 2738 
Q 2169 2928 1744 2928 
Q 1347 2928 1158 2789 
Q 969 2650 878 2297 
L 328 2372 
Q 403 2725 575 2942 
Q 747 3159 1072 3276 
Q 1397 3394 1825 3394 
Q 2250 3394 2515 3294 
Q 2781 3194 2906 3042 
Q 3031 2891 3081 2659 
Q 3109 2516 3109 2141 
L 3109 1391 
Q 3109 606 3145 398 
Q 3181 191 3288 0 
L 2700 0 
Q 2613 175 2588 409 
z
M 2541 1666 
Q 2234 1541 1622 1453 
Q 1275 1403 1131 1340 
Q 988 1278 909 1158 
Q 831 1038 831 891 
Q 831 666 1001 516 
Q 1172 366 1500 366 
Q 1825 366 2078 508 
Q 2331 650 2450 897 
Q 2541 1088 2541 1459 
L 2541 1666 
z
" transform="scale(0.015625)"/>
       <path id="ArialMT-6c" d="M 409 0 
L 409 4581 
L 972 4581 
L 972 0 
L 409 0 
z
" transform="scale(0.015625)"/>
       <path id="ArialMT-6d" d="M 422 0 
L 422 3319 
L 925 3319 
L 925 2853 
Q 1081 3097 1340 3245 
Q 1600 3394 1931 3394 
Q 2300 3394 2536 3241 
Q 2772 3088 2869 2813 
Q 3263 3394 3894 3394 
Q 4388 3394 4653 3120 
Q 4919 2847 4919 2278 
L 4919 0 
L 4359 0 
L 4359 2091 
Q 4359 2428 4304 2576 
Q 4250 2725 4106 2815 
Q 3963 2906 3769 2906 
Q 3419 2906 3187 2673 
Q 2956 2441 2956 1928 
L 2956 0 
L 2394 0 
L 2394 2156 
Q 2394 2531 2256 2718 
Q 2119 2906 1806 2906 
Q 1569 2906 1367 2781 
Q 1166 2656 1075 2415 
Q 984 2175 984 1722 
L 984 0 
L 422 0 
z
" transform="scale(0.015625)"/>
      </defs>
      <use xlink:href="#ArialMT-6b"/>
      <use xlink:href="#ArialMT-57" transform="translate(50 0)"/>
      <use xlink:href="#ArialMT-68" transform="translate(144.384766 0)"/>
      <use xlink:href="#ArialMT-20" transform="translate(200 0)"/>
      <use xlink:href="#ArialMT-74" transform="translate(227.783203 0)"/>
      <use xlink:href="#ArialMT-6f" transform="translate(255.566406 0)"/>
      <use xlink:href="#ArialMT-74" transform="translate(311.181641 0)"/>
      <use xlink:href="#ArialMT-61" transform="translate(338.964844 0)"/>
      <use xlink:href="#ArialMT-6c" transform="translate(394.580078 0)"/>
      <use xlink:href="#ArialMT-20" transform="translate(416.796875 0)"/>
      <use xlink:href="#ArialMT-6d" transform="translate(444.580078 0)"/>
      <use xlink:href="#ArialMT-65" transform="translate(527.880859 0)"/>
      <use xlink:href="#ArialMT-6e" transform="translate(583.496094 0)"/>
      <use xlink:href="#ArialMT-73" transform="translate(639.111328 0)"/>
      <use xlink:href="#ArialMT-75" transform="translate(689.111328 0)"/>
      <use xlink:href="#ArialMT-61" transform="translate(744.726562 0)"/>
      <use xlink:href="#ArialMT-6c" transform="translate(800.341797 0)"/>
     </g>
    </g>
   </g>
   <g id="line2d_81">
    <path d="M 90.833125 176.983787 
L 141.158125 201.635038 
L 191.483125 190.385036 
L 241.808125 230.082609 
L 292.133125 260.339747 
L 342.458125 265.049183 
L 392.783125 246.835471 
L 443.108125 210.586197 
L 493.433125 171.518898 
L 543.758125 81.054429 
L 594.083125 34.205765 
L 644.408125 127.31094 
" clip-path="url(#p4107920662)" style="fill: none; stroke: #f4b183; stroke-opacity: 0.9; stroke-width: 2.2; stroke-linecap: round"/>
   </g>
   <g id="patch_17">
    <path d="M 65.670625 276.591354 
L 669.570625 276.591354 
" style="fill: none; stroke: #d0d5dd; stroke-width: 0.9; stroke-linejoin: miter; stroke-linecap: square"/>
   </g>
   <g id="legend_1">
    <g id="patch_18">
     <path d="M 572.910063 45.133653 
L 657.231625 45.133653 
Q 659.031625 45.133653 659.031625 43.333653 
L 659.031625 31.502871 
Q 659.031625 29.702871 657.231625 29.702871 
L 572.910063 29.702871 
Q 571.110063 29.702871 571.110063 31.502871 
L 571.110063 43.333653 
Q 571.110063 45.133653 572.910063 45.133653 
z
" style="fill: #ffffff; opacity: 0.9; stroke: #cccccc; stroke-linejoin: miter"/>
    </g>
    <g id="line2d_82">
     <path d="M 574.710063 36.594903 
L 583.710063 36.594903 
L 592.710063 36.594903 
" style="fill: none; stroke: #f4b183; stroke-opacity: 0.9; stroke-width: 2.2; stroke-linecap: round"/>
    </g>
    <g id="text_30">
     <!-- Total mensual -->
     <g style="fill: #262626" transform="translate(599.910063 39.744903) scale(0.09 -0.09)">
      <defs>
       <path id="ArialMT-54" d="M 1659 0 
L 1659 4041 
L 150 4041 
L 150 4581 
L 3781 4581 
L 3781 4041 
L 2266 4041 
L 2266 0 
L 1659 0 
z
" transform="scale(0.015625)"/>
      </defs>
      <use xlink:href="#ArialMT-54"/>
      <use xlink:href="#ArialMT-6f" transform="translate(49.958984 0)"/>
      <use xlink:href="#ArialMT-74" transform="translate(105.574219 0)"/>
      <use xlink:href="#ArialMT-61" transform="translate(133.357422 0)"/>
      <use xlink:href="#ArialMT-6c" transform="translate(188.972656 0)"/>
      <use xlink:href="#ArialMT-20" transform="translate(211.189453 0)"/>
      <use xlink:href="#ArialMT-6d" transform="translate(238.972656 0)"/>
      <use xlink:href="#ArialMT-65" transform="translate(322.273438 0)"/>
      <use xlink:href="#ArialMT-6e" transform="translate(377.888672 0)"/>
      <use xlink:href="#ArialMT-73" transform="translate(433.503906 0)"/>
      <use xlink:href="#ArialMT-75" transform="translate(483.503906 0)"/>
      <use xlink:href="#ArialMT-61" transform="translate(539.119141 0)"/>
      <use xlink:href="#ArialMT-6c" transform="translate(594.734375 0)"/>
     </g>
    </g>
   </g>
  </g>
 </g>
 <defs>
  <clipPath id="p4107920662">
   <rect x="65.670625" y="22.663594" width="603.9" height="253.92776"/>
  </clipPath>
 </defs>
</svg>
