<?xml version="1.0" encoding="UTF-8"?>
<svg version="1.1" xmlns="http://www.w3.org/2000/svg" width="1872" height="919">
<path d="M0 0 C617.76 0 1235.52 0 1872 0 C1872 303.27 1872 606.54 1872 919 C1254.24 919 636.48 919 0 919 C0 615.73 0 312.46 0 0 Z " fill="#FEFEFE" transform="translate(0,0)"/>
<path d="M0 0 C2.87187086 2.42513539 5.18028352 4.9549863 7.515625 7.88671875 C8.76306165 9.50883384 8.76306165 9.50883384 10.8125 10.375 C10.9775 9.158125 11.1425 7.94125 11.3125 6.6875 C12.22007746 3.12065713 13.35980485 1.43452601 16.375 -0.6875 C20.22866052 -2.7293129 23.2842015 -3.23581994 27.57421875 -2.47265625 C31.79847253 -0.87289522 34.72497572 2.16818501 37.8125 5.375 C40.84545788 8.60838067 40.84545788 8.60838067 44.8125 10.375 C44.874375 9.488125 44.93625 8.60125 45 7.6875 C46.15956765 2.96003189 48.78312373 0.79556339 52.6875 -1.9375 C55.91410425 -2.98140137 58.44007603 -2.97387144 61.8125 -2.625 C66.67446519 -0.0967781 69.46019883 3.18462354 72.8125 7.375 C73.8025 7.87 73.8025 7.87 74.8125 8.375 C74.8125 9.035 74.8125 9.695 74.8125 10.375 C76.7925 10.375 78.7725 10.375 80.8125 10.375 C80.8125 11.365 80.8125 12.355 80.8125 13.375 C79.3275 13.6225 79.3275 13.6225 77.8125 13.875 C73.22780632 15.13555733 70.65676971 18.18073448 67.51171875 21.59765625 C64.72579523 24.51166821 62.5523116 24.63373961 58.625 24.8125 C53.41823129 24.77144795 50.70901956 23.71866882 47.05078125 20.04296875 C45.44426811 17.87899049 44.89152159 16.06173406 44.8125 13.375 C40.80274201 14.711586 38.50613149 16.36689371 35.625 19.4375 C31.9023178 23.37372037 30.08624491 24.5639192 24.625 24.8125 C19.41823129 24.77144795 16.70901956 23.71866882 13.05078125 20.04296875 C11.44426811 17.87899049 10.89152159 16.06173406 10.8125 13.375 C6.57312102 15.55892251 3.67339872 18.40652491 0.4609375 21.8515625 C-2.97045376 25.02275347 -7.24883112 24.76533871 -11.67578125 24.7265625 C-16.42835666 24.06134977 -18.71780513 21.31232506 -21.5625 17.5625 C-22.92294194 12.80095322 -22.63419335 8.74135614 -21.125 4.125 C-15.59052071 -3.73038996 -8.1015264 -4.13018993 0 0 Z " fill="#D3DEF2" transform="translate(1732.1875,765.625)"/>
<path d="M0 0 C4.05734562 2.10276347 6.51741183 4.52006295 7.9375 8.875 C7.958125 9.57625 7.97875 10.2775 8 11 C12.00975799 9.663414 14.30636851 8.00810629 17.1875 4.9375 C21.74818141 0.11521162 21.74818141 0.11521162 25.20703125 -0.203125 C33.89405053 -0.3594132 33.89405053 -0.3594132 38 3 C38.5775 3.45375 39.155 3.9075 39.75 4.375 C41.37888879 6.49255542 41.64645665 8.38377923 42 11 C46.24557659 8.81288479 49.19609881 5.94245935 52.44921875 2.5234375 C55.86618684 -0.83328178 59.66980421 -0.38742618 64.23046875 -0.3515625 C68.58425102 0.2011038 70.11527446 1.74543785 73 5 C75.68450996 8.53867222 75.54201695 12.72956341 75 17 C73.43564712 21.0226217 72.61276337 22.59149109 69 25 C68.01 25 67.02 25 66 25 C66 25.66 66 26.32 66 27 C59.99639721 27.42130546 55.80659877 26.92971926 51 23 C49.06019833 20.96951655 47.24881618 18.88812796 45.48046875 16.70703125 C44.09266337 14.88687619 44.09266337 14.88687619 42 14 C41.7215625 15.8253125 41.7215625 15.8253125 41.4375 17.6875 C40.36307955 21.85180548 38.79238313 23.9706741 35.12109375 26.20703125 C30.91569436 27.77921555 27.20615164 27.42392341 23 26 C19.22293204 23.58041404 15.919443 20.90358755 13.9453125 16.81640625 C13.63335938 16.21699219 13.32140625 15.61757812 13 15 C10.44480079 14.18828772 10.44480079 14.18828772 8 14 C7.9071875 15.3303125 7.9071875 15.3303125 7.8125 16.6875 C6.65293235 21.41496811 4.02937627 23.57943661 0.125 26.3125 C-4.34130322 27.75748045 -7.80716958 27.59641521 -12 25.5 C-15.19629185 22.83642346 -17.65260832 19.98859501 -20.19140625 16.70703125 C-22.40154701 14.62100207 -24.02448805 14.34078513 -27 14 C-27 13.34 -27 12.68 -27 12 C-26.175 11.67 -25.35 11.34 -24.5 11 C-20.50806917 9.04205297 -17.75611944 5.93961476 -14.734375 2.7421875 C-10.73626742 -1.27392958 -5.32073702 -0.77578834 0 0 Z " fill="#D3DEF2" transform="translate(671,74)"/>
<path d="M0 0 C4.42324083 2.21162041 6.92287449 4.49956139 9 9 C9 9.99 9 10.98 9 12 C13.80705324 9.45508946 17.22310606 6.98105037 21 3 C23.71402049 0.28597951 24.88729378 0.0129335 28.8125 -0.4375 C33.51408647 -0.23575282 36.23169976 1.19224688 40 4 C43 8.83870968 43 8.83870968 43 12 C47.45341169 8.94373708 51.22078319 5.88419505 55 2 C58.79008682 -0.52672455 60.49197342 -0.44341245 65 0 C69.37027135 1.41131699 72.27743466 3.00647266 75 6.75 C76.52199946 11.69649823 76.89168645 15.820322 74.875 20.75 C71.93015548 24.28381342 69.26603236 26.52174191 64.66796875 27.4921875 C59.49224932 27.88970819 56.5355358 27.15232348 52.5625 23.75 C50.63436621 21.86614485 49.02148848 20.03040101 47.46484375 17.828125 C46.04083409 15.71216959 46.04083409 15.71216959 43 15 C42.690625 16.5778125 42.690625 16.5778125 42.375 18.1875 C41.35072453 21.66297262 39.82088523 23.91264493 36.83984375 26.12109375 C32.24039691 28.31828173 27.56676336 27.50136428 22.875 26 C19.50224507 23.6537357 17.22744216 20.96756671 14.7109375 17.7421875 C12.80936128 15.80587929 11.64783377 15.38156557 9 15 C8.9071875 16.3303125 8.9071875 16.3303125 8.8125 17.6875 C7.81004136 21.77444675 6.15975486 23.30264829 3 26 C-0.48694837 27.74347419 -4.18743558 27.43894656 -8 27 C-13.23866159 25.24673826 -16.22033538 21.76607091 -19.578125 17.55078125 C-21.44989952 15.50931288 -23.34674602 14.70233193 -26 14 C-26 13.34 -26 12.68 -26 12 C-25.01 11.67 -24.02 11.34 -23 11 C-18.65130205 9.17549536 -15.87506862 6.14889482 -12.69921875 2.7421875 C-9.11416712 -0.93352061 -4.85511998 -0.58849939 0 0 Z " fill="#D3DEF2" transform="translate(670,763)"/>
<path d="M0 0 C5.30007519 1.7306368 8.0646343 5.0524557 11.484375 9.2578125 C12.90037278 11.10905407 12.90037278 11.10905407 15 12 C15.37125 10.948125 15.7425 9.89625 16.125 8.8125 C17.94477581 4.6674551 20.08001692 2.39554521 24 0 C28.33250925 -0.81525712 31.95110626 -0.335646 36.125 1 C39.49775493 3.3462643 41.77255784 6.03243329 44.2890625 9.2578125 C46.19063872 11.19412071 47.35216623 11.61843443 50 12 C50.020625 11.13375 50.04125 10.2675 50.0625 9.375 C51.19220586 5.30805889 52.62763935 3.69364149 55.90625 1.140625 C59.61597278 -0.88034338 62.92373013 -0.83263061 67 0 C72.25424082 1.82988835 75.13035507 5.19289304 78.51171875 9.44921875 C80.67774723 11.70620906 82.99567343 12.35621573 86 13 C86 13.66 86 14.32 86 15 C84.7625 15.2784375 84.7625 15.2784375 83.5 15.5625 C78.80472835 17.49091514 75.72553316 20.62519695 72 24 C68.67726848 26.72634381 66.6811255 27.1918563 62.5 26.875 C58.73251463 26.28046327 55.96024453 25.52491445 53 23 C50 17.93103448 50 17.93103448 50 15 C45.10978855 17.53914825 42.38882524 19.59452719 39 24 C35.51363554 26.80846026 32.55933013 27.54334044 28.05859375 27.34765625 C24.28238182 26.70992786 22.09248814 25.30420685 19 23 C16 18.16129032 16 18.16129032 16 15 C11.98767259 17.11761724 9.77722921 19.4566386 7 23 C6.34 23 5.68 23 5 23 C5 23.66 5 24.32 5 25 C1.27703344 27.48197771 -2.68102217 27.6670236 -7 27 C-11.79642058 24.60178971 -14.60178971 21.79642058 -17 17 C-17.67310837 13.15042517 -17.36836312 9.90044318 -15.875 6.25 C-11.32970119 0.79564143 -6.89065337 -1.095295 0 0 Z " fill="#D3DEF2" transform="translate(1727,74)"/>
<path d="M0 0 C3.91075925 1.98968453 5.57689098 3.36533646 8 7 C8 8.32 8 9.64 8 11 C12.00975799 9.663414 14.30636851 8.00810629 17.1875 4.9375 C21.75885231 0.10392863 21.75885231 0.10392863 25.42578125 -0.203125 C35.28879212 -0.36328215 35.28879212 -0.36328215 39 3 C41.1477418 5.96240248 42 7.31446856 42 11 C45.73131615 9.13434193 47.91138504 6.93959802 50.5625 3.8125 C53.94140972 0.35039742 56.21958524 -0.65101519 61.0625 -0.875 C66.21167769 -0.52954884 69.14300944 0.79785602 72.79296875 4.39453125 C75.60478069 8.13451413 75.45709008 12.53067474 75 17 C73.70947248 20.79988659 72.67640443 22.50506993 69.4375 24.875 C64.79763412 26.39350156 60.81714366 27.05560864 56 26 C52.8912469 24.0517061 50.4856225 21.68125019 48 19 C47.21625 18.21625 46.4325 17.4325 45.625 16.625 C45.08875 16.08875 44.5525 15.5525 44 15 C43.01 14.505 43.01 14.505 42 14 C41.9071875 15.3303125 41.9071875 15.3303125 41.8125 16.6875 C40.81004136 20.77444675 39.15975486 22.30264829 36 25 C31.96523232 27.01738384 27.36409564 26.73029401 23 26 C19.83336457 24.09478463 17.47046371 21.72804761 15 19 C11.96704212 15.76661933 11.96704212 15.76661933 8 14 C7.9071875 15.3303125 7.9071875 15.3303125 7.8125 16.6875 C6.81004136 20.77444675 5.15975486 22.30264829 2 25 C-2.00073381 27.0003669 -6.66151922 26.63519194 -11 26 C-14.95273215 23.85052157 -17.4317303 20.77491322 -20.0625 17.1875 C-22.54911348 14.38003317 -24.33862872 14.24963895 -28 14 C-28 13.01 -28 12.02 -28 11 C-27.01 10.835 -26.02 10.67 -25 10.5 C-20.41530632 9.23944267 -17.84426971 6.19426552 -14.69921875 2.77734375 C-10.77798378 -1.32417788 -5.31047185 -0.55426646 0 0 Z " fill="#E9455F" transform="translate(106,585)"/>
<path d="M0 0 C4.05734562 2.10276347 6.51741183 4.52006295 7.9375 8.875 C7.958125 9.57625 7.97875 10.2775 8 11 C12.84674831 8.48341915 15.71609541 6.45672766 19 2 C23.6951764 -1.1301176 28.51330982 -0.81415403 34 0 C36.99564128 1.51556132 39.03792163 3.27984589 41 6 C41.9375 8.875 41.9375 8.875 42 11 C46.44124617 7.95208596 50.28351699 4.93509966 54 1 C55.78442106 -0.78442106 58.27014155 -0.2976921 60.6875 -0.375 C64.69229927 -0.3464283 67.46139389 -0.32190921 70.625 2.25 C74.35292688 6.56654692 75.48089086 9.08410724 75.31640625 14.97265625 C74.63591938 19.33281289 72.07715969 22.04956498 68.875 24.875 C64.55169038 26.56672985 60.57846886 26.64880074 56 26 C51.33681289 23.75808312 48.46671182 20.46761941 45.296875 16.48828125 C44.04943835 14.86616616 44.04943835 14.86616616 42 14 C41.79375 15.051875 41.5875 16.10375 41.375 17.1875 C40.35548079 20.59976837 38.91885138 22.9459375 35.96484375 25.10546875 C31.7073265 27.04378177 27.50778249 27.02304283 23 26 C19.84975996 24.07106766 17.47010122 21.72764732 15 19 C11.96704212 15.76661933 11.96704212 15.76661933 8 14 C7.9071875 15.3303125 7.9071875 15.3303125 7.8125 16.6875 C6.81004136 20.77444675 5.15975486 22.30264829 2 25 C-2.03318476 27.01659238 -6.63807691 26.73482532 -11 26 C-14.16033344 24.08012317 -16.52529144 21.72568137 -19 19 C-19.5671875 18.47019531 -20.134375 17.94039062 -20.71875 17.39453125 C-22 16 -22 16 -22 14 C-23.98 14 -25.96 14 -28 14 C-28 13.01 -28 12.02 -28 11 C-27.01 10.835 -26.02 10.67 -25 10.5 C-20.41530632 9.23944267 -17.84426971 6.19426552 -14.69921875 2.77734375 C-10.78613657 -1.31565026 -5.29250746 -0.77167234 0 0 Z " fill="#D3DEF2" transform="translate(1173,585)"/>
<path d="M0 0 C2.4375 1.5 2.4375 1.5 4.9375 3.6875 C7.24360905 5.71888301 7.24360905 5.71888301 9.8125 5.5625 C12.3218686 4.54680319 13.83489969 3.46909418 15.9375 1.8125 C17.7421875 0.4609375 17.7421875 0.4609375 19.4375 -0.5 C22.86781685 0.07171948 24.32711942 1.40341699 26.9375 3.6875 C29.24451572 5.78076877 29.24451572 5.78076877 31.79296875 5.2734375 C34.5613718 4.46377161 36.76086618 3.38639879 39.25 1.9375 C40.04019531 1.48246094 40.83039063 1.02742187 41.64453125 0.55859375 C42.23621094 0.20925781 42.82789063 -0.14007813 43.4375 -0.5 C44.02917969 -0.05527344 44.62085938 0.38945312 45.23046875 0.84765625 C46.02066406 1.41355469 46.81085938 1.97945312 47.625 2.5625 C48.79095703 3.41521484 48.79095703 3.41521484 49.98046875 4.28515625 C52.36507495 5.71744653 52.36507495 5.71744653 55 5.34375 C57.47170066 4.48816131 59.17979057 3.52060133 61.25 1.9375 C62.15685547 1.25494141 62.15685547 1.25494141 63.08203125 0.55859375 C63.52933594 0.20925781 63.97664063 -0.14007813 64.4375 -0.5 C65.00984375 -0.20867187 65.5821875 0.08265625 66.171875 0.3828125 C68.39253081 1.51216187 68.39253081 1.51216187 70.578125 2.3671875 C73.01685759 3.53235974 74.62860751 4.47145628 76.4375 6.5 C77.13933249 10.57807212 76.90798567 14.40285399 76.4375 18.5 C72.47270428 17.02069807 69.66161767 15.26352943 66.4375 12.5 C63.33395512 13.62856177 60.6947804 14.96410284 57.9375 16.75 C54.4375 18.5 54.4375 18.5 51.9375 18 C51.1125 17.505 50.2875 17.01 49.4375 16.5 C48.16681527 15.79140013 46.89597536 15.08307846 45.625 14.375 C44.573125 13.75625 43.52125 13.1375 42.4375 12.5 C41.77363281 12.95632812 41.10976562 13.41265625 40.42578125 13.8828125 C39.54277344 14.45773437 38.65976563 15.03265625 37.75 15.625 C36.87988281 16.20507812 36.00976562 16.78515625 35.11328125 17.3828125 C32.4375 18.5 32.4375 18.5 29.7890625 17.8203125 C27.4375 16.5 27.4375 16.5 24.5 14.25 C21.56865781 12.14868443 21.56865781 12.14868443 18.375 13 C15.36457092 14.53724038 12.96783752 16.26734925 10.4375 18.5 C7.31386489 17.39754055 5.11601634 16.25888726 2.4375 14.25 C-0.36192453 12.1723738 -0.36192453 12.1723738 -3.0625 13 C-4.99028703 14.15667222 -6.87941224 15.3779415 -8.75 16.625 C-11.5625 18.5 -11.5625 18.5 -13.5625 18.5 C-13.85027817 14.79085913 -13.98574836 11.20208372 -13.5625 7.5 C-11.4375 5.0625 -11.4375 5.0625 -8.5625 3.5 C-7.5725 2.71625 -6.5825 1.9325 -5.5625 1.125 C-2.5625 -0.5 -2.5625 -0.5 0 0 Z " fill="#07719B" transform="translate(1552.5625,242.5)"/>
<path d="M0 0 C0.66 0 1.32 0 2 0 C3.64253701 4.07515511 5.27357331 8.15478637 6.89892578 12.23681641 C7.70842709 14.26828777 8.51953357 16.2991197 9.33154297 18.32958984 C10.56019962 21.40558842 11.78464026 24.48317036 13.00521851 27.56237793 C13.73874351 29.40915974 14.47736525 31.25391455 15.21606445 33.09863281 C15.67585693 34.26104492 16.13564941 35.42345703 16.609375 36.62109375 C17.02155273 37.6567749 17.43373047 38.69245605 17.85839844 39.75952148 C19.15109562 43.42889054 20.05643557 47.22574226 21 51 C8.13 51 -4.74 51 -18 51 C-15.77398721 40.98294243 -15.77398721 40.98294243 -13.6875 36.375 C-11.73446663 31.86931776 -10.07590989 27.35954278 -8.5625 22.6875 C-6.05576843 14.97570799 -3.09286732 7.49302909 0 0 Z " fill="#E5DD99" transform="translate(310,62)"/>
<path d="M0 0 C3.40755272 1.92880342 6.74147635 3.8276509 10 6 C14.93891801 5.86280783 18.26075576 2.92027432 22 0 C24.5859842 1.19353117 26.631424 2.47020936 28.9375 4.1875 C31.75680903 6.19177667 31.75680903 6.19177667 34.4375 6.0625 C36.89684925 5.04276982 38.42725338 3.94204594 40.5 2.3125 C42.3125 0.96484375 42.3125 0.96484375 44 0 C46.5 0.375 46.5 0.375 49 2 C49.92232422 2.41765625 49.92232422 2.41765625 50.86328125 2.84375 C53.12401805 4.03981115 54.45505117 4.94443249 56 7 C56.603816 11.0625164 56.40956334 14.92386963 56 19 C55.41992188 18.62746094 54.83984375 18.25492188 54.2421875 17.87109375 C49.36045437 14.85926575 49.36045437 14.85926575 43.8125 13.9375 C40.82515961 14.94082215 40.82515961 14.94082215 37.875 17.125 C35 19 35 19 33 19 C31 18 31 18 28.125 15.875 C25.17864436 13.74275212 25.17864436 13.74275212 22 14 C18.83830761 14.90281024 18.83830761 14.90281024 15.875 17.125 C13 19 13 19 11.1171875 18.77734375 C8.66870324 17.87836152 6.51230741 16.73499984 4.25 15.4375 C3.45078125 14.98246094 2.6515625 14.52742187 1.828125 14.05859375 C1.22484375 13.70925781 0.6215625 13.35992188 0 13 C-0.59167969 13.44472656 -1.18335938 13.88945313 -1.79296875 14.34765625 C-2.97826172 15.19650391 -2.97826172 15.19650391 -4.1875 16.0625 C-5.35345703 16.91521484 -5.35345703 16.91521484 -6.54296875 17.78515625 C-9 19 -9 19 -11.53125 18.84375 C-15.47135374 17.49713226 -18.53209064 15.29234686 -22 13 C-25.63 14.98 -29.26 16.96 -33 19 C-33.78156845 11.18431546 -33.78156845 11.18431546 -33 7 C-30.46094671 3.92990289 -27.7247582 2.34946158 -24 1 C-19.91271803 0.84279685 -18.57397634 1.52401962 -15.4375 4.125 C-13.20674897 6.22123118 -13.20674897 6.22123118 -10.6875 6.0625 C-6.81059109 4.52976857 -3.45052343 2.32032717 0 0 Z " fill="#06709A" transform="translate(1002,767)"/>
<path d="M0 0 C1.84375 1.26171875 1.84375 1.26171875 3.5 2.6875 C5.24111926 4.04726104 5.24111926 4.04726104 7 5 C10.41772674 4.41648568 12.19291103 2.85933571 15 0.8125 C18 -1 18 -1 20.4375 -1.0625 C24.02916569 0.42672724 26.94769503 2.61621139 30 5 C30.66386719 4.55527344 31.32773437 4.11054687 32.01171875 3.65234375 C32.89472656 3.08644531 33.77773438 2.52054688 34.6875 1.9375 C35.55761719 1.36902344 36.42773438 0.80054688 37.32421875 0.21484375 C40.50698585 -1.23017898 41.73974868 -1.14320501 45 0 C47.01953125 1.19140625 47.01953125 1.19140625 48.8125 2.5625 C49.41707031 3.01753906 50.02164063 3.47257813 50.64453125 3.94140625 C51.09183594 4.29074219 51.53914062 4.64007812 52 5 C54.5859842 3.80646883 56.631424 2.52979064 58.9375 0.8125 C62 -1 62 -1 64.375 -1.125 C68.53007501 0.65574643 72.15039507 2.39466043 75 6 C75.67648838 9.75941635 75.48372687 13.22424305 75 17 C72.29573879 15.98145425 70.22272529 15.18792446 68 13.3125 C66.07621123 11.77768967 66.07621123 11.77768967 63.6875 12.0625 C61.30727315 12.89281169 59.566215 13.81957008 57.4375 15.125 C54 17 54 17 51.9375 17 C50 16 50 16 47.125 13.875 C44.17864436 11.74275212 44.17864436 11.74275212 41 12 C37.84363962 12.89599909 37.84363962 12.89599909 34.9375 15.125 C32 17 32 17 29.5 17 C27 16 27 16 24.0625 13.875 C21.16317308 11.73348397 21.16317308 11.73348397 17.9375 12 C14.87287135 12.84866988 14.87287135 12.84866988 12.4375 15.125 C10 17 10 17 7.5625 17 C5 16 5 16 2 13.875 C-0.76370881 11.77916711 -0.76370881 11.77916711 -3.5 12 C-6.64223174 13.25689269 -9.19984351 15.11293802 -12 17 C-12.99 17 -13.98 17 -15 17 C-15.62362855 13.16814902 -15.84134616 9.80900352 -15 6 C-10.89452185 1.34712476 -6.24325374 -2.19688961 0 0 Z " fill="#06709A" transform="translate(488,590)"/>
<path d="M0 0 C2.08888719 0.92983591 3.57868276 2.0559335 5.32421875 3.52734375 C7.09336212 4.88936563 7.09336212 4.88936563 8.88671875 5.83984375 C12.30746926 5.25581318 14.11785698 3.67474501 16.94921875 1.65234375 C19.88671875 -0.16015625 19.88671875 -0.16015625 21.8515625 0.0625 C24.71999905 1.15812164 26.75316515 2.94360193 29.10546875 4.87890625 C30.8460889 6.03053374 30.8460889 6.03053374 32.890625 5.65234375 C35.0564437 4.77075806 36.52637934 3.70127911 38.32421875 2.21484375 C41.55320338 -0.14348048 41.55320338 -0.14348048 44.38671875 -0.28515625 C46.75467196 0.7804227 48.35698326 1.93942569 50.38671875 3.52734375 C52.12783801 4.88710479 52.12783801 4.88710479 53.88671875 5.83984375 C57.30746926 5.25581318 59.11785698 3.67474501 61.94921875 1.65234375 C64.88671875 -0.16015625 64.88671875 -0.16015625 66.8046875 0.078125 C70.84567356 1.55653453 74.15972861 3.46357024 76.88671875 6.83984375 C77.5682776 10.59874406 77.37046843 14.06390877 76.88671875 17.83984375 C74.18245754 16.821298 72.10944404 16.02776821 69.88671875 14.15234375 C67.9571435 12.5820512 67.9571435 12.5820512 65.5625 13.09765625 C62.75837596 13.87544248 60.584492 14.94113992 58.07421875 16.40234375 C56.88892578 17.08490234 56.88892578 17.08490234 55.6796875 17.78125 C55.08800781 18.13058594 54.49632812 18.47992188 53.88671875 18.83984375 C53.2834375 18.39511719 52.68015625 17.95039062 52.05859375 17.4921875 C51.259375 16.92628906 50.46015625 16.36039063 49.63671875 15.77734375 C48.8478125 15.20886719 48.05890625 14.64039062 47.24609375 14.0546875 C45.030412 12.65233601 45.030412 12.65233601 42.88671875 12.99609375 C40.53479891 13.98830993 38.35140713 15.13215483 36.13671875 16.40234375 C34.93789063 17.08490234 34.93789063 17.08490234 33.71484375 17.78125 C32.80992187 18.30525391 32.80992187 18.30525391 31.88671875 18.83984375 C31.29503906 18.39511719 30.70335937 17.95039062 30.09375 17.4921875 C29.30355469 16.92628906 28.51335938 16.36039063 27.69921875 15.77734375 C26.92191406 15.20886719 26.14460937 14.64039062 25.34375 14.0546875 C22.9591438 12.62239722 22.9591438 12.62239722 20.32421875 12.99609375 C17.85251809 13.85168244 16.14442818 14.81924242 14.07421875 16.40234375 C13.46964844 16.85738281 12.86507812 17.31242187 12.2421875 17.78125 C11.79488281 18.13058594 11.34757813 18.47992188 10.88671875 18.83984375 C8.30073455 17.64631258 6.25529475 16.36963439 3.94921875 14.65234375 C1.12125517 12.62762671 1.12125517 12.62762671 -1.61328125 12.83984375 C-4.76043843 14.09870662 -7.32879124 15.92163952 -10.11328125 17.83984375 C-10.77328125 17.83984375 -11.43328125 17.83984375 -12.11328125 17.83984375 C-12.73695705 14.00770245 -12.95960743 10.64831157 -12.11328125 6.83984375 C-9.03191569 3.40648699 -4.87009886 -0.36908328 0 0 Z " fill="#06709A" transform="translate(981.11328125,78.16015625)"/>
<path d="M0 0 C0.66 0 1.32 0 2 0 C6.24754934 10.01725799 10.25145535 20.12398672 14.12753296 30.29019165 C14.62426907 31.59260034 15.12232834 32.89450518 15.62173462 34.19589233 C16.33277345 36.05085733 17.03758125 37.90820706 17.7421875 39.765625 C18.1532373 40.84618164 18.56428711 41.92673828 18.98779297 43.04003906 C20 46 20 46 21 51 C8.13 51 -4.74 51 -18 51 C-14.63123883 39.7707961 -14.63123883 39.7707961 -13.06640625 35.57421875 C-12.72754395 34.65817871 -12.38868164 33.74213867 -12.03955078 32.79833984 C-11.69649902 31.8748877 -11.35344727 30.95143555 -11 30 C-10.32007254 28.132071 -9.64168628 26.26358028 -8.96484375 24.39453125 C-7.95117188 21.60351562 -7.95117188 21.60351562 -6.9375 18.8125 C-6.59912109 17.87986328 -6.26074219 16.94722656 -5.91210938 15.98632812 C-3.97178548 10.64574612 -2.0054004 5.31649764 0 0 Z " fill="#D4DFF2" transform="translate(693,398)"/>
<path d="M0 0 C3.21171607 2.63783762 4.25117607 5.68039713 5.70703125 9.51171875 C5.95327744 10.1531633 6.19952362 10.79460785 6.45323181 11.45549011 C7.24742083 13.52995973 8.03013454 15.60854584 8.8125 17.6875 C9.35188593 19.10392728 9.89192529 20.52010589 10.43261719 21.93603516 C11.73526713 25.35291897 13.02878545 28.77316295 14.31866455 32.19488525 C15.24781863 34.65656508 16.18445903 37.11537708 17.12109375 39.57421875 C21 49.80042614 21 49.80042614 21 51 C8.13 51 -4.74 51 -18 51 C-17.25095142 45.75665997 -16.7983218 43.01149359 -14.75 38.5 C-12.79021954 33.99250495 -11.12700759 29.49259651 -9.625 24.8125 C-6.87615672 16.34641398 -3.47795684 8.18873413 0 0 Z " fill="#E94861" transform="translate(1378,62)"/>
<path d="M0 0 C2.359375 1.30078125 2.359375 1.30078125 5.421875 3.48828125 C8.05773267 5.53567755 8.05773267 5.53567755 10.24609375 5.07421875 C12.69433875 4.17818823 14.8481636 3.03515249 17.109375 1.73828125 C17.90859375 1.28324219 18.7078125 0.82820312 19.53125 0.359375 C20.13453125 0.01003906 20.7378125 -0.33929688 21.359375 -0.69921875 C21.95105469 -0.25449219 22.54273438 0.19023437 23.15234375 0.6484375 C23.94253906 1.21433594 24.73273438 1.78023437 25.546875 2.36328125 C26.71283203 3.21599609 26.71283203 3.21599609 27.90234375 4.0859375 C30.28694995 5.51822778 30.28694995 5.51822778 32.921875 5.14453125 C35.39357566 4.28894256 37.10166557 3.32138258 39.171875 1.73828125 C40.07873047 1.05572266 40.07873047 1.05572266 41.00390625 0.359375 C41.67486328 -0.16462891 41.67486328 -0.16462891 42.359375 -0.69921875 C44.9453592 0.49431242 46.990799 1.77099061 49.296875 3.48828125 C52.11618403 5.49255792 52.11618403 5.49255792 54.796875 5.36328125 C57.25622425 4.34355107 58.78662838 3.24282719 60.859375 1.61328125 C62.671875 0.265625 62.671875 0.265625 64.359375 -0.69921875 C66.859375 -0.32421875 66.859375 -0.32421875 69.359375 1.30078125 C70.28169922 1.7184375 70.28169922 1.7184375 71.22265625 2.14453125 C73.48339305 3.3405924 74.81442617 4.24521374 76.359375 6.30078125 C76.963191 10.36329765 76.76893834 14.22465088 76.359375 18.30078125 C75.75609375 17.93984375 75.1528125 17.57890625 74.53125 17.20703125 C73.73203125 16.74296875 72.9328125 16.27890625 72.109375 15.80078125 C71.32046875 15.33671875 70.5315625 14.87265625 69.71875 14.39453125 C67.18796607 13.02039349 67.18796607 13.02039349 63.359375 13.30078125 C61.34842374 14.44684427 61.34842374 14.44684427 59.421875 15.92578125 C55.69601471 18.35688787 55.69601471 18.35688787 52.734375 17.86328125 C50.89929113 16.65598923 49.11666142 15.36874606 47.359375 14.05078125 C44.55995047 11.97315505 44.55995047 11.97315505 41.859375 12.80078125 C39.21691348 14.3410692 39.21691348 14.3410692 36.296875 16.48828125 C33.359375 18.30078125 33.359375 18.30078125 31.47265625 18.07421875 C29.02441125 17.17818823 26.8705864 16.03515249 24.609375 14.73828125 C23.81015625 14.28324219 23.0109375 13.82820313 22.1875 13.359375 C21.58421875 13.01003906 20.9809375 12.66070312 20.359375 12.30078125 C19.69550781 12.75710937 19.03164063 13.2134375 18.34765625 13.68359375 C17.46464844 14.25851562 16.58164062 14.8334375 15.671875 15.42578125 C14.80175781 16.00585938 13.93164062 16.5859375 13.03515625 17.18359375 C10.359375 18.30078125 10.359375 18.30078125 7.71484375 17.62109375 C5.359375 16.30078125 5.359375 16.30078125 2.359375 14.05078125 C-0.43179702 11.97550454 -0.43179702 11.97550454 -3.078125 12.80078125 C-3.92375 13.29578125 -4.769375 13.79078125 -5.640625 14.30078125 C-6.25679688 14.64367187 -6.87296875 14.9865625 -7.5078125 15.33984375 C-9.23248846 16.30261467 -10.93812818 17.29931253 -12.640625 18.30078125 C-13.25450161 14.14688283 -13.48737249 10.43188263 -12.640625 6.30078125 C-9.36950856 2.4315178 -5.26504237 -1.39414583 0 0 Z " fill="#E4DC97" transform="translate(486.640625,242.69921875)"/>
<path d="M0 0 C2.3936431 2.1549967 3.61695788 3.99873132 4.77758789 6.99316406 C5.09123795 7.79119446 5.404888 8.58922485 5.7280426 9.41143799 C6.05626511 10.2708197 6.38448761 11.13020142 6.72265625 12.015625 C7.24187904 13.34941193 7.24187904 13.34941193 7.77159119 14.71014404 C8.50225989 16.59161208 9.22910169 18.47457013 9.95239258 20.35888672 C11.05416846 23.22830172 12.16759431 26.09296993 13.28320312 28.95703125 C13.99288051 30.78879416 14.70188668 32.62081728 15.41015625 34.453125 C15.74040298 35.30440979 16.07064972 36.15569458 16.41090393 37.03277588 C16.72140182 37.84341492 17.03189972 38.65405396 17.35180664 39.48925781 C17.75792931 40.54490936 17.75792931 40.54490936 18.17225647 41.62188721 C19.24555746 44.70548824 20.10302099 47.86057346 21 51 C8.13 51 -4.74 51 -18 51 C-16.70575786 45.17591038 -15.59339628 40.47246887 -13.5 35.0625 C-13.2529834 34.41861328 -13.0059668 33.77472656 -12.75146484 33.11132812 C-12.18050152 31.62539862 -11.60655397 30.14061373 -11.03027344 28.65673828 C-9.80684699 25.50192156 -8.59467345 22.34287087 -7.3828125 19.18359375 C-4.92799246 12.78669835 -2.46600621 6.39259058 0 0 Z " fill="#D4DEF2" transform="translate(1760,398)"/>
<path d="M0 0 C3.28640166 3.74550828 4.7617087 8.04932636 6.50390625 12.640625 C6.82785873 13.48163757 7.15181122 14.32265015 7.48558044 15.18914795 C8.16850895 16.966555 8.84829552 18.74517204 9.52514648 20.52490234 C10.55469565 23.2294982 11.5958699 25.92939666 12.63867188 28.62890625 C13.3027852 30.36171033 13.96621865 32.09477517 14.62890625 33.828125 C14.93727921 34.62736389 15.24565216 35.42660278 15.56336975 36.25006104 C15.85384689 37.01735535 16.14432404 37.78464966 16.44360352 38.57519531 C16.69658707 39.23819641 16.94957062 39.90119751 17.21022034 40.58428955 C18.32714002 44.00062789 19.12825809 47.51303237 20 51 C7.46 51 -5.08 51 -18 51 C-17.23164664 45.62152649 -16.47836938 42.1346528 -14.5625 37.25 C-14.02741542 35.86896568 -13.49367275 34.48741103 -12.9609375 33.10546875 C-12.65768555 32.32220215 -12.35443359 31.53893555 -12.04199219 30.73193359 C-10.80675204 27.49333537 -9.60900769 24.24196123 -8.4140625 20.98828125 C-7.96474365 19.7652832 -7.5154248 18.54228516 -7.05249023 17.28222656 C-6.14698194 14.81463144 -5.24283386 12.34653672 -4.34008789 9.87792969 C-3.71348267 8.17685059 -3.71348267 8.17685059 -3.07421875 6.44140625 C-2.69869873 5.41732666 -2.32317871 4.39324707 -1.9362793 3.33813477 C-1 1 -1 1 0 0 Z " fill="#D3DEF2" transform="translate(129,226)"/>
<path d="M0 0 C0.66 0 1.32 0 2 0 C11.54985934 23.780739 11.54985934 23.780739 16 35.125 C16.27787354 35.8267334 16.55574707 36.5284668 16.84204102 37.25146484 C18.4938358 41.48422116 19.7426398 45.5992393 21 50 C8.13 50 -4.74 50 -18 50 C-15.57793485 41.92644948 -12.96527363 34.04876637 -10.125 26.125 C-9.70347656 24.93519531 -9.28195312 23.74539062 -8.84765625 22.51953125 C-6.12777502 14.9088544 -3.18778826 7.42681402 0 0 Z " fill="#D3DEF2" transform="translate(1195,227)"/>
<path d="M0 0 C2.40761044 2.16490095 3.62791657 4.02608183 4.796875 7.03515625 C5.11253418 7.83590576 5.42819336 8.63665527 5.75341797 9.46166992 C6.24672607 10.74908081 6.24672607 10.74908081 6.75 12.0625 C7.26844482 13.39148315 7.26844482 13.39148315 7.79736328 14.74731445 C8.51472326 16.58786175 9.22904608 18.42959549 9.94042969 20.27246094 C10.94502019 22.85847133 11.97164985 25.43431654 13.0078125 28.0078125 C13.63040174 29.56763115 14.25280615 31.12752359 14.875 32.6875 C15.30377441 33.74432983 15.30377441 33.74432983 15.74121094 34.82250977 C17.7566601 39.93674225 18.77528533 44.48878396 20 50 C7.46 50 -5.08 50 -18 50 C-17.18660998 45.11965988 -16.20077884 41.53551833 -14.4375 37 C-13.89707447 35.59687839 -13.35809691 34.19319851 -12.8203125 32.7890625 C-12.52930664 32.03012695 -12.23830078 31.27119141 -11.93847656 30.48925781 C-10.90938234 27.7596416 -9.91610201 25.0187598 -8.9296875 22.2734375 C-8.57849854 21.29632812 -8.22730957 20.31921875 -7.86547852 19.3125 C-7.17595085 17.38892085 -6.48884531 15.46447132 -5.80444336 13.5390625 C-4.11978179 8.85601632 -2.35402371 4.38737546 0 0 Z " fill="#E9455F" transform="translate(1378,752)"/>
<path d="M0 0 C0.66 0 1.32 0 2 0 C4.90655056 7.23779458 7.80317481 14.4794849 10.69140625 21.72460938 C11.85066244 24.62621033 13.01799578 27.52439545 14.1875 30.421875 C14.81296683 31.98939714 15.43800013 33.55709237 16.0625 35.125 C16.34875244 35.8267334 16.63500488 36.5284668 16.92993164 37.25146484 C18.68210681 41.68613548 19.30196455 45.11375185 20 50 C7.46 50 -5.08 50 -18 50 C-14.61904762 38.73015873 -14.61904762 38.73015873 -12.94921875 34.08203125 C-12.58304443 33.06165771 -12.21687012 32.04128418 -11.83959961 30.98999023 C-11.45940674 29.94141846 -11.07921387 28.89284668 -10.6875 27.8125 C-10.29377197 26.72203369 -9.90004395 25.63156738 -9.49438477 24.50805664 C-6.50080839 16.26580406 -3.35869944 8.10039277 0 0 Z " fill="#E4DC97" transform="translate(310,752)"/>
<path d="M0 0 C4.46428571 4.25 4.46428571 4.25 5 8 C5.66 8 6.32 8 7 8 C7.103125 7.4225 7.20625 6.845 7.3125 6.25 C8.09792798 3.67950842 9.30504197 2.06342716 11 0 C12.32 2.31 13.64 4.62 15 7 C15.6496875 6.1028125 15.6496875 6.1028125 16.3125 5.1875 C17.77726301 3.28873313 19.29047182 1.67121943 21 0 C21.1493306 5.24686482 21.25767291 10.49246893 21.32958984 15.7409668 C21.35959563 17.52276175 21.40041511 19.30441109 21.45263672 21.08569336 C21.9626992 38.94288071 21.9626992 38.94288071 16.59228516 45.52368164 C14.27314915 47.673914 12.80510992 49.02064384 9.5625 48.9375 C6.14391995 47.68679998 5.03366389 45.98270704 3 43 C2.47237061 42.29979736 1.94474121 41.59959473 1.40112305 40.87817383 C-0.52959868 36.91210335 -0.37661395 33.55004784 -0.29296875 29.19921875 C-0.28872391 28.36284378 -0.28447906 27.52646881 -0.28010559 26.66474915 C-0.26337364 24.00533235 -0.22573226 21.346686 -0.1875 18.6875 C-0.17244604 16.87956827 -0.15875888 15.07162461 -0.14648438 13.26367188 C-0.11348816 8.84215311 -0.06174428 4.42120698 0 0 Z " fill="#04436F" transform="translate(301,399)"/>
<path d="M0 0 C2 2 4 4 6 6 C6.99 4.02 7.98 2.04 9 0 C9.66 0 10.32 0 11 0 C12.32 2.31 13.64 4.62 15 7 C16.32 4.69 17.64 2.38 19 0 C19.66 0 20.32 0 21 0 C21.07479497 4.53487644 21.12890262 9.06938482 21.16479492 13.60473633 C21.17977543 15.14386255 21.2001671 16.68294688 21.22631836 18.22192383 C21.54364912 37.39243499 21.54364912 37.39243499 15.6875 45.5625 C13 48 13 48 10 48.75 C5.21612478 47.5540312 3.53337319 44.2546093 0.87158203 40.34082031 C-0.47346995 36.72839498 -0.24372892 33.09867393 -0.1953125 29.296875 C-0.1924826 28.45908508 -0.18965271 27.62129517 -0.18673706 26.75811768 C-0.17556349 24.08859837 -0.15046421 21.4194175 -0.125 18.75 C-0.11496654 16.93750485 -0.10584133 15.12500444 -0.09765625 13.3125 C-0.0756334 8.87487007 -0.04112304 4.43749237 0 0 Z " fill="#06709A" transform="translate(1574,574)"/>
<path d="M0 0 C3.12291165 1.68012647 5.39164837 3.78329674 7 7 C7.50872093 13.10465114 7.06705978 16.11952826 3 21 C-1.04898806 23.69932537 -4.24932159 23.53528771 -9 23 C-13.18459301 21.27158115 -15.20718739 19.15177657 -17 15 C-17.55438343 10.6441302 -17.30805175 8.56299114 -15.1875 4.6875 C-10.834798 -0.66010532 -6.52988706 -1.02409719 0 0 Z " fill="#F7D549" transform="translate(1384,412)"/>
</svg>
