<?xml version="1.0" encoding="utf-8" standalone="no"?>
<!DOCTYPE svg PUBLIC "-//W3C//DTD SVG 1.1//EN"
  "http://www.w3.org/Graphics/SVG/1.1/DTD/svg11.dtd">
<svg xmlns:xlink="http://www.w3.org/1999/xlink" width="724.130313pt" height="289.551094pt" viewBox="0 0 724.130313 289.551094" xmlns="http://www.w3.org/2000/svg" version="1.1">
 <metadata>
  <rdf:RDF xmlns:dc="http://purl.org/dc/elements/1.1/" xmlns:cc="http://creativecommons.org/ns#" xmlns:rdf="http://www.w3.org/1999/02/22-rdf-syntax-ns#">
   <cc:Work>
    <dc:type rdf:resource="http://purl.org/dc/dcmitype/StillImage"/>
    <dc:date>2026-03-16T19:39:45.558738</dc:date>
    <dc:format>image/svg+xml</dc:format>
    <dc:creator>
     <cc:Agent>
      <dc:title>Matplotlib v3.10.6, https://matplotlib.org/</dc:title>
     </cc:Agent>
    </dc:creator>
   </cc:Work>
  </rdf:RDF>
 </metadata>
 <defs>
  <style type="text/css">*{stroke-linejoin: round; stroke-linecap: butt}</style>
 </defs>
 <g id="figure_1">
  <g id="patch_1">
   <path d="M 0 289.551094 
L 724.130312 289.551094 
L 724.130312 0 
L 0 0 
z
" style="fill: #ffffff"/>
  </g>
  <g id="axes_1">
   <g id="patch_2">
    <path d="M 57.402813 252.398281 
L 705.402812 252.398281 
L 705.402812 21.998281 
L 57.402813 21.998281 
z
" style="fill: #ffffff"/>
   </g>
   <g id="matplotlib.axis_1">
    <g id="xtick_1">
     <g id="text_1">
      <!-- 00:00 -->
      <g style="fill: #003366" transform="translate(45.875313 267.977031) scale(0.08 -0.08)">
       <defs>
        <path id="DejaVuSans-30" d="M 2034 4250 
Q 1547 4250 1301 3770 
Q 1056 3291 1056 2328 
Q 1056 1369 1301 889 
Q 1547 409 2034 409 
Q 2525 409 2770 889 
Q 3016 1369 3016 2328 
Q 3016 3291 2770 3770 
Q 2525 4250 2034 4250 
z
M 2034 4750 
Q 2819 4750 3233 4129 
Q 3647 3509 3647 2328 
Q 3647 1150 3233 529 
Q 2819 -91 2034 -91 
Q 1250 -91 836 529 
Q 422 1150 422 2328 
Q 422 3509 836 4129 
Q 1250 4750 2034 4750 
z
" transform="scale(0.015625)"/>
        <path id="DejaVuSans-3a" d="M 750 794 
L 1409 794 
L 1409 0 
L 750 0 
L 750 794 
z
M 750 3309 
L 1409 3309 
L 1409 2516 
L 750 2516 
L 750 3309 
z
" transform="scale(0.015625)"/>
       </defs>
       <use xlink:href="#DejaVuSans-30"/>
       <use xlink:href="#DejaVuSans-30" transform="translate(63.623047 0)"/>
       <use xlink:href="#DejaVuSans-3a" transform="translate(127.246094 0)"/>
       <use xlink:href="#DejaVuSans-30" transform="translate(160.9375 0)"/>
       <use xlink:href="#DejaVuSans-30" transform="translate(224.560547 0)"/>
      </g>
     </g>
    </g>
    <g id="xtick_2">
     <g id="text_2">
      <!-- 04:00 -->
      <g style="fill: #003366" transform="translate(153.875313 267.977031) scale(0.08 -0.08)">
       <defs>
        <path id="DejaVuSans-34" d="M 2419 4116 
L 825 1625 
L 2419 1625 
L 2419 4116 
z
M 2253 4666 
L 3047 4666 
L 3047 1625 
L 3713 1625 
L 3713 1100 
L 3047 1100 
L 3047 0 
L 2419 0 
L 2419 1100 
L 313 1100 
L 313 1709 
L 2253 4666 
z
" transform="scale(0.015625)"/>
       </defs>
       <use xlink:href="#DejaVuSans-30"/>
       <use xlink:href="#DejaVuSans-34" transform="translate(63.623047 0)"/>
       <use xlink:href="#DejaVuSans-3a" transform="translate(127.246094 0)"/>
       <use xlink:href="#DejaVuSans-30" transform="translate(160.9375 0)"/>
       <use xlink:href="#DejaVuSans-30" transform="translate(224.560547 0)"/>
      </g>
     </g>
    </g>
    <g id="xtick_3">
     <g id="text_3">
      <!-- 08:00 -->
      <g style="fill: #003366" transform="translate(261.875313 267.977031) scale(0.08 -0.08)">
       <defs>
        <path id="DejaVuSans-38" d="M 2034 2216 
Q 1584 2216 1326 1975 
Q 1069 1734 1069 1313 
Q 1069 891 1326 650 
Q 1584 409 2034 409 
Q 2484 409 2743 651 
Q 3003 894 3003 1313 
Q 3003 1734 2745 1975 
Q 2488 2216 2034 2216 
z
M 1403 2484 
Q 997 2584 770 2862 
Q 544 3141 544 3541 
Q 544 4100 942 4425 
Q 1341 4750 2034 4750 
Q 2731 4750 3128 4425 
Q 3525 4100 3525 3541 
Q 3525 3141 3298 2862 
Q 3072 2584 2669 2484 
Q 3125 2378 3379 2068 
Q 3634 1759 3634 1313 
Q 3634 634 3220 271 
Q 2806 -91 2034 -91 
Q 1263 -91 848 271 
Q 434 634 434 1313 
Q 434 1759 690 2068 
Q 947 2378 1403 2484 
z
M 1172 3481 
Q 1172 3119 1398 2916 
Q 1625 2713 2034 2713 
Q 2441 2713 2670 2916 
Q 2900 3119 2900 3481 
Q 2900 3844 2670 4047 
Q 2441 4250 2034 4250 
Q 1625 4250 1398 4047 
Q 1172 3844 1172 3481 
z
" transform="scale(0.015625)"/>
       </defs>
       <use xlink:href="#DejaVuSans-30"/>
       <use xlink:href="#DejaVuSans-38" transform="translate(63.623047 0)"/>
       <use xlink:href="#DejaVuSans-3a" transform="translate(127.246094 0)"/>
       <use xlink:href="#DejaVuSans-30" transform="translate(160.9375 0)"/>
       <use xlink:href="#DejaVuSans-30" transform="translate(224.560547 0)"/>
      </g>
     </g>
    </g>
    <g id="xtick_4">
     <g id="text_4">
      <!-- 12:00 -->
      <g style="fill: #003366" transform="translate(369.875313 267.977031) scale(0.08 -0.08)">
       <defs>
        <path id="DejaVuSans-31" d="M 794 531 
L 1825 531 
L 1825 4091 
L 703 3866 
L 703 4441 
L 1819 4666 
L 2450 4666 
L 2450 531 
L 3481 531 
L 3481 0 
L 794 0 
L 794 531 
z
" transform="scale(0.015625)"/>
        <path id="DejaVuSans-32" d="M 1228 531 
L 3431 531 
L 3431 0 
L 469 0 
L 469 531 
Q 828 903 1448 1529 
Q 2069 2156 2228 2338 
Q 2531 2678 2651 2914 
Q 2772 3150 2772 3378 
Q 2772 3750 2511 3984 
Q 2250 4219 1831 4219 
Q 1534 4219 1204 4116 
Q 875 4013 500 3803 
L 500 4441 
Q 881 4594 1212 4672 
Q 1544 4750 1819 4750 
Q 2544 4750 2975 4387 
Q 3406 4025 3406 3419 
Q 3406 3131 3298 2873 
Q 3191 2616 2906 2266 
Q 2828 2175 2409 1742 
Q 1991 1309 1228 531 
z
" transform="scale(0.015625)"/>
       </defs>
       <use xlink:href="#DejaVuSans-31"/>
       <use xlink:href="#DejaVuSans-32" transform="translate(63.623047 0)"/>
       <use xlink:href="#DejaVuSans-3a" transform="translate(127.246094 0)"/>
       <use xlink:href="#DejaVuSans-30" transform="translate(160.9375 0)"/>
       <use xlink:href="#DejaVuSans-30" transform="translate(224.560547 0)"/>
      </g>
     </g>
    </g>
    <g id="xtick_5">
     <g id="text_5">
      <!-- 16:00 -->
      <g style="fill: #003366" transform="translate(477.875313 267.977031) scale(0.08 -0.08)">
       <defs>
        <path id="DejaVuSans-36" d="M 2113 2584 
Q 1688 2584 1439 2293 
Q 1191 2003 1191 1497 
Q 1191 994 1439 701 
Q 1688 409 2113 409 
Q 2538 409 2786 701 
Q 3034 994 3034 1497 
Q 3034 2003 2786 2293 
Q 2538 2584 2113 2584 
z
M 3366 4563 
L 3366 3988 
Q 3128 4100 2886 4159 
Q 2644 4219 2406 4219 
Q 1781 4219 1451 3797 
Q 1122 3375 1075 2522 
Q 1259 2794 1537 2939 
Q 1816 3084 2150 3084 
Q 2853 3084 3261 2657 
Q 3669 2231 3669 1497 
Q 3669 778 3244 343 
Q 2819 -91 2113 -91 
Q 1303 -91 875 529 
Q 447 1150 447 2328 
Q 447 3434 972 4092 
Q 1497 4750 2381 4750 
Q 2619 4750 2861 4703 
Q 3103 4656 3366 4563 
z
" transform="scale(0.015625)"/>
       </defs>
       <use xlink:href="#DejaVuSans-31"/>
       <use xlink:href="#DejaVuSans-36" transform="translate(63.623047 0)"/>
       <use xlink:href="#DejaVuSans-3a" transform="translate(127.246094 0)"/>
       <use xlink:href="#DejaVuSans-30" transform="translate(160.9375 0)"/>
       <use xlink:href="#DejaVuSans-30" transform="translate(224.560547 0)"/>
      </g>
     </g>
    </g>
    <g id="xtick_6">
     <g id="text_6">
      <!-- 20:00 -->
      <g style="fill: #003366" transform="translate(585.875312 267.977031) scale(0.08 -0.08)">
       <use xlink:href="#DejaVuSans-32"/>
       <use xlink:href="#DejaVuSans-30" transform="translate(63.623047 0)"/>
       <use xlink:href="#DejaVuSans-3a" transform="translate(127.246094 0)"/>
       <use xlink:href="#DejaVuSans-30" transform="translate(160.9375 0)"/>
       <use xlink:href="#DejaVuSans-30" transform="translate(224.560547 0)"/>
      </g>
     </g>
    </g>
    <g id="xtick_7">
     <g id="text_7">
      <!-- 24:00 -->
      <g style="fill: #003366" transform="translate(693.875312 267.977031) scale(0.08 -0.08)">
       <use xlink:href="#DejaVuSans-32"/>
       <use xlink:href="#DejaVuSans-34" transform="translate(63.623047 0)"/>
       <use xlink:href="#DejaVuSans-3a" transform="translate(127.246094 0)"/>
       <use xlink:href="#DejaVuSans-30" transform="translate(160.9375 0)"/>
       <use xlink:href="#DejaVuSans-30" transform="translate(224.560547 0)"/>
      </g>
     </g>
    </g>
    <g id="text_8">
     <!-- Hora del día -->
     <g style="fill: #003366" transform="translate(354.056875 280.479375) scale(0.09 -0.09)">
      <defs>
       <path id="DejaVuSans-48" d="M 628 4666 
L 1259 4666 
L 1259 2753 
L 3553 2753 
L 3553 4666 
L 4184 4666 
L 4184 0 
L 3553 0 
L 3553 2222 
L 1259 2222 
L 1259 0 
L 628 0 
L 628 4666 
z
" transform="scale(0.015625)"/>
       <path id="DejaVuSans-6f" d="M 1959 3097 
Q 1497 3097 1228 2736 
Q 959 2375 959 1747 
Q 959 1119 1226 758 
Q 1494 397 1959 397 
Q 2419 397 2687 759 
Q 2956 1122 2956 1747 
Q 2956 2369 2687 2733 
Q 2419 3097 1959 3097 
z
M 1959 3584 
Q 2709 3584 3137 3096 
Q 3566 2609 3566 1747 
Q 3566 888 3137 398 
Q 2709 -91 1959 -91 
Q 1206 -91 779 398 
Q 353 888 353 1747 
Q 353 2609 779 3096 
Q 1206 3584 1959 3584 
z
" transform="scale(0.015625)"/>
       <path id="DejaVuSans-72" d="M 2631 2963 
Q 2534 3019 2420 3045 
Q 2306 3072 2169 3072 
Q 1681 3072 1420 2755 
Q 1159 2438 1159 1844 
L 1159 0 
L 581 0 
L 581 3500 
L 1159 3500 
L 1159 2956 
Q 1341 3275 1631 3429 
Q 1922 3584 2338 3584 
Q 2397 3584 2469 3576 
Q 2541 3569 2628 3553 
L 2631 2963 
z
" transform="scale(0.015625)"/>
       <path id="DejaVuSans-61" d="M 2194 1759 
Q 1497 1759 1228 1600 
Q 959 1441 959 1056 
Q 959 750 1161 570 
Q 1363 391 1709 391 
Q 2188 391 2477 730 
Q 2766 1069 2766 1631 
L 2766 1759 
L 2194 1759 
z
M 3341 1997 
L 3341 0 
L 2766 0 
L 2766 531 
Q 2569 213 2275 61 
Q 1981 -91 1556 -91 
Q 1019 -91 701 211 
Q 384 513 384 1019 
Q 384 1609 779 1909 
Q 1175 2209 1959 2209 
L 2766 2209 
L 2766 2266 
Q 2766 2663 2505 2880 
Q 2244 3097 1772 3097 
Q 1472 3097 1187 3025 
Q 903 2953 641 2809 
L 641 3341 
Q 956 3463 1253 3523 
Q 1550 3584 1831 3584 
Q 2591 3584 2966 3190 
Q 3341 2797 3341 1997 
z
" transform="scale(0.015625)"/>
       <path id="DejaVuSans-20" transform="scale(0.015625)"/>
       <path id="DejaVuSans-64" d="M 2906 2969 
L 2906 4863 
L 3481 4863 
L 3481 0 
L 2906 0 
L 2906 525 
Q 2725 213 2448 61 
Q 2172 -91 1784 -91 
Q 1150 -91 751 415 
Q 353 922 353 1747 
Q 353 2572 751 3078 
Q 1150 3584 1784 3584 
Q 2172 3584 2448 3432 
Q 2725 3281 2906 2969 
z
M 947 1747 
Q 947 1113 1208 752 
Q 1469 391 1925 391 
Q 2381 391 2643 752 
Q 2906 1113 2906 1747 
Q 2906 2381 2643 2742 
Q 2381 3103 1925 3103 
Q 1469 3103 1208 2742 
Q 947 2381 947 1747 
z
" transform="scale(0.015625)"/>
       <path id="DejaVuSans-65" d="M 3597 1894 
L 3597 1613 
L 953 1613 
Q 991 1019 1311 708 
Q 1631 397 2203 397 
Q 2534 397 2845 478 
Q 3156 559 3463 722 
L 3463 178 
Q 3153 47 2828 -22 
Q 2503 -91 2169 -91 
Q 1331 -91 842 396 
Q 353 884 353 1716 
Q 353 2575 817 3079 
Q 1281 3584 2069 3584 
Q 2775 3584 3186 3129 
Q 3597 2675 3597 1894 
z
M 3022 2063 
Q 3016 2534 2758 2815 
Q 2500 3097 2075 3097 
Q 1594 3097 1305 2825 
Q 1016 2553 972 2059 
L 3022 2063 
z
" transform="scale(0.015625)"/>
       <path id="DejaVuSans-6c" d="M 603 4863 
L 1178 4863 
L 1178 0 
L 603 0 
L 603 4863 
z
" transform="scale(0.015625)"/>
       <path id="DejaVuSans-ed" d="M 1322 5119 
L 1944 5119 
L 926 3944 
L 447 3944 
L 1322 5119 
z
M 603 3500 
L 1178 3500 
L 1178 0 
L 603 0 
L 603 3500 
z
M 891 3584 
L 891 3584 
z
" transform="scale(0.015625)"/>
      </defs>
      <use xlink:href="#DejaVuSans-48"/>
      <use xlink:href="#DejaVuSans-6f" transform="translate(75.195312 0)"/>
      <use xlink:href="#DejaVuSans-72" transform="translate(136.376953 0)"/>
      <use xlink:href="#DejaVuSans-61" transform="translate(177.490234 0)"/>
      <use xlink:href="#DejaVuSans-20" transform="translate(238.769531 0)"/>
      <use xlink:href="#DejaVuSans-64" transform="translate(270.556641 0)"/>
      <use xlink:href="#DejaVuSans-65" transform="translate(334.033203 0)"/>
      <use xlink:href="#DejaVuSans-6c" transform="translate(395.556641 0)"/>
      <use xlink:href="#DejaVuSans-20" transform="translate(423.339844 0)"/>
      <use xlink:href="#DejaVuSans-64" transform="translate(455.126953 0)"/>
      <use xlink:href="#DejaVuSans-ed" transform="translate(518.603516 0)"/>
      <use xlink:href="#DejaVuSans-61" transform="translate(546.386719 0)"/>
     </g>
    </g>
   </g>
   <g id="matplotlib.axis_2">
    <g id="ytick_1">
     <g id="line2d_1">
      <path d="M 57.402813 232.713918 
L 705.402812 232.713918 
" clip-path="url(#p9f594f5b7e)" style="fill: none; stroke: #cccccc; stroke-opacity: 0.18; stroke-linecap: round"/>
     </g>
     <g id="text_9">
      <!-- 0 -->
      <g style="fill: #003366" transform="translate(42.812813 235.753293) scale(0.08 -0.08)">
       <use xlink:href="#DejaVuSans-30"/>
      </g>
     </g>
    </g>
    <g id="ytick_2">
     <g id="line2d_2">
      <path d="M 57.402813 190.74747 
L 705.402812 190.74747 
" clip-path="url(#p9f594f5b7e)" style="fill: none; stroke: #cccccc; stroke-opacity: 0.18; stroke-linecap: round"/>
     </g>
     <g id="text_10">
      <!-- 2.000 -->
      <g style="fill: #003366" transform="translate(25.000313 193.786845) scale(0.08 -0.08)">
       <defs>
        <path id="DejaVuSans-2e" d="M 684 794 
L 1344 794 
L 1344 0 
L 684 0 
L 684 794 
z
" transform="scale(0.015625)"/>
       </defs>
       <use xlink:href="#DejaVuSans-32"/>
       <use xlink:href="#DejaVuSans-2e" transform="translate(63.623047 0)"/>
       <use xlink:href="#DejaVuSans-30" transform="translate(95.410156 0)"/>
       <use xlink:href="#DejaVuSans-30" transform="translate(159.033203 0)"/>
       <use xlink:href="#DejaVuSans-30" transform="translate(222.65625 0)"/>
      </g>
     </g>
    </g>
    <g id="ytick_3">
     <g id="line2d_3">
      <path d="M 57.402813 148.781021 
L 705.402812 148.781021 
" clip-path="url(#p9f594f5b7e)" style="fill: none; stroke: #cccccc; stroke-opacity: 0.18; stroke-linecap: round"/>
     </g>
     <g id="text_11">
      <!-- 4.000 -->
      <g style="fill: #003366" transform="translate(25.000313 151.820396) scale(0.08 -0.08)">
       <use xlink:href="#DejaVuSans-34"/>
       <use xlink:href="#DejaVuSans-2e" transform="translate(63.623047 0)"/>
       <use xlink:href="#DejaVuSans-30" transform="translate(95.410156 0)"/>
       <use xlink:href="#DejaVuSans-30" transform="translate(159.033203 0)"/>
       <use xlink:href="#DejaVuSans-30" transform="translate(222.65625 0)"/>
      </g>
     </g>
    </g>
    <g id="ytick_4">
     <g id="line2d_4">
      <path d="M 57.402813 106.814572 
L 705.402812 106.814572 
" clip-path="url(#p9f594f5b7e)" style="fill: none; stroke: #cccccc; stroke-opacity: 0.18; stroke-linecap: round"/>
     </g>
     <g id="text_12">
      <!-- 6.000 -->
      <g style="fill: #003366" transform="translate(25.000313 109.853947) scale(0.08 -0.08)">
       <use xlink:href="#DejaVuSans-36"/>
       <use xlink:href="#DejaVuSans-2e" transform="translate(63.623047 0)"/>
       <use xlink:href="#DejaVuSans-30" transform="translate(95.410156 0)"/>
       <use xlink:href="#DejaVuSans-30" transform="translate(159.033203 0)"/>
       <use xlink:href="#DejaVuSans-30" transform="translate(222.65625 0)"/>
      </g>
     </g>
    </g>
    <g id="ytick_5">
     <g id="line2d_5">
      <path d="M 57.402813 64.848124 
L 705.402812 64.848124 
" clip-path="url(#p9f594f5b7e)" style="fill: none; stroke: #cccccc; stroke-opacity: 0.18; stroke-linecap: round"/>
     </g>
     <g id="text_13">
      <!-- 8.000 -->
      <g style="fill: #003366" transform="translate(25.000313 67.887499) scale(0.08 -0.08)">
       <use xlink:href="#DejaVuSans-38"/>
       <use xlink:href="#DejaVuSans-2e" transform="translate(63.623047 0)"/>
       <use xlink:href="#DejaVuSans-30" transform="translate(95.410156 0)"/>
       <use xlink:href="#DejaVuSans-30" transform="translate(159.033203 0)"/>
       <use xlink:href="#DejaVuSans-30" transform="translate(222.65625 0)"/>
      </g>
     </g>
    </g>
    <g id="ytick_6">
     <g id="line2d_6">
      <path d="M 57.402813 22.881675 
L 705.402812 22.881675 
" clip-path="url(#p9f594f5b7e)" style="fill: none; stroke: #cccccc; stroke-opacity: 0.18; stroke-linecap: round"/>
     </g>
     <g id="text_14">
      <!-- 10.000 -->
      <g style="fill: #003366" transform="translate(19.910313 25.92105) scale(0.08 -0.08)">
       <use xlink:href="#DejaVuSans-31"/>
       <use xlink:href="#DejaVuSans-30" transform="translate(63.623047 0)"/>
       <use xlink:href="#DejaVuSans-2e" transform="translate(127.246094 0)"/>
       <use xlink:href="#DejaVuSans-30" transform="translate(159.033203 0)"/>
       <use xlink:href="#DejaVuSans-30" transform="translate(222.65625 0)"/>
       <use xlink:href="#DejaVuSans-30" transform="translate(286.279297 0)"/>
      </g>
     </g>
    </g>
    <g id="text_15">
     <!-- Generación -->
     <g style="fill: #003366" transform="translate(14.038594 163.012109) rotate(-90) scale(0.09 -0.09)">
      <defs>
       <path id="DejaVuSans-47" d="M 3809 666 
L 3809 1919 
L 2778 1919 
L 2778 2438 
L 4434 2438 
L 4434 434 
Q 4069 175 3628 42 
Q 3188 -91 2688 -91 
Q 1594 -91 976 548 
Q 359 1188 359 2328 
Q 359 3472 976 4111 
Q 1594 4750 2688 4750 
Q 3144 4750 3555 4637 
Q 3966 4525 4313 4306 
L 4313 3634 
Q 3963 3931 3569 4081 
Q 3175 4231 2741 4231 
Q 1884 4231 1454 3753 
Q 1025 3275 1025 2328 
Q 1025 1384 1454 906 
Q 1884 428 2741 428 
Q 3075 428 3337 486 
Q 3600 544 3809 666 
z
" transform="scale(0.015625)"/>
       <path id="DejaVuSans-6e" d="M 3513 2113 
L 3513 0 
L 2938 0 
L 2938 2094 
Q 2938 2591 2744 2837 
Q 2550 3084 2163 3084 
Q 1697 3084 1428 2787 
Q 1159 2491 1159 1978 
L 1159 0 
L 581 0 
L 581 3500 
L 1159 3500 
L 1159 2956 
Q 1366 3272 1645 3428 
Q 1925 3584 2291 3584 
Q 2894 3584 3203 3211 
Q 3513 2838 3513 2113 
z
" transform="scale(0.015625)"/>
       <path id="DejaVuSans-63" d="M 3122 3366 
L 3122 2828 
Q 2878 2963 2633 3030 
Q 2388 3097 2138 3097 
Q 1578 3097 1268 2742 
Q 959 2388 959 1747 
Q 959 1106 1268 751 
Q 1578 397 2138 397 
Q 2388 397 2633 464 
Q 2878 531 3122 666 
L 3122 134 
Q 2881 22 2623 -34 
Q 2366 -91 2075 -91 
Q 1284 -91 818 406 
Q 353 903 353 1747 
Q 353 2603 823 3093 
Q 1294 3584 2113 3584 
Q 2378 3584 2631 3529 
Q 2884 3475 3122 3366 
z
" transform="scale(0.015625)"/>
       <path id="DejaVuSans-69" d="M 603 3500 
L 1178 3500 
L 1178 0 
L 603 0 
L 603 3500 
z
M 603 4863 
L 1178 4863 
L 1178 4134 
L 603 4134 
L 603 4863 
z
" transform="scale(0.015625)"/>
       <path id="DejaVuSans-f3" d="M 1959 3097 
Q 1497 3097 1228 2736 
Q 959 2375 959 1747 
Q 959 1119 1226 758 
Q 1494 397 1959 397 
Q 2419 397 2687 759 
Q 2956 1122 2956 1747 
Q 2956 2369 2687 2733 
Q 2419 3097 1959 3097 
z
M 1959 3584 
Q 2709 3584 3137 3096 
Q 3566 2609 3566 1747 
Q 3566 888 3137 398 
Q 2709 -91 1959 -91 
Q 1206 -91 779 398 
Q 353 888 353 1747 
Q 353 2609 779 3096 
Q 1206 3584 1959 3584 
z
M 2394 5119 
L 3016 5119 
L 1998 3944 
L 1519 3944 
L 2394 5119 
z
" transform="scale(0.015625)"/>
      </defs>
      <use xlink:href="#DejaVuSans-47"/>
      <use xlink:href="#DejaVuSans-65" transform="translate(77.490234 0)"/>
      <use xlink:href="#DejaVuSans-6e" transform="translate(139.013672 0)"/>
      <use xlink:href="#DejaVuSans-65" transform="translate(202.392578 0)"/>
      <use xlink:href="#DejaVuSans-72" transform="translate(263.916016 0)"/>
      <use xlink:href="#DejaVuSans-61" transform="translate(305.029297 0)"/>
      <use xlink:href="#DejaVuSans-63" transform="translate(366.308594 0)"/>
      <use xlink:href="#DejaVuSans-69" transform="translate(421.289062 0)"/>
      <use xlink:href="#DejaVuSans-f3" transform="translate(449.072266 0)"/>
      <use xlink:href="#DejaVuSans-6e" transform="translate(510.253906 0)"/>
     </g>
    </g>
   </g>
   <g id="FillBetweenPolyCollection_1">
    <defs>
     <path id="m77ad057d0f" d="M 57.402813 -56.837175 
L 57.402813 -56.837175 
L 84.402813 -56.837175 
L 111.402813 -56.837175 
L 138.402813 -56.837175 
L 165.402813 -56.837175 
L 192.402813 -56.837175 
L 219.402813 -56.837175 
L 246.402813 -56.837175 
L 273.402812 -56.837175 
L 300.402812 -56.837175 
L 327.402812 -56.837175 
L 354.402812 -56.837175 
L 381.402812 -56.837175 
L 408.402812 -56.837175 
L 435.402812 -56.837175 
L 462.402812 -56.837175 
L 489.402812 -56.837175 
L 516.402812 -56.837175 
L 543.402812 -56.837175 
L 570.402812 -56.837175 
L 597.402812 -56.837175 
L 624.402812 -56.837175 
L 651.402812 -56.837175 
L 678.402812 -56.837175 
L 678.402812 -56.984058 
L 678.402812 -56.984058 
L 651.402812 -56.837175 
L 624.402812 -56.837175 
L 597.402812 -56.921108 
L 570.402812 -59.397129 
L 543.402812 -101.090795 
L 516.402812 -131.180739 
L 489.402812 -153.50689 
L 462.402812 -164.544066 
L 435.402812 -174.112416 
L 408.402812 -186.618418 
L 381.402812 -193.228134 
L 354.402812 -185.422374 
L 327.402812 -171.909178 
L 300.402812 -146.687342 
L 273.402812 -93.033237 
L 246.402813 -57.865353 
L 219.402813 -56.837175 
L 192.402813 -56.837175 
L 165.402813 -56.837175 
L 138.402813 -56.837175 
L 111.402813 -56.837175 
L 84.402813 -56.837175 
L 57.402813 -56.837175 
z
" style="stroke: #ffffff; stroke-opacity: 0.95; stroke-width: 0.6"/>
    </defs>
    <g clip-path="url(#p9f594f5b7e)">
     <use xlink:href="#m77ad057d0f" x="0" y="289.551094" style="fill: #f6c48e; fill-opacity: 0.95; stroke: #ffffff; stroke-opacity: 0.95; stroke-width: 0.6"/>
    </g>
   </g>
   <g id="FillBetweenPolyCollection_2">
    <defs>
     <path id="m3883f8f8d8" d="M 57.402813 -74.211285 
L 57.402813 -56.837175 
L 84.402813 -56.837175 
L 111.402813 -56.837175 
L 138.402813 -56.837175 
L 165.402813 -56.837175 
L 192.402813 -56.837175 
L 219.402813 -56.837175 
L 246.402813 -57.865353 
L 273.402812 -93.033237 
L 300.402812 -146.687342 
L 327.402812 -171.909178 
L 354.402812 -185.422374 
L 381.402812 -193.228134 
L 408.402812 -186.618418 
L 435.402812 -174.112416 
L 462.402812 -164.544066 
L 489.402812 -153.50689 
L 516.402812 -131.180739 
L 543.402812 -101.090795 
L 570.402812 -59.397129 
L 597.402812 -56.921108 
L 624.402812 -56.837175 
L 651.402812 -56.837175 
L 678.402812 -56.984058 
L 678.402812 -97.628563 
L 678.402812 -97.628563 
L 651.402812 -94.229281 
L 624.402812 -96.075805 
L 597.402812 -103.587799 
L 570.402812 -115.611187 
L 543.402812 -134.76887 
L 516.402812 -161.753297 
L 489.402812 -182.421773 
L 462.402812 -193.081251 
L 435.402812 -203.446964 
L 408.402812 -207.244927 
L 381.402812 -206.216749 
L 354.402812 -195.347439 
L 327.402812 -185.863022 
L 300.402812 -161.795263 
L 273.402812 -110.113582 
L 246.402813 -74.50505 
L 219.402813 -73.183107 
L 192.402813 -70.371355 
L 165.402813 -69.741858 
L 138.402813 -70.874952 
L 111.402813 -73.518839 
L 84.402813 -74.924715 
L 57.402813 -74.211285 
z
" style="stroke: #ffffff; stroke-opacity: 0.95; stroke-width: 0.6"/>
    </defs>
    <g clip-path="url(#p9f594f5b7e)">
     <use xlink:href="#m3883f8f8d8" x="0" y="289.551094" style="fill: #a8d5ba; fill-opacity: 0.95; stroke: #ffffff; stroke-opacity: 0.95; stroke-width: 0.6"/>
    </g>
   </g>
   <g id="FillBetweenPolyCollection_3">
    <defs>
     <path id="ma9bf9bca48" d="M 57.402813 -139.762878 
L 57.402813 -74.211285 
L 84.402813 -74.924715 
L 111.402813 -73.518839 
L 138.402813 -70.874952 
L 165.402813 -69.741858 
L 192.402813 -70.371355 
L 219.402813 -73.183107 
L 246.402813 -74.50505 
L 273.402812 -110.113582 
L 300.402812 -161.795263 
L 327.402812 -185.863022 
L 354.402812 -195.347439 
L 381.402812 -206.216749 
L 408.402812 -207.244927 
L 435.402812 -203.446964 
L 462.402812 -193.081251 
L 489.402812 -182.421773 
L 516.402812 -161.753297 
L 543.402812 -134.76887 
L 570.402812 -115.611187 
L 597.402812 -103.587799 
L 624.402812 -96.075805 
L 651.402812 -94.229281 
L 678.402812 -97.628563 
L 678.402812 -159.403176 
L 678.402812 -159.403176 
L 651.402812 -164.31325 
L 624.402812 -165.572244 
L 597.402812 -173.063255 
L 570.402812 -176.042873 
L 543.402812 -177.553665 
L 516.402812 -192.997318 
L 489.402812 -210.958958 
L 462.402812 -218.240137 
L 435.402812 -227.158007 
L 408.402812 -232.760528 
L 381.402812 -233.935589 
L 354.402812 -230.49434 
L 327.402812 -223.40201 
L 300.402812 -200.698161 
L 273.402812 -162.214928 
L 246.402813 -142.805445 
L 219.402813 -140.791056 
L 192.402813 -141.378586 
L 165.402813 -136.78326 
L 138.402813 -136.426545 
L 111.402813 -139.133381 
L 84.402813 -143.833623 
L 57.402813 -139.762878 
z
" style="stroke: #ffffff; stroke-opacity: 0.95; stroke-width: 0.6"/>
    </defs>
    <g clip-path="url(#p9f594f5b7e)">
     <use xlink:href="#ma9bf9bca48" x="0" y="289.551094" style="fill: #8ec5ff; fill-opacity: 0.95; stroke: #ffffff; stroke-opacity: 0.95; stroke-width: 0.6"/>
    </g>
   </g>
   <g id="FillBetweenPolyCollection_4">
    <defs>
     <path id="me0a7414b51" d="M 57.402813 -140.056643 
L 57.402813 -139.762878 
L 84.402813 -143.833623 
L 111.402813 -139.133381 
L 138.402813 -136.426545 
L 165.402813 -136.78326 
L 192.402813 -141.378586 
L 219.402813 -140.791056 
L 246.402813 -142.805445 
L 273.402812 -162.214928 
L 300.402812 -200.698161 
L 327.402812 -223.40201 
L 354.402812 -230.49434 
L 381.402812 -233.935589 
L 408.402812 -232.760528 
L 435.402812 -227.158007 
L 462.402812 -218.240137 
L 489.402812 -210.958958 
L 516.402812 -192.997318 
L 543.402812 -177.553665 
L 570.402812 -176.042873 
L 597.402812 -173.063255 
L 624.402812 -165.572244 
L 651.402812 -164.31325 
L 678.402812 -159.403176 
L 678.402812 -159.696941 
L 678.402812 -159.696941 
L 651.402812 -164.627999 
L 624.402812 -165.866009 
L 597.402812 -173.35702 
L 570.402812 -176.336638 
L 543.402812 -177.826447 
L 516.402812 -193.2701 
L 489.402812 -211.210757 
L 462.402812 -218.491936 
L 435.402812 -227.409806 
L 408.402812 -233.012327 
L 381.402812 -234.208371 
L 354.402812 -230.767122 
L 327.402812 -223.695775 
L 300.402812 -201.01291 
L 273.402812 -162.529676 
L 246.402813 -143.120194 
L 219.402813 -141.105804 
L 192.402813 -141.693335 
L 165.402813 -137.098008 
L 138.402813 -136.741294 
L 111.402813 -139.44813 
L 84.402813 -144.127389 
L 57.402813 -140.056643 
z
" style="stroke: #ffffff; stroke-opacity: 0.95; stroke-width: 0.6"/>
    </defs>
    <g clip-path="url(#p9f594f5b7e)">
     <use xlink:href="#me0a7414b51" x="0" y="289.551094" style="fill: #d9c2a3; fill-opacity: 0.95; stroke: #ffffff; stroke-opacity: 0.95; stroke-width: 0.6"/>
    </g>
   </g>
   <g id="FillBetweenPolyCollection_5">
    <defs>
     <path id="mba49535302" d="M 57.402813 -146.708325 
L 57.402813 -140.056643 
L 84.402813 -144.127389 
L 111.402813 -139.44813 
L 138.402813 -136.741294 
L 165.402813 -137.098008 
L 192.402813 -141.693335 
L 219.402813 -141.105804 
L 246.402813 -143.120194 
L 273.402812 -162.529676 
L 300.402812 -201.01291 
L 327.402812 -223.695775 
L 354.402812 -230.767122 
L 381.402812 -234.208371 
L 408.402812 -233.012327 
L 435.402812 -227.409806 
L 462.402812 -218.491936 
L 489.402812 -211.210757 
L 516.402812 -193.2701 
L 543.402812 -177.826447 
L 570.402812 -176.336638 
L 597.402812 -173.35702 
L 624.402812 -165.866009 
L 651.402812 -164.627999 
L 678.402812 -159.696941 
L 678.402812 -167.083036 
L 678.402812 -167.083036 
L 651.402812 -174.049466 
L 624.402812 -176.966135 
L 597.402812 -181.75031 
L 570.402812 -178.917575 
L 543.402812 -177.826447 
L 516.402812 -193.2701 
L 489.402812 -211.210757 
L 462.402812 -218.491936 
L 435.402812 -227.409806 
L 408.402812 -233.012327 
L 381.402812 -234.208371 
L 354.402812 -230.767122 
L 327.402812 -223.695775 
L 300.402812 -201.01291 
L 273.402812 -162.55066 
L 246.402813 -143.602808 
L 219.402813 -142.175949 
L 192.402813 -142.805445 
L 165.402813 -138.210119 
L 138.402813 -138.860599 
L 111.402813 -142.931345 
L 84.402813 -149.436144 
L 57.402813 -146.708325 
z
" style="stroke: #ffffff; stroke-opacity: 0.95; stroke-width: 0.6"/>
    </defs>
    <g clip-path="url(#p9f594f5b7e)">
     <use xlink:href="#mba49535302" x="0" y="289.551094" style="fill: #d96c6c; fill-opacity: 0.95; stroke: #ffffff; stroke-opacity: 0.95; stroke-width: 0.6"/>
    </g>
   </g>
   <g id="FillBetweenPolyCollection_6">
    <defs>
     <path id="m455688fcf0" d="M 57.402813 -224.325272 
L 57.402813 -146.708325 
L 84.402813 -149.436144 
L 111.402813 -142.931345 
L 138.402813 -138.860599 
L 165.402813 -138.210119 
L 192.402813 -142.805445 
L 219.402813 -142.175949 
L 246.402813 -143.602808 
L 273.402812 -162.55066 
L 300.402812 -201.01291 
L 327.402812 -223.695775 
L 354.402812 -230.767122 
L 381.402812 -234.208371 
L 408.402812 -233.012327 
L 435.402812 -227.409806 
L 462.402812 -218.491936 
L 489.402812 -211.210757 
L 516.402812 -193.2701 
L 543.402812 -177.826447 
L 570.402812 -178.917575 
L 597.402812 -181.75031 
L 624.402812 -176.966135 
L 651.402812 -174.049466 
L 678.402812 -167.083036 
L 678.402812 -223.150211 
L 678.402812 -223.150211 
L 651.402812 -230.074675 
L 624.402812 -233.054293 
L 597.402812 -239.391227 
L 570.402812 -236.474559 
L 543.402812 -226.045896 
L 516.402812 -227.661605 
L 489.402812 -237.146022 
L 462.402812 -243.021325 
L 435.402812 -250.764135 
L 408.402812 -255.716176 
L 381.402812 -256.681404 
L 354.402812 -257.080085 
L 327.402812 -255.716176 
L 300.402812 -243.545906 
L 273.402812 -222.22695 
L 246.402813 -214.148408 
L 219.402813 -210.602243 
L 192.402813 -212.490733 
L 165.402813 -212.952364 
L 138.402813 -214.672989 
L 111.402813 -217.211959 
L 84.402813 -222.772513 
L 57.402813 -224.325272 
z
" style="stroke: #ffffff; stroke-opacity: 0.95; stroke-width: 0.6"/>
    </defs>
    <g clip-path="url(#p9f594f5b7e)">
     <use xlink:href="#m455688fcf0" x="0" y="289.551094" style="fill: #d9e2ec; fill-opacity: 0.95; stroke: #ffffff; stroke-opacity: 0.95; stroke-width: 0.6"/>
    </g>
   </g>
   <g id="FillBetweenPolyCollection_7">
    <defs>
     <path id="me580c6ecd6" d="M 57.402813 -56.837175 
L 57.402813 -56.837175 
L 84.402813 -56.837175 
L 111.402813 -56.837175 
L 138.402813 -56.837175 
L 165.402813 -56.837175 
L 192.402813 -56.837175 
L 219.402813 -56.837175 
L 246.402813 -56.837175 
L 273.402812 -56.837175 
L 300.402812 -56.837175 
L 327.402812 -56.837175 
L 354.402812 -56.837175 
L 381.402812 -56.837175 
L 408.402812 -56.837175 
L 435.402812 -56.837175 
L 462.402812 -56.837175 
L 489.402812 -56.837175 
L 516.402812 -56.837175 
L 543.402812 -56.837175 
L 570.402812 -56.837175 
L 597.402812 -56.837175 
L 624.402812 -56.837175 
L 651.402812 -56.837175 
L 678.402812 -56.837175 
L 678.402812 -56.837175 
L 678.402812 -56.837175 
L 651.402812 -56.837175 
L 624.402812 -56.837175 
L 597.402812 -56.753242 
L 570.402812 -56.816192 
L 543.402812 -56.459477 
L 516.402812 -55.389333 
L 489.402812 -51.906118 
L 462.402812 -50.626141 
L 435.402812 -49.115349 
L 408.402812 -47.688489 
L 381.402812 -47.62554 
L 354.402812 -48.045204 
L 327.402812 -48.611751 
L 300.402812 -51.024822 
L 273.402812 -56.585377 
L 246.402813 -56.837175 
L 219.402813 -56.816192 
L 192.402813 -56.816192 
L 165.402813 -56.816192 
L 138.402813 -56.816192 
L 111.402813 -56.837175 
L 84.402813 -56.816192 
L 57.402813 -56.837175 
z
" style="stroke: #ffffff; stroke-opacity: 0.95; stroke-width: 0.6"/>
    </defs>
    <g clip-path="url(#p9f594f5b7e)">
     <use xlink:href="#me580c6ecd6" x="0" y="289.551094" style="fill: #6fa8dc; fill-opacity: 0.95; stroke: #ffffff; stroke-opacity: 0.95; stroke-width: 0.6"/>
    </g>
   </g>
   <g id="line2d_7">
    <path d="M 57.402813 232.713918 
L 705.402812 232.713918 
" clip-path="url(#p9f594f5b7e)" style="fill: none; stroke: #667085; stroke-width: 0.8; stroke-linecap: round"/>
   </g>
   <g id="patch_3">
    <path d="M 57.402813 252.398281 
L 57.402813 21.998281 
" style="fill: none; stroke: #d0d5dd; stroke-width: 0.9; stroke-linejoin: miter; stroke-linecap: square"/>
   </g>
   <g id="patch_4">
    <path d="M 57.402813 252.398281 
L 705.402812 252.398281 
" style="fill: none; stroke: #d0d5dd; stroke-width: 0.9; stroke-linejoin: miter; stroke-linecap: square"/>
   </g>
   <g id="text_16">
    <!-- Generación diaria típica por tecnología -->
    <g style="fill: #003366" transform="translate(260.498203 15.998281) scale(0.11 -0.11)">
     <defs>
      <path id="DejaVuSans-Bold-47" d="M 4781 347 
Q 4331 128 3847 18 
Q 3363 -91 2847 -91 
Q 1681 -91 1000 561 
Q 319 1213 319 2328 
Q 319 3456 1012 4103 
Q 1706 4750 2913 4750 
Q 3378 4750 3804 4662 
Q 4231 4575 4609 4403 
L 4609 3438 
Q 4219 3659 3833 3768 
Q 3447 3878 3059 3878 
Q 2341 3878 1952 3476 
Q 1563 3075 1563 2328 
Q 1563 1588 1938 1184 
Q 2313 781 3003 781 
Q 3191 781 3352 804 
Q 3513 828 3641 878 
L 3641 1784 
L 2906 1784 
L 2906 2591 
L 4781 2591 
L 4781 347 
z
" transform="scale(0.015625)"/>
      <path id="DejaVuSans-Bold-65" d="M 4031 1759 
L 4031 1441 
L 1416 1441 
Q 1456 1047 1700 850 
Q 1944 653 2381 653 
Q 2734 653 3104 758 
Q 3475 863 3866 1075 
L 3866 213 
Q 3469 63 3072 -14 
Q 2675 -91 2278 -91 
Q 1328 -91 801 392 
Q 275 875 275 1747 
Q 275 2603 792 3093 
Q 1309 3584 2216 3584 
Q 3041 3584 3536 3087 
Q 4031 2591 4031 1759 
z
M 2881 2131 
Q 2881 2450 2695 2645 
Q 2509 2841 2209 2841 
Q 1884 2841 1681 2658 
Q 1478 2475 1428 2131 
L 2881 2131 
z
" transform="scale(0.015625)"/>
      <path id="DejaVuSans-Bold-6e" d="M 4056 2131 
L 4056 0 
L 2931 0 
L 2931 347 
L 2931 1631 
Q 2931 2084 2911 2256 
Q 2891 2428 2841 2509 
Q 2775 2619 2662 2680 
Q 2550 2741 2406 2741 
Q 2056 2741 1856 2470 
Q 1656 2200 1656 1722 
L 1656 0 
L 538 0 
L 538 3500 
L 1656 3500 
L 1656 2988 
Q 1909 3294 2193 3439 
Q 2478 3584 2822 3584 
Q 3428 3584 3742 3212 
Q 4056 2841 4056 2131 
z
" transform="scale(0.015625)"/>
      <path id="DejaVuSans-Bold-72" d="M 3138 2547 
Q 2991 2616 2845 2648 
Q 2700 2681 2553 2681 
Q 2122 2681 1889 2404 
Q 1656 2128 1656 1613 
L 1656 0 
L 538 0 
L 538 3500 
L 1656 3500 
L 1656 2925 
Q 1872 3269 2151 3426 
Q 2431 3584 2822 3584 
Q 2878 3584 2943 3579 
Q 3009 3575 3134 3559 
L 3138 2547 
z
" transform="scale(0.015625)"/>
      <path id="DejaVuSans-Bold-61" d="M 2106 1575 
Q 1756 1575 1579 1456 
Q 1403 1338 1403 1106 
Q 1403 894 1545 773 
Q 1688 653 1941 653 
Q 2256 653 2472 879 
Q 2688 1106 2688 1447 
L 2688 1575 
L 2106 1575 
z
M 3816 1997 
L 3816 0 
L 2688 0 
L 2688 519 
Q 2463 200 2181 54 
Q 1900 -91 1497 -91 
Q 953 -91 614 226 
Q 275 544 275 1050 
Q 275 1666 698 1953 
Q 1122 2241 2028 2241 
L 2688 2241 
L 2688 2328 
Q 2688 2594 2478 2717 
Q 2269 2841 1825 2841 
Q 1466 2841 1156 2769 
Q 847 2697 581 2553 
L 581 3406 
Q 941 3494 1303 3539 
Q 1666 3584 2028 3584 
Q 2975 3584 3395 3211 
Q 3816 2838 3816 1997 
z
" transform="scale(0.015625)"/>
      <path id="DejaVuSans-Bold-63" d="M 3366 3391 
L 3366 2478 
Q 3138 2634 2908 2709 
Q 2678 2784 2431 2784 
Q 1963 2784 1702 2511 
Q 1441 2238 1441 1747 
Q 1441 1256 1702 982 
Q 1963 709 2431 709 
Q 2694 709 2930 787 
Q 3166 866 3366 1019 
L 3366 103 
Q 3103 6 2833 -42 
Q 2563 -91 2291 -91 
Q 1344 -91 809 395 
Q 275 881 275 1747 
Q 275 2613 809 3098 
Q 1344 3584 2291 3584 
Q 2566 3584 2833 3536 
Q 3100 3488 3366 3391 
z
" transform="scale(0.015625)"/>
      <path id="DejaVuSans-Bold-69" d="M 538 3500 
L 1656 3500 
L 1656 0 
L 538 0 
L 538 3500 
z
M 538 4863 
L 1656 4863 
L 1656 3950 
L 538 3950 
L 538 4863 
z
" transform="scale(0.015625)"/>
      <path id="DejaVuSans-Bold-f3" d="M 2203 2784 
Q 1831 2784 1636 2517 
Q 1441 2250 1441 1747 
Q 1441 1244 1636 976 
Q 1831 709 2203 709 
Q 2569 709 2762 976 
Q 2956 1244 2956 1747 
Q 2956 2250 2762 2517 
Q 2569 2784 2203 2784 
z
M 2203 3584 
Q 3106 3584 3614 3096 
Q 4122 2609 4122 1747 
Q 4122 884 3614 396 
Q 3106 -91 2203 -91 
Q 1297 -91 786 396 
Q 275 884 275 1747 
Q 275 2609 786 3096 
Q 1297 3584 2203 3584 
z
M 2694 5119 
L 3578 5119 
L 2425 3944 
L 1813 3944 
L 2694 5119 
z
" transform="scale(0.015625)"/>
      <path id="DejaVuSans-Bold-20" transform="scale(0.015625)"/>
      <path id="DejaVuSans-Bold-64" d="M 2919 2988 
L 2919 4863 
L 4044 4863 
L 4044 0 
L 2919 0 
L 2919 506 
Q 2688 197 2409 53 
Q 2131 -91 1766 -91 
Q 1119 -91 703 423 
Q 288 938 288 1747 
Q 288 2556 703 3070 
Q 1119 3584 1766 3584 
Q 2128 3584 2408 3439 
Q 2688 3294 2919 2988 
z
M 2181 722 
Q 2541 722 2730 984 
Q 2919 1247 2919 1747 
Q 2919 2247 2730 2509 
Q 2541 2772 2181 2772 
Q 1825 2772 1636 2509 
Q 1447 2247 1447 1747 
Q 1447 1247 1636 984 
Q 1825 722 2181 722 
z
" transform="scale(0.015625)"/>
      <path id="DejaVuSans-Bold-74" d="M 1759 4494 
L 1759 3500 
L 2913 3500 
L 2913 2700 
L 1759 2700 
L 1759 1216 
Q 1759 972 1856 886 
Q 1953 800 2241 800 
L 2816 800 
L 2816 0 
L 1856 0 
Q 1194 0 917 276 
Q 641 553 641 1216 
L 641 2700 
L 84 2700 
L 84 3500 
L 641 3500 
L 641 4494 
L 1759 4494 
z
" transform="scale(0.015625)"/>
      <path id="DejaVuSans-Bold-ed" d="M 538 3500 
L 1656 3500 
L 1656 0 
L 538 0 
L 538 3500 
z
M 1590 5119 
L 2474 5119 
L 1321 3944 
L 709 3944 
L 1590 5119 
z
" transform="scale(0.015625)"/>
      <path id="DejaVuSans-Bold-70" d="M 1656 506 
L 1656 -1331 
L 538 -1331 
L 538 3500 
L 1656 3500 
L 1656 2988 
Q 1888 3294 2169 3439 
Q 2450 3584 2816 3584 
Q 3463 3584 3878 3070 
Q 4294 2556 4294 1747 
Q 4294 938 3878 423 
Q 3463 -91 2816 -91 
Q 2450 -91 2169 54 
Q 1888 200 1656 506 
z
M 2400 2772 
Q 2041 2772 1848 2508 
Q 1656 2244 1656 1747 
Q 1656 1250 1848 986 
Q 2041 722 2400 722 
Q 2759 722 2948 984 
Q 3138 1247 3138 1747 
Q 3138 2247 2948 2509 
Q 2759 2772 2400 2772 
z
" transform="scale(0.015625)"/>
      <path id="DejaVuSans-Bold-6f" d="M 2203 2784 
Q 1831 2784 1636 2517 
Q 1441 2250 1441 1747 
Q 1441 1244 1636 976 
Q 1831 709 2203 709 
Q 2569 709 2762 976 
Q 2956 1244 2956 1747 
Q 2956 2250 2762 2517 
Q 2569 2784 2203 2784 
z
M 2203 3584 
Q 3106 3584 3614 3096 
Q 4122 2609 4122 1747 
Q 4122 884 3614 396 
Q 3106 -91 2203 -91 
Q 1297 -91 786 396 
Q 275 884 275 1747 
Q 275 2609 786 3096 
Q 1297 3584 2203 3584 
z
" transform="scale(0.015625)"/>
      <path id="DejaVuSans-Bold-6c" d="M 538 4863 
L 1656 4863 
L 1656 0 
L 538 0 
L 538 4863 
z
" transform="scale(0.015625)"/>
      <path id="DejaVuSans-Bold-67" d="M 2919 594 
Q 2688 288 2409 144 
Q 2131 0 1766 0 
Q 1125 0 706 504 
Q 288 1009 288 1791 
Q 288 2575 706 3076 
Q 1125 3578 1766 3578 
Q 2131 3578 2409 3434 
Q 2688 3291 2919 2981 
L 2919 3500 
L 4044 3500 
L 4044 353 
Q 4044 -491 3511 -936 
Q 2978 -1381 1966 -1381 
Q 1638 -1381 1331 -1331 
Q 1025 -1281 716 -1178 
L 716 -306 
Q 1009 -475 1290 -558 
Q 1572 -641 1856 -641 
Q 2406 -641 2662 -400 
Q 2919 -159 2919 353 
L 2919 594 
z
M 2181 2772 
Q 1834 2772 1640 2515 
Q 1447 2259 1447 1791 
Q 1447 1309 1634 1061 
Q 1822 813 2181 813 
Q 2531 813 2725 1069 
Q 2919 1325 2919 1791 
Q 2919 2259 2725 2515 
Q 2531 2772 2181 2772 
z
" transform="scale(0.015625)"/>
     </defs>
     <use xlink:href="#DejaVuSans-Bold-47"/>
     <use xlink:href="#DejaVuSans-Bold-65" transform="translate(82.080078 0)"/>
     <use xlink:href="#DejaVuSans-Bold-6e" transform="translate(149.902344 0)"/>
     <use xlink:href="#DejaVuSans-Bold-65" transform="translate(221.09375 0)"/>
     <use xlink:href="#DejaVuSans-Bold-72" transform="translate(288.916016 0)"/>
     <use xlink:href="#DejaVuSans-Bold-61" transform="translate(338.232422 0)"/>
     <use xlink:href="#DejaVuSans-Bold-63" transform="translate(405.712891 0)"/>
     <use xlink:href="#DejaVuSans-Bold-69" transform="translate(464.990234 0)"/>
     <use xlink:href="#DejaVuSans-Bold-f3" transform="translate(499.267578 0)"/>
     <use xlink:href="#DejaVuSans-Bold-6e" transform="translate(567.96875 0)"/>
     <use xlink:href="#DejaVuSans-Bold-20" transform="translate(639.160156 0)"/>
     <use xlink:href="#DejaVuSans-Bold-64" transform="translate(673.974609 0)"/>
     <use xlink:href="#DejaVuSans-Bold-69" transform="translate(745.556641 0)"/>
     <use xlink:href="#DejaVuSans-Bold-61" transform="translate(779.833984 0)"/>
     <use xlink:href="#DejaVuSans-Bold-72" transform="translate(847.314453 0)"/>
     <use xlink:href="#DejaVuSans-Bold-69" transform="translate(896.630859 0)"/>
     <use xlink:href="#DejaVuSans-Bold-61" transform="translate(930.908203 0)"/>
     <use xlink:href="#DejaVuSans-Bold-20" transform="translate(998.388672 0)"/>
     <use xlink:href="#DejaVuSans-Bold-74" transform="translate(1033.203125 0)"/>
     <use xlink:href="#DejaVuSans-Bold-ed" transform="translate(1081.005859 0)"/>
     <use xlink:href="#DejaVuSans-Bold-70" transform="translate(1115.283203 0)"/>
     <use xlink:href="#DejaVuSans-Bold-69" transform="translate(1186.865234 0)"/>
     <use xlink:href="#DejaVuSans-Bold-63" transform="translate(1221.142578 0)"/>
     <use xlink:href="#DejaVuSans-Bold-61" transform="translate(1280.419922 0)"/>
     <use xlink:href="#DejaVuSans-Bold-20" transform="translate(1347.900391 0)"/>
     <use xlink:href="#DejaVuSans-Bold-70" transform="translate(1382.714844 0)"/>
     <use xlink:href="#DejaVuSans-Bold-6f" transform="translate(1454.296875 0)"/>
     <use xlink:href="#DejaVuSans-Bold-72" transform="translate(1522.998047 0)"/>
     <use xlink:href="#DejaVuSans-Bold-20" transform="translate(1572.314453 0)"/>
     <use xlink:href="#DejaVuSans-Bold-74" transform="translate(1607.128906 0)"/>
     <use xlink:href="#DejaVuSans-Bold-65" transform="translate(1654.931641 0)"/>
     <use xlink:href="#DejaVuSans-Bold-63" transform="translate(1722.753906 0)"/>
     <use xlink:href="#DejaVuSans-Bold-6e" transform="translate(1782.03125 0)"/>
     <use xlink:href="#DejaVuSans-Bold-6f" transform="translate(1853.222656 0)"/>
     <use xlink:href="#DejaVuSans-Bold-6c" transform="translate(1921.923828 0)"/>
     <use xlink:href="#DejaVuSans-Bold-6f" transform="translate(1956.201172 0)"/>
     <use xlink:href="#DejaVuSans-Bold-67" transform="translate(2024.902344 0)"/>
     <use xlink:href="#DejaVuSans-Bold-ed" transform="translate(2096.484375 0)"/>
     <use xlink:href="#DejaVuSans-Bold-61" transform="translate(2130.761719 0)"/>
    </g>
   </g>
   <g id="legend_1">
    <g id="patch_5">
     <path d="M 548.77125 80.539531 
L 700.502813 80.539531 
Q 701.902812 80.539531 701.902812 79.139531 
L 701.902812 26.898281 
Q 701.902812 25.498281 700.502813 25.498281 
L 548.77125 25.498281 
Q 547.37125 25.498281 547.37125 26.898281 
L 547.37125 79.139531 
Q 547.37125 80.539531 548.77125 80.539531 
z
" style="fill: #ffffff; opacity: 0.9; stroke: #cccccc; stroke-linejoin: miter"/>
    </g>
    <g id="text_17">
     <!-- Tecnología -->
     <g style="fill: #003366" transform="translate(603.570156 34.697031) scale(0.08 -0.08)">
      <defs>
       <path id="DejaVuSans-54" d="M -19 4666 
L 3928 4666 
L 3928 4134 
L 2272 4134 
L 2272 0 
L 1638 0 
L 1638 4134 
L -19 4134 
L -19 4666 
z
" transform="scale(0.015625)"/>
       <path id="DejaVuSans-67" d="M 2906 1791 
Q 2906 2416 2648 2759 
Q 2391 3103 1925 3103 
Q 1463 3103 1205 2759 
Q 947 2416 947 1791 
Q 947 1169 1205 825 
Q 1463 481 1925 481 
Q 2391 481 2648 825 
Q 2906 1169 2906 1791 
z
M 3481 434 
Q 3481 -459 3084 -895 
Q 2688 -1331 1869 -1331 
Q 1566 -1331 1297 -1286 
Q 1028 -1241 775 -1147 
L 775 -588 
Q 1028 -725 1275 -790 
Q 1522 -856 1778 -856 
Q 2344 -856 2625 -561 
Q 2906 -266 2906 331 
L 2906 616 
Q 2728 306 2450 153 
Q 2172 0 1784 0 
Q 1141 0 747 490 
Q 353 981 353 1791 
Q 353 2603 747 3093 
Q 1141 3584 1784 3584 
Q 2172 3584 2450 3431 
Q 2728 3278 2906 2969 
L 2906 3500 
L 3481 3500 
L 3481 434 
z
" transform="scale(0.015625)"/>
      </defs>
      <use xlink:href="#DejaVuSans-54"/>
      <use xlink:href="#DejaVuSans-65" transform="translate(44.083984 0)"/>
      <use xlink:href="#DejaVuSans-63" transform="translate(105.607422 0)"/>
      <use xlink:href="#DejaVuSans-6e" transform="translate(160.587891 0)"/>
      <use xlink:href="#DejaVuSans-6f" transform="translate(223.966797 0)"/>
      <use xlink:href="#DejaVuSans-6c" transform="translate(285.148438 0)"/>
      <use xlink:href="#DejaVuSans-6f" transform="translate(312.931641 0)"/>
      <use xlink:href="#DejaVuSans-67" transform="translate(374.113281 0)"/>
      <use xlink:href="#DejaVuSans-ed" transform="translate(437.589844 0)"/>
      <use xlink:href="#DejaVuSans-61" transform="translate(465.373047 0)"/>
     </g>
    </g>
    <g id="patch_6">
     <path d="M 550.17125 45.459687 
L 564.17125 45.459687 
L 564.17125 40.559687 
L 550.17125 40.559687 
z
" style="fill: #f6c48e; fill-opacity: 0.95; stroke: #ffffff; stroke-opacity: 0.95; stroke-width: 0.6; stroke-linejoin: miter"/>
    </g>
    <g id="text_18">
     <!-- Solar -->
     <g style="fill: #003366" transform="translate(569.77125 45.459687) scale(0.07 -0.07)">
      <defs>
       <path id="DejaVuSans-53" d="M 3425 4513 
L 3425 3897 
Q 3066 4069 2747 4153 
Q 2428 4238 2131 4238 
Q 1616 4238 1336 4038 
Q 1056 3838 1056 3469 
Q 1056 3159 1242 3001 
Q 1428 2844 1947 2747 
L 2328 2669 
Q 3034 2534 3370 2195 
Q 3706 1856 3706 1288 
Q 3706 609 3251 259 
Q 2797 -91 1919 -91 
Q 1588 -91 1214 -16 
Q 841 59 441 206 
L 441 856 
Q 825 641 1194 531 
Q 1563 422 1919 422 
Q 2459 422 2753 634 
Q 3047 847 3047 1241 
Q 3047 1584 2836 1778 
Q 2625 1972 2144 2069 
L 1759 2144 
Q 1053 2284 737 2584 
Q 422 2884 422 3419 
Q 422 4038 858 4394 
Q 1294 4750 2059 4750 
Q 2388 4750 2728 4690 
Q 3069 4631 3425 4513 
z
" transform="scale(0.015625)"/>
      </defs>
      <use xlink:href="#DejaVuSans-53"/>
      <use xlink:href="#DejaVuSans-6f" transform="translate(63.476562 0)"/>
      <use xlink:href="#DejaVuSans-6c" transform="translate(124.658203 0)"/>
      <use xlink:href="#DejaVuSans-61" transform="translate(152.441406 0)"/>
      <use xlink:href="#DejaVuSans-72" transform="translate(213.720703 0)"/>
     </g>
    </g>
    <g id="patch_7">
     <path d="M 550.17125 55.734375 
L 564.17125 55.734375 
L 564.17125 50.834375 
L 550.17125 50.834375 
z
" style="fill: #a8d5ba; fill-opacity: 0.95; stroke: #ffffff; stroke-opacity: 0.95; stroke-width: 0.6; stroke-linejoin: miter"/>
    </g>
    <g id="text_19">
     <!-- Eólica -->
     <g style="fill: #003366" transform="translate(569.77125 55.734375) scale(0.07 -0.07)">
      <defs>
       <path id="DejaVuSans-45" d="M 628 4666 
L 3578 4666 
L 3578 4134 
L 1259 4134 
L 1259 2753 
L 3481 2753 
L 3481 2222 
L 1259 2222 
L 1259 531 
L 3634 531 
L 3634 0 
L 628 0 
L 628 4666 
z
" transform="scale(0.015625)"/>
      </defs>
      <use xlink:href="#DejaVuSans-45"/>
      <use xlink:href="#DejaVuSans-f3" transform="translate(63.183594 0)"/>
      <use xlink:href="#DejaVuSans-6c" transform="translate(124.365234 0)"/>
      <use xlink:href="#DejaVuSans-69" transform="translate(152.148438 0)"/>
      <use xlink:href="#DejaVuSans-63" transform="translate(179.931641 0)"/>
      <use xlink:href="#DejaVuSans-61" transform="translate(234.912109 0)"/>
     </g>
    </g>
    <g id="patch_8">
     <path d="M 550.17125 66.009062 
L 564.17125 66.009062 
L 564.17125 61.109062 
L 550.17125 61.109062 
z
" style="fill: #8ec5ff; fill-opacity: 0.95; stroke: #ffffff; stroke-opacity: 0.95; stroke-width: 0.6; stroke-linejoin: miter"/>
    </g>
    <g id="text_20">
     <!-- Hidro -->
     <g style="fill: #003366" transform="translate(569.77125 66.009062) scale(0.07 -0.07)">
      <use xlink:href="#DejaVuSans-48"/>
      <use xlink:href="#DejaVuSans-69" transform="translate(75.195312 0)"/>
      <use xlink:href="#DejaVuSans-64" transform="translate(102.978516 0)"/>
      <use xlink:href="#DejaVuSans-72" transform="translate(166.455078 0)"/>
      <use xlink:href="#DejaVuSans-6f" transform="translate(205.318359 0)"/>
     </g>
    </g>
    <g id="patch_9">
     <path d="M 550.17125 76.28375 
L 564.17125 76.28375 
L 564.17125 71.38375 
L 550.17125 71.38375 
z
" style="fill: #d9c2a3; fill-opacity: 0.95; stroke: #ffffff; stroke-opacity: 0.95; stroke-width: 0.6; stroke-linejoin: miter"/>
    </g>
    <g id="text_21">
     <!-- Geotérmica -->
     <g style="fill: #003366" transform="translate(569.77125 76.28375) scale(0.07 -0.07)">
      <defs>
       <path id="DejaVuSans-74" d="M 1172 4494 
L 1172 3500 
L 2356 3500 
L 2356 3053 
L 1172 3053 
L 1172 1153 
Q 1172 725 1289 603 
Q 1406 481 1766 481 
L 2356 481 
L 2356 0 
L 1766 0 
Q 1100 0 847 248 
Q 594 497 594 1153 
L 594 3053 
L 172 3053 
L 172 3500 
L 594 3500 
L 594 4494 
L 1172 4494 
z
" transform="scale(0.015625)"/>
       <path id="DejaVuSans-e9" d="M 3597 1894 
L 3597 1613 
L 953 1613 
Q 991 1019 1311 708 
Q 1631 397 2203 397 
Q 2534 397 2845 478 
Q 3156 559 3463 722 
L 3463 178 
Q 3153 47 2828 -22 
Q 2503 -91 2169 -91 
Q 1331 -91 842 396 
Q 353 884 353 1716 
Q 353 2575 817 3079 
Q 1281 3584 2069 3584 
Q 2775 3584 3186 3129 
Q 3597 2675 3597 1894 
z
M 3022 2063 
Q 3016 2534 2758 2815 
Q 2500 3097 2075 3097 
Q 1594 3097 1305 2825 
Q 1016 2553 972 2059 
L 3022 2063 
z
M 2466 5119 
L 3088 5119 
L 2070 3944 
L 1591 3944 
L 2466 5119 
z
" transform="scale(0.015625)"/>
       <path id="DejaVuSans-6d" d="M 3328 2828 
Q 3544 3216 3844 3400 
Q 4144 3584 4550 3584 
Q 5097 3584 5394 3201 
Q 5691 2819 5691 2113 
L 5691 0 
L 5113 0 
L 5113 2094 
Q 5113 2597 4934 2840 
Q 4756 3084 4391 3084 
Q 3944 3084 3684 2787 
Q 3425 2491 3425 1978 
L 3425 0 
L 2847 0 
L 2847 2094 
Q 2847 2600 2669 2842 
Q 2491 3084 2119 3084 
Q 1678 3084 1418 2786 
Q 1159 2488 1159 1978 
L 1159 0 
L 581 0 
L 581 3500 
L 1159 3500 
L 1159 2956 
Q 1356 3278 1631 3431 
Q 1906 3584 2284 3584 
Q 2666 3584 2933 3390 
Q 3200 3197 3328 2828 
z
" transform="scale(0.015625)"/>
      </defs>
      <use xlink:href="#DejaVuSans-47"/>
      <use xlink:href="#DejaVuSans-65" transform="translate(77.490234 0)"/>
      <use xlink:href="#DejaVuSans-6f" transform="translate(139.013672 0)"/>
      <use xlink:href="#DejaVuSans-74" transform="translate(200.195312 0)"/>
      <use xlink:href="#DejaVuSans-e9" transform="translate(239.404297 0)"/>
      <use xlink:href="#DejaVuSans-72" transform="translate(300.927734 0)"/>
      <use xlink:href="#DejaVuSans-6d" transform="translate(340.291016 0)"/>
      <use xlink:href="#DejaVuSans-69" transform="translate(437.703125 0)"/>
      <use xlink:href="#DejaVuSans-63" transform="translate(465.486328 0)"/>
      <use xlink:href="#DejaVuSans-61" transform="translate(520.466797 0)"/>
     </g>
    </g>
    <g id="patch_10">
     <path d="M 624.49375 45.459687 
L 638.49375 45.459687 
L 638.49375 40.559687 
L 624.49375 40.559687 
z
" style="fill: #d96c6c; fill-opacity: 0.95; stroke: #ffffff; stroke-opacity: 0.95; stroke-width: 0.6; stroke-linejoin: miter"/>
    </g>
    <g id="text_22">
     <!-- BESS Inyección -->
     <g style="fill: #003366" transform="translate(644.09375 45.459687) scale(0.07 -0.07)">
      <defs>
       <path id="DejaVuSans-42" d="M 1259 2228 
L 1259 519 
L 2272 519 
Q 2781 519 3026 730 
Q 3272 941 3272 1375 
Q 3272 1813 3026 2020 
Q 2781 2228 2272 2228 
L 1259 2228 
z
M 1259 4147 
L 1259 2741 
L 2194 2741 
Q 2656 2741 2882 2914 
Q 3109 3088 3109 3444 
Q 3109 3797 2882 3972 
Q 2656 4147 2194 4147 
L 1259 4147 
z
M 628 4666 
L 2241 4666 
Q 2963 4666 3353 4366 
Q 3744 4066 3744 3513 
Q 3744 3084 3544 2831 
Q 3344 2578 2956 2516 
Q 3422 2416 3680 2098 
Q 3938 1781 3938 1306 
Q 3938 681 3513 340 
Q 3088 0 2303 0 
L 628 0 
L 628 4666 
z
" transform="scale(0.015625)"/>
       <path id="DejaVuSans-49" d="M 628 4666 
L 1259 4666 
L 1259 0 
L 628 0 
L 628 4666 
z
" transform="scale(0.015625)"/>
       <path id="DejaVuSans-79" d="M 2059 -325 
Q 1816 -950 1584 -1140 
Q 1353 -1331 966 -1331 
L 506 -1331 
L 506 -850 
L 844 -850 
Q 1081 -850 1212 -737 
Q 1344 -625 1503 -206 
L 1606 56 
L 191 3500 
L 800 3500 
L 1894 763 
L 2988 3500 
L 3597 3500 
L 2059 -325 
z
" transform="scale(0.015625)"/>
      </defs>
      <use xlink:href="#DejaVuSans-42"/>
      <use xlink:href="#DejaVuSans-45" transform="translate(68.603516 0)"/>
      <use xlink:href="#DejaVuSans-53" transform="translate(131.787109 0)"/>
      <use xlink:href="#DejaVuSans-53" transform="translate(195.263672 0)"/>
      <use xlink:href="#DejaVuSans-20" transform="translate(258.740234 0)"/>
      <use xlink:href="#DejaVuSans-49" transform="translate(290.527344 0)"/>
      <use xlink:href="#DejaVuSans-6e" transform="translate(320.019531 0)"/>
      <use xlink:href="#DejaVuSans-79" transform="translate(383.398438 0)"/>
      <use xlink:href="#DejaVuSans-65" transform="translate(442.578125 0)"/>
      <use xlink:href="#DejaVuSans-63" transform="translate(504.101562 0)"/>
      <use xlink:href="#DejaVuSans-63" transform="translate(559.082031 0)"/>
      <use xlink:href="#DejaVuSans-69" transform="translate(614.0625 0)"/>
      <use xlink:href="#DejaVuSans-f3" transform="translate(641.845703 0)"/>
      <use xlink:href="#DejaVuSans-6e" transform="translate(703.027344 0)"/>
     </g>
    </g>
    <g id="patch_11">
     <path d="M 624.49375 55.734375 
L 638.49375 55.734375 
L 638.49375 50.834375 
L 624.49375 50.834375 
z
" style="fill: #d9e2ec; fill-opacity: 0.95; stroke: #ffffff; stroke-opacity: 0.95; stroke-width: 0.6; stroke-linejoin: miter"/>
    </g>
    <g id="text_23">
     <!-- Termoeléctricas -->
     <g style="fill: #003366" transform="translate(644.09375 55.734375) scale(0.07 -0.07)">
      <defs>
       <path id="DejaVuSans-73" d="M 2834 3397 
L 2834 2853 
Q 2591 2978 2328 3040 
Q 2066 3103 1784 3103 
Q 1356 3103 1142 2972 
Q 928 2841 928 2578 
Q 928 2378 1081 2264 
Q 1234 2150 1697 2047 
L 1894 2003 
Q 2506 1872 2764 1633 
Q 3022 1394 3022 966 
Q 3022 478 2636 193 
Q 2250 -91 1575 -91 
Q 1294 -91 989 -36 
Q 684 19 347 128 
L 347 722 
Q 666 556 975 473 
Q 1284 391 1588 391 
Q 1994 391 2212 530 
Q 2431 669 2431 922 
Q 2431 1156 2273 1281 
Q 2116 1406 1581 1522 
L 1381 1569 
Q 847 1681 609 1914 
Q 372 2147 372 2553 
Q 372 3047 722 3315 
Q 1072 3584 1716 3584 
Q 2034 3584 2315 3537 
Q 2597 3491 2834 3397 
z
" transform="scale(0.015625)"/>
      </defs>
      <use xlink:href="#DejaVuSans-54"/>
      <use xlink:href="#DejaVuSans-65" transform="translate(44.083984 0)"/>
      <use xlink:href="#DejaVuSans-72" transform="translate(105.607422 0)"/>
      <use xlink:href="#DejaVuSans-6d" transform="translate(144.970703 0)"/>
      <use xlink:href="#DejaVuSans-6f" transform="translate(242.382812 0)"/>
      <use xlink:href="#DejaVuSans-65" transform="translate(303.564453 0)"/>
      <use xlink:href="#DejaVuSans-6c" transform="translate(365.087891 0)"/>
      <use xlink:href="#DejaVuSans-e9" transform="translate(392.871094 0)"/>
      <use xlink:href="#DejaVuSans-63" transform="translate(454.394531 0)"/>
      <use xlink:href="#DejaVuSans-74" transform="translate(509.375 0)"/>
      <use xlink:href="#DejaVuSans-72" transform="translate(548.583984 0)"/>
      <use xlink:href="#DejaVuSans-69" transform="translate(589.697266 0)"/>
      <use xlink:href="#DejaVuSans-63" transform="translate(617.480469 0)"/>
      <use xlink:href="#DejaVuSans-61" transform="translate(672.460938 0)"/>
      <use xlink:href="#DejaVuSans-73" transform="translate(733.740234 0)"/>
     </g>
    </g>
    <g id="patch_12">
     <path d="M 624.49375 66.009062 
L 638.49375 66.009062 
L 638.49375 61.109062 
L 624.49375 61.109062 
z
" style="fill: #6fa8dc; fill-opacity: 0.95; stroke: #ffffff; stroke-opacity: 0.95; stroke-width: 0.6; stroke-linejoin: miter"/>
    </g>
    <g id="text_24">
     <!-- BESS Retiro -->
     <g style="fill: #003366" transform="translate(644.09375 66.009062) scale(0.07 -0.07)">
      <defs>
       <path id="DejaVuSans-52" d="M 2841 2188 
Q 3044 2119 3236 1894 
Q 3428 1669 3622 1275 
L 4263 0 
L 3584 0 
L 2988 1197 
Q 2756 1666 2539 1819 
Q 2322 1972 1947 1972 
L 1259 1972 
L 1259 0 
L 628 0 
L 628 4666 
L 2053 4666 
Q 2853 4666 3247 4331 
Q 3641 3997 3641 3322 
Q 3641 2881 3436 2590 
Q 3231 2300 2841 2188 
z
M 1259 4147 
L 1259 2491 
L 2053 2491 
Q 2509 2491 2742 2702 
Q 2975 2913 2975 3322 
Q 2975 3731 2742 3939 
Q 2509 4147 2053 4147 
L 1259 4147 
z
" transform="scale(0.015625)"/>
      </defs>
      <use xlink:href="#DejaVuSans-42"/>
      <use xlink:href="#DejaVuSans-45" transform="translate(68.603516 0)"/>
      <use xlink:href="#DejaVuSans-53" transform="translate(131.787109 0)"/>
      <use xlink:href="#DejaVuSans-53" transform="translate(195.263672 0)"/>
      <use xlink:href="#DejaVuSans-20" transform="translate(258.740234 0)"/>
      <use xlink:href="#DejaVuSans-52" transform="translate(290.527344 0)"/>
      <use xlink:href="#DejaVuSans-65" transform="translate(355.509766 0)"/>
      <use xlink:href="#DejaVuSans-74" transform="translate(417.033203 0)"/>
      <use xlink:href="#DejaVuSans-69" transform="translate(456.242188 0)"/>
      <use xlink:href="#DejaVuSans-72" transform="translate(484.025391 0)"/>
      <use xlink:href="#DejaVuSans-6f" transform="translate(522.888672 0)"/>
     </g>
    </g>
   </g>
  </g>
 </g>
 <defs>
  <clipPath id="p9f594f5b7e">
   <rect x="57.402813" y="21.998281" width="648" height="230.4"/>
  </clipPath>
 </defs>
</svg>
