<?xml version="1.0" encoding="UTF-8"?>
<svg version="1.1" xmlns="http://www.w3.org/2000/svg" width="1247" height="1133">
<path d="M0 0 C411.51 0 823.02 0 1247 0 C1247 373.89 1247 747.78 1247 1133 C835.49 1133 423.98 1133 0 1133 C0 759.11 0 385.22 0 0 Z " fill="#EB3C46" transform="translate(0,0)"/>
<path d="M0 0 C168.63 0 337.26 0 511 0 C511 373.89 511 747.78 511 1133 C342.37 1133 173.74 1133 0 1133 C0 759.11 0 385.22 0 0 Z " fill="#0F69B4" transform="translate(0,0)"/>
<path d="M0 0 C0.99 0 1.98 0 3 0 C3 1.32 3 2.64 3 4 C4.98 3.67 6.96 3.34 9 3 C9 4.32 9 5.64 9 7 C9.99 7 10.98 7 12 7 C12 6.34 12 5.68 12 5 C12.99 5.33 13.98 5.66 15 6 C15 7.32 15 8.64 15 10 C16.65 9.34 18.3 8.68 20 8 C21.1898617 11.56958511 20.71536834 13.03799411 19.75 16.625 C19.49734375 17.60726562 19.2446875 18.58953125 18.984375 19.6015625 C18.49710937 20.78878906 18.49710937 20.78878906 18 22 C17.01 22.33 16.02 22.66 15 23 C15.33 23.66 15.66 24.32 16 25 C16.81108303 32.15348642 15.64651238 36.84651037 12 43 C12.639375 43.309375 13.27875 43.61875 13.9375 43.9375 C16 45 16 45 17 46 C17.09851171 47.83115883 17.12972629 49.66619933 17.125 51.5 C17.12757813 52.5003125 17.13015625 53.500625 17.1328125 54.53125 C17 57 17 57 16 58 C19.63 58 23.26 58 27 58 C26.67 56.68 26.34 55.36 26 54 C25.70738679 50.04972164 25.60545977 47.70779328 27.5546875 44.2109375 C29.3065902 40.31887259 28.98943488 38.18182548 28.375 34 C27.64277079 26.30345745 27.64277079 26.30345745 30 23.125 C33.73590726 20.47873236 35.50838351 20.27813306 40 21 C46.92842987 23.77137195 51.59469038 30.66880895 54.6875 37.1875 C60.66445323 51.39501178 64.05552748 66.5244944 65.6875 81.8125 C65.81415039 82.99884033 65.94080078 84.18518066 66.07128906 85.4074707 C67.47265485 99.93766972 67.31916125 114.42426502 67 129 C66.98984863 129.8559375 66.97969727 130.711875 66.96923828 131.59375 C66.69546421 153.11143117 62.76741483 177.23616658 54 197 C52.35 196.67 50.7 196.34 49 196 C47.39002906 191.52290414 46.32905297 187.07729113 45.52734375 182.3984375 C45.33615211 181.29766373 45.33615211 181.29766373 45.14109802 180.1746521 C43.45907626 170.17506778 42.39066413 160.09175571 41.27319336 150.01660156 C40.20255483 140.43389231 38.94118175 130.96655761 36.96484375 121.5234375 C36.80085587 120.73877106 36.63686798 119.95410461 36.46791077 119.1456604 C35.62226122 115.28537515 34.76014379 111.56488074 33 108 C32.34 107.67 31.68 107.34 31 107 C30.6596875 108.36125 30.6596875 108.36125 30.3125 109.75 C28.79328824 113.5118577 27.42201175 114.88161177 24 117 C22.68 117 21.36 117 20 117 C21.5400128 123.85713564 23.43057 130.53330279 25.69921875 137.1796875 C25.94060577 137.88732239 26.1819928 138.59495728 26.43069458 139.32403564 C27.43504929 142.25432125 28.44617496 145.18216603 29.46508789 148.10742188 C30.2177715 150.27469319 30.95911369 152.44559427 31.69921875 154.6171875 C32.04601936 155.59702103 32.04601936 155.59702103 32.39982605 156.59664917 C33.72319866 160.50305597 34.51250154 163.87959339 34 168 C30.42129642 170.38580239 27.76873837 170.38278167 23.625 170.375 C22.92052734 170.37628906 22.21605469 170.37757813 21.49023438 170.37890625 C14.5209215 170.24090005 8.51194066 168.49773066 2 166 C1.95101563 166.68707031 1.90203125 167.37414062 1.8515625 168.08203125 C1.77679688 168.98308594 1.70203125 169.88414062 1.625 170.8125 C1.55539062 171.70582031 1.48578125 172.59914063 1.4140625 173.51953125 C1 176 1 176 -1 179 C-1.99 179 -2.98 179 -4 179 C-0.6410198 187.01444825 3.73713705 190.41022525 11.3125 194.375 C12.22451172 194.88160156 13.13652344 195.38820313 14.07617188 195.91015625 C19.26256294 198.74315266 24.41434638 201.07481575 30 203 C31.1433292 198.61311435 31.59032159 194.52302741 31 190 C28.85229792 186.69584296 27.58874809 186.13586494 23.75 185.25 C22.8425 185.1675 21.935 185.085 21 185 C21 185.66 21 186.32 21 187 C22.32 187.33 23.64 187.66 25 188 C24.125 192.875 24.125 192.875 23 194 C19.5 193.6875 19.5 193.6875 16 193 C14.43569752 189.87139505 14.64372716 187.44397075 15 184 C17.69119774 180.81949359 19.30566943 180.08836934 23.4375 179.5625 C28.6667688 180.2046909 31.77177045 181.63898888 35.3125 185.5625 C38.18753036 189.71532164 38.31820331 193.03977189 38 198 C37.69841975 199.34087219 37.37364975 200.67739849 37 202 C37.75925781 201.96519531 38.51851563 201.93039062 39.30078125 201.89453125 C40.29464844 201.86746094 41.28851563 201.84039062 42.3125 201.8125 C43.29863281 201.77769531 44.28476562 201.74289062 45.30078125 201.70703125 C48 202 48 202 49.86328125 203.3203125 C51 205 51 205 50.875 208.0625 C50 211 50 211 47 213 C44.4375 212.9375 44.4375 212.9375 42 212 C40.6875 209.4375 40.6875 209.4375 40 207 C39.236875 207.33 38.47375 207.66 37.6875 208 C35 209 35 209 32 209 C32 209.66 32 210.32 32 211 C45.74985247 216.57019571 60.47719734 220.35687674 75.0390625 215.0390625 C78.54151054 213.18318366 79.99911254 211.46820493 82 208 C82.41904703 204.24797733 82.41904703 204.24797733 82 201 C79.67642489 200.81509993 79.67642489 200.81509993 77 203 C73.375 202.75 73.375 202.75 70 202 C68.60064987 199.20129973 68.74734595 197.09501208 69 194 C70 192.125 70 192.125 72 191 C76.87412008 190.44067474 79.02643246 190.47715817 83.375 192.8125 C86 195 86 195 88 198 C88.33333333 204.33333333 88.33333333 204.33333333 87 207 C87.61488281 206.96519531 88.22976563 206.93039062 88.86328125 206.89453125 C89.67152344 206.86746094 90.47976563 206.84039062 91.3125 206.8125 C92.11300781 206.77769531 92.91351563 206.74289062 93.73828125 206.70703125 C96 207 96 207 97.80859375 208.34765625 C99 210 99 210 98.75 212.625 C98 215 98 215 97 216 C95.33394172 216.0450286 93.66621616 216.03874921 92 216 C87.67080996 216 87.32281275 216.20314868 84.25 218.8125 C75.80806347 225.49044979 66.4693844 226.63559837 56 226 C40.97444414 224.14099252 30.01194484 217.43936584 18.97265625 207.55078125 C13.45405385 202.50780455 13.45405385 202.50780455 6.5 201.125 C3.26035804 201.93491049 0.13554681 202.85284873 -3 204 C-3.08636719 204.75023437 -3.17273438 205.50046875 -3.26171875 206.2734375 C-4.17978503 212.96100291 -5.66158874 218.05756385 -9.171875 223.84375 C-10.24611659 225.99013763 -10.24611659 225.99013763 -9.3515625 228.21875 C-8.00268621 230.36149347 -8.00268621 230.36149347 -4.625 231 C-1.00960717 231.3292638 -1.00960717 231.3292638 1.5 229.375 C3.23362193 227.09826954 3.23362193 227.09826954 3 224.375 C2.20423043 221.85506227 2.20423043 221.85506227 -0.0625 220.6875 C-0.701875 220.460625 -1.34125 220.23375 -2 220 C-1.34 220.99 -0.68 221.98 0 223 C-0.375 225.6875 -0.375 225.6875 -1 228 C-2.32 228 -3.64 228 -5 228 C-6.44230769 221.75 -6.44230769 221.75 -4.5625 218.5625 C-0.76314859 216.24582231 1.57806732 216.50867415 6 217 C7.9375 218 7.9375 218 9 220 C10.17115588 224.76270057 10.57431709 226.80542045 8.4375 231.25 C5.05824582 235.06249189 2.52380545 237.71073863 -2.7265625 238.3125 C-10.29171995 238.4721867 -10.29171995 238.4721867 -14 236 C-14 235.34 -14 234.68 -14 234 C-14.65226562 234.40992188 -15.30453125 234.81984375 -15.9765625 235.2421875 C-16.85054688 235.78101563 -17.72453125 236.31984375 -18.625 236.875 C-19.48351562 237.40867187 -20.34203125 237.94234375 -21.2265625 238.4921875 C-31.13358076 243.87825658 -42.47917813 243.02254055 -53.08984375 240.06640625 C-58.02866567 238.25660976 -62.51553123 235.72775758 -67 233 C-67.21076172 233.93585938 -67.21076172 233.93585938 -67.42578125 234.890625 C-68.13726023 237.50422125 -68.76642953 238.45960657 -71 240 C-74.5572204 240.52979878 -76.31593299 240.43204232 -79.375 238.5 C-81.80664499 234.75900771 -81.49174842 232.42573582 -81 228 C-79.4040957 225.77785478 -78.49903466 225.09838872 -75.80078125 224.56640625 C-68.06482392 224.55426189 -63.33140606 226.77906263 -57 231 C-57.433125 230.11248047 -57.433125 230.11248047 -57.875 229.20703125 C-58.24625 228.41683594 -58.6175 227.62664062 -59 226.8125 C-59.37125 226.03519531 -59.7425 225.25789062 -60.125 224.45703125 C-61.0713851 221.7995481 -61.06518071 219.7966598 -61 217 C-61.60884033 217.06058594 -62.21768066 217.12117187 -62.8449707 217.18359375 C-65.66696964 217.46122868 -68.48969948 217.73064186 -71.3125 218 C-72.74819336 218.14308594 -72.74819336 218.14308594 -74.21289062 218.2890625 C-80.82919335 218.91282168 -87.35585795 219.11706307 -94 219 C-93.00162039 224.75477708 -92.29527647 227.85283651 -88 232 C-88.2966474 236.32363585 -90.06856517 238.94529808 -92.6875 242.3125 C-93.35136719 243.19550781 -94.01523437 244.07851563 -94.69921875 244.98828125 C-97 247 -97 247 -99.99609375 247.6171875 C-104.07334152 246.77946949 -105.04043266 245.19806988 -107.375 241.8125 C-108.06335938 240.84957031 -108.75171875 239.88664063 -109.4609375 238.89453125 C-111.06393868 235.87974984 -111.61252343 234.34576478 -111 231 C-110.01 230.34 -109.02 229.68 -108 229 C-107.20201782 226.58392583 -107.20201782 226.58392583 -106.8125 223.875 C-106.65394531 222.96492187 -106.49539062 222.05484375 -106.33203125 221.1171875 C-106.22246094 220.41851562 -106.11289063 219.71984375 -106 219 C-106.70640625 219.02320313 -107.4128125 219.04640625 -108.140625 219.0703125 C-118.52405552 219.25293565 -128.69261774 218.15097389 -139 217 C-138.9690625 217.91007813 -138.938125 218.82015625 -138.90625 219.7578125 C-139.02678842 223.9264328 -140.2137496 226.278645 -142 230 C-141.39414063 229.6390625 -140.78828125 229.278125 -140.1640625 228.90625 C-134.10281849 225.54925332 -128.96066038 223.64089296 -122 225 C-119.375 226.625 -119.375 226.625 -118 229 C-117.4375 231.9375 -117.4375 231.9375 -118 235 C-120.0625 237.9375 -120.0625 237.9375 -123 240 C-126.65174892 240 -128.93612554 239.75500768 -131.9375 237.625 C-133 236 -133 236 -133 233 C-133.65484375 233.39832031 -134.3096875 233.79664063 -134.984375 234.20703125 C-146.11543211 240.66870423 -157.08802819 243.38935837 -170 242 C-175.42654718 240.52594458 -180.32135379 238.11909747 -185 235 C-185.54914063 235.48597656 -186.09828125 235.97195313 -186.6640625 236.47265625 C-190.77618778 239.16135355 -195.26147438 238.61806856 -200 238 C-204.4331235 235.86260117 -207.12530646 233.5825842 -209 229 C-209.5340329 225.2840211 -209.4129812 222.032453 -208 218.5 C-205.39469356 216.54602017 -203.14805458 216.44002461 -199.94140625 216.6171875 C-198 217 -198 217 -195.5 218.625 C-193.62043164 221.60098323 -193.68575493 223.54330418 -194 227 C-195.65 227.33 -197.3 227.66 -199 228 C-199.625 225.625 -199.625 225.625 -200 223 C-199.34 222.34 -198.68 221.68 -198 221 C-199.32 221.33 -200.64 221.66 -202 222 C-202.30977972 226.13108746 -202.30977972 226.13108746 -200.9375 229.9375 C-197.75043615 231.68524469 -195.39721645 230.92651358 -192 230 C-190.50521515 228.30271306 -190.50521515 228.30271306 -190 226 C-190.79043131 223.48983757 -190.79043131 223.48983757 -192.25 220.9375 C-195.00329251 215.3708977 -196.20561696 210.12979148 -197 204 C-198.39006515 203.46396181 -199.78742649 202.94682527 -201.1875 202.4375 C-201.96480469 202.14746094 -202.74210937 201.85742188 -203.54296875 201.55859375 C-206.54877688 200.87523833 -208.07386646 201.00405696 -211 202 C-213.2124149 203.50421551 -215.24653441 205.00660093 -217.3125 206.6875 C-218.46864596 207.6003922 -219.62489563 208.51315306 -220.78125 209.42578125 C-221.85449607 210.28344213 -222.92744278 211.14147783 -224 212 C-237.99154827 223.07664238 -252.00206634 227.32198883 -270 226 C-277.56525167 224.29602201 -283.20575181 219.98249361 -289 215 C-289.66 215.33 -290.32 215.66 -291 216 C-294.0625 216.125 -294.0625 216.125 -297 216 C-298 215 -298 215 -298.1875 212.0625 C-298 209 -298 209 -296 207 C-293.8359375 206.8046875 -293.8359375 206.8046875 -291.375 206.875 C-290.55773437 206.89304687 -289.74046875 206.91109375 -288.8984375 206.9296875 C-288.27195312 206.95289063 -287.64546875 206.97609375 -287 207 C-287.33 206.34 -287.66 205.68 -288 205 C-288.44408691 201.0920352 -288.13704844 199.25451854 -286.25 195.75 C-283.59334859 192.50298161 -282.24645969 191.29705252 -278.109375 190.75 C-274.49489799 190.53580877 -272.54942106 190.65158664 -269.4375 192.625 C-268 195 -268 195 -268.0625 198.125 C-269 201 -269 201 -272 203 C-275.21390677 203.41203933 -276.56674522 203.28103013 -279.3125 201.5 C-280.1478125 200.7575 -280.1478125 200.7575 -281 200 C-282.36222307 201.15016254 -282.36222307 201.15016254 -282.3125 204.25 C-281.93273702 208.80715579 -281.46031048 210.02252354 -278 213 C-266.83166629 219.20237771 -253.49803139 218.1430381 -241.55078125 214.94921875 C-238.79966744 213.92545052 -236.50205824 212.52169471 -234 211 C-233.34 211 -232.68 211 -232 211 C-232 210.34 -232 209.68 -232 209 C-234.64 208.34 -237.28 207.68 -240 207 C-240.66 208.65 -241.32 210.3 -242 212 C-244.31 212 -246.62 212 -249 212 C-250.38125018 209.23749964 -250.19079306 207.05268901 -250 204 C-249.34 203.34 -248.68 202.68 -248 202 C-246.68 202 -245.36 202 -244 202 C-245.52206009 199.37098712 -246.84365964 197.15634036 -249 195 C-249.3700726 192.78250147 -249.6459779 190.54897096 -249.875 188.3125 C-250.65003239 181.43597073 -252.20635435 175.05768188 -254.1953125 168.4375 C-255.06971947 164.70216926 -255.48969104 161.81513838 -255 158 C-252.8125 155.55859375 -252.8125 155.55859375 -250 153.4375 C-245.97789875 150.53083203 -245.97789875 150.53083203 -244.51171875 146.01953125 C-245.04434049 142.72579839 -245.894443 140.9567471 -247.8125 138.25 C-248.59560547 137.11304688 -248.59560547 137.11304688 -249.39453125 135.953125 C-251.03097919 133.76951952 -251.03097919 133.76951952 -254 132 C-256.36034142 132.16481556 -256.36034142 132.16481556 -258.875 132.6875 C-262.71741722 133.13690552 -263.65082968 133.20251879 -267.125 131.1875 C-269.71897052 126.77775012 -269.95342089 123.00335031 -269 118 C-267 115.375 -267 115.375 -265 114 C-264.01 114.33 -263.02 114.66 -262 115 C-262.33 118.63 -262.66 122.26 -263 126 C-260.36 125.67 -257.72 125.34 -255 125 C-255.12375 123.68 -255.2475 122.36 -255.375 121 C-255.25124866 111.02254803 -245.26987678 103.91444373 -238.5859375 97.390625 C-234.81933382 93.78154472 -230.876658 90.45068534 -226.78515625 87.21484375 C-223.58622287 84.67095143 -220.48157897 82.0300727 -217.375 79.375 C-212.35914855 75.10366583 -207.25371444 70.97761842 -202 67 C-202.43192049 61.71411597 -205.35390465 58.2693231 -208.375 54.125 C-213.93943422 46.45941224 -213.93943422 46.45941224 -215.625 42.17578125 C-217.36694207 38.15248892 -219.0337675 36.96755046 -222.7265625 34.8671875 C-226.47993393 33.43548912 -230.05220992 33.58877187 -234 34 C-233.6875 32.125 -233.6875 32.125 -233 30 C-229.77208445 27.8480563 -228.71599191 27.79913557 -225 28 C-225.69519514 24.79329326 -225.69519514 24.79329326 -228.5625 23.5625 C-229.366875 23.046875 -230.17125 22.53125 -231 22 C-231 20.68 -231 19.36 -231 18 C-230.01 18 -229.02 18 -228 18 C-228 18.66 -228 19.32 -228 20 C-227.01 20 -226.02 20 -225 20 C-225.99 19.01 -225.99 19.01 -227 18 C-227 17.01 -227 16.02 -227 15 C-223.85262818 15.69941596 -220.97411124 16.76078698 -218 18 C-218.495 16.88625 -218.495 16.88625 -219 15.75 C-220 13 -220 13 -220 9 C-218.68 9.33 -217.36 9.66 -216 10 C-215.505 12.475 -215.505 12.475 -215 15 C-214.34 15 -213.68 15 -213 15 C-213.495 14.0925 -213.99 13.185 -214.5 12.25 C-216 9 -216 9 -216 5 C-212.21212121 6.51515152 -212.21212121 6.51515152 -211.125 9 C-210.11239241 11.33163352 -210.11239241 11.33163352 -207.0625 11.9375 C-203.21319309 13.27297383 -202.90988841 14.49853792 -201 18 C-197.16486815 23.13933494 -193.24018458 24.93627735 -187.07421875 26.45703125 C-185 27 -185 27 -184 28 C-183.6875 30.375 -183.6875 30.375 -184 33 C-187.20811227 36.74279765 -191.36680021 36.61390002 -196 37 C-196 37.99 -196 38.98 -196 40 C-195.443125 40.13535156 -194.88625 40.27070313 -194.3125 40.41015625 C-187.16851252 42.4254365 -181.72394322 45.81817168 -177.61328125 52.12890625 C-175.94213705 55.31287572 -175 57.35986039 -175 61 C-169.09739953 58.33804292 -166.83773158 55.75376791 -164.04296875 49.92578125 C-163 48 -163 48 -161 47 C-154.06896944 46.7727531 -154.06896944 46.7727531 -150.703125 47.48828125 C-146.08639711 48.36225719 -141.38019598 48.28857146 -136.69140625 48.42578125 C-132.49341484 49.07880214 -130.36337033 50.47386349 -127 53 C-125.9275 53.495 -124.855 53.99 -123.75 54.5 C-120.84635923 56.08380406 -120.05750847 56.93322545 -119 60 C-126.87696335 63.70680628 -126.87696335 63.70680628 -131 63 C-131.66 62.01 -132.32 61.02 -133 60 C-133.99 59.835 -134.98 59.67 -136 59.5 C-136.99 59.335 -137.98 59.17 -139 59 C-139.66 58.01 -140.32 57.02 -141 56 C-145.75176597 54.72513596 -151.09878171 54.44919642 -156 55 C-160.4215254 57.9476836 -160.52752373 61.75601002 -161.83984375 66.73828125 C-163.06328372 70.17791888 -164.67651161 72.22727165 -167 75 C-167.3259856 77.62116511 -167.3259856 77.62116511 -166 80 C-163.4991634 81.96494304 -160.94768034 83.48909411 -158.15234375 84.99609375 C-154.54539273 86.96421777 -152.1531079 88.49261844 -150 92 C-148.11251681 99.47825617 -149.2808547 105.9179323 -152 113 C-152.66 113 -153.32 113 -154 113 C-155.75747614 108.49646738 -156.19294408 104.82360189 -156 100 C-156.9590625 99.5359375 -156.9590625 99.5359375 -157.9375 99.0625 C-160 98 -160 98 -161 97 C-165.30138862 96.85897086 -168.84974135 96.92896551 -173 98 C-175.33300933 98.03888349 -177.66709801 98.0448635 -180 98 C-180.38671875 99.07121094 -180.38671875 99.07121094 -180.78125 100.1640625 C-184.73099324 109.35481119 -191.34021563 116.15447628 -200 121 C-200.8971875 121.26683594 -201.794375 121.53367187 -202.71875 121.80859375 C-205.28022522 122.81376167 -205.28022522 122.81376167 -205.92578125 125.6875 C-206.32695825 129.12384444 -206.70751052 132.55252402 -207 136 C-207.10699219 136.91265625 -207.21398437 137.8253125 -207.32421875 138.765625 C-207.73615297 144.58762858 -206.41811168 148.30475471 -202.890625 152.953125 C-198.12591889 158.11160848 -193.68009208 161.17042925 -186.5625 161.5625 C-185.62277344 161.5934375 -184.68304688 161.624375 -183.71484375 161.65625 C-180.68544671 162.03982833 -179.1734377 162.92713891 -176.625 164.5625 C-171.36002961 167.53033363 -166.7298505 167.16186566 -160.875 166.9375 C-150.67904785 166.6154848 -143.06651179 168.42162527 -134 173 C-133.36416992 173.32097656 -132.72833984 173.64195312 -132.07324219 173.97265625 C-126.30119887 176.95971063 -120.75873713 180.09438676 -115.9375 184.5 C-113.28291691 187.14257261 -113.28291691 187.14257261 -110.375 187.625 C-107.80822911 187.12589596 -107.80822911 187.12589596 -105.5625 185 C-103 183 -103 183 -100 182.5 C-96.33169818 183.11138364 -94.83610097 184.67294279 -92 187 C-88.6298059 187.54559635 -87.29804944 187.19449752 -84.4140625 185.3125 C-83.49367188 184.549375 -82.57328125 183.78625 -81.625 183 C-68.06306101 172.26871284 -51.70322618 164.03810401 -34 166 C-31.63633642 166.58810647 -29.44187149 167.32495118 -27.171875 168.203125 C-20.11542566 170.79218195 -12.44074242 171.39840806 -5 172 C-4.7585334 168.13653443 -4.91836829 164.73113323 -6 161 C-8.21050515 158.62348854 -10.56546179 156.95442058 -13.2265625 155.1015625 C-18.95913291 150.75772746 -23.43072906 144.66918528 -27.1875 138.5625 C-29.36442549 135.48477775 -31.8660521 134.04387906 -35 132 C-36.375 129.75 -36.375 129.75 -37 128 C-37.66 128 -38.32 128 -39 128 C-38.938125 129.8253125 -38.938125 129.8253125 -38.875 131.6875 C-38.86245492 135.21894127 -39.40001783 137.80003566 -41 141 C-41.33 141 -41.66 141 -42 141 C-41.99097656 140.23558594 -41.98195313 139.47117188 -41.97265625 138.68359375 C-42.21538596 129.91366366 -44.55407685 123.74793479 -48.50390625 116.1171875 C-50 113 -50 113 -50 110 C-47.23101564 110.08144072 -45.50219612 110.52349166 -43.47265625 112.44921875 C-41.19926191 115.11597395 -39.09186551 117.87655573 -37 120.6875 C-34.64098796 123.41510767 -32.06123896 125.12151246 -29 127 C-29.02320313 126.26394531 -29.04640625 125.52789062 -29.0703125 124.76953125 C-29.08835937 123.79371094 -29.10640625 122.81789063 -29.125 121.8125 C-29.14820313 120.84957031 -29.17140625 119.88664062 -29.1953125 118.89453125 C-28.92259175 114.85280966 -27.95068477 112.08373772 -25.26953125 109.02734375 C-23.68738178 107.01404865 -23.68738178 107.01404865 -24.51171875 104.37890625 C-24.89972656 103.44949219 -25.28773438 102.52007812 -25.6875 101.5625 C-26.25017578 100.17224609 -26.25017578 100.17224609 -26.82421875 98.75390625 C-27.40623047 97.39072266 -27.40623047 97.39072266 -28 96 C-28.66942318 94.33443858 -29.33698875 92.66812419 -30 91 C-30.33 91.66 -30.66 92.32 -31 93 C-33 95 -33 95 -36.8125 95.5 C-42.08020429 95.22886816 -45.2794811 92.7205189 -48.9375 89.0625 C-50.38845775 86.24593496 -49.88312606 85.01661873 -49 82 C-47.37109375 79.39453125 -47.37109375 79.39453125 -45.4375 76.8125 C-42.83359797 73.71687167 -42.83359797 73.71687167 -42 70 C-44.02285308 68.16669684 -46.03803989 66.48430231 -48.1875 64.8125 C-48.76564453 64.33619141 -49.34378906 63.85988281 -49.93945312 63.36914062 C-53.41809408 60.64352865 -53.41809408 60.64352865 -57.67578125 60.07421875 C-59.97450707 60.93812803 -59.97450707 60.93812803 -61.94140625 62.046875 C-64.68735235 63.31824283 -66.92314823 63.2652048 -69.9375 63.25 C-70.95714844 63.25515625 -71.97679687 63.2603125 -73.02734375 63.265625 C-76.05332204 62.99523535 -78.25825647 62.27241136 -81 61 C-80.19817695 54.56250634 -76.1212964 50.74731611 -72 46 C-71.19369141 45.03126953 -71.19369141 45.03126953 -70.37109375 44.04296875 C-64.96553558 38.04130892 -57.23349569 32.95959724 -49.23046875 31.4921875 C-46.8125 31.4375 -46.8125 31.4375 -43 32 C-41 34 -41 34 -40.8125 37.9375 C-40.83809684 40.67636155 -41.11335844 42.34007532 -42 45 C-42.89982818 52.83661258 -42.89982818 52.83661258 -39.9375 59.75 C-36.26549653 61.31255467 -33.95663255 61.56523322 -30 61 C-26.93126102 59.67838573 -26.93126102 59.67838573 -25 57 C-25 54.98773521 -25.00602669 52.97260192 -25.140625 50.96484375 C-25 49 -25 49 -22.75 46.125 C-18.59846641 42.91699677 -16.03542828 41.73590978 -10.75 41.875 C-9.41195312 41.90207031 -9.41195312 41.90207031 -8.046875 41.9296875 C-7.37140625 41.95289063 -6.6959375 41.97609375 -6 42 C-6 41.01 -6 40.02 -6 39 C-7.65 38.67 -9.3 38.34 -11 38 C-11.25523437 37.04287109 -11.25523437 37.04287109 -11.515625 36.06640625 C-11.75796875 35.24011719 -12.0003125 34.41382813 -12.25 33.5625 C-12.48203125 32.73878906 -12.7140625 31.91507813 -12.953125 31.06640625 C-13.79635847 28.85010722 -13.79635847 28.85010722 -15.859375 28.21484375 C-18.30477088 27.9334245 -18.30477088 27.9334245 -22 28 C-23 27 -23 27 -23.3125 24.125 C-23 21 -23 21 -21.3125 19.125 C-18.66729453 17.83814329 -16.90566174 17.75786152 -14 18 C-13.87625 17.38125 -13.7525 16.7625 -13.625 16.125 C-13 14 -13 14 -11 12 C-7.875 11.875 -7.875 11.875 -5 12 C-5.0825 11.0925 -5.165 10.185 -5.25 9.25 C-5 6 -5 6 -3.0625 3.75 C-2.381875 3.1725 -1.70125 2.595 -1 2 C-0.67 1.34 -0.34 0.68 0 0 Z " fill="#FBFCFD" transform="translate(355,98)"/>
<path d="M0 0 C3.18478173 1.48129383 6.45085199 1.41914799 9.84765625 0.859375 C11.76399243 -0.07793454 11.76399243 -0.07793454 13.53515625 -1.265625 C16.84765625 -3.140625 16.84765625 -3.140625 19.34765625 -2.703125 C22.63128249 -0.6508586 25.74164124 1.54508931 28.84765625 3.859375 C28.02481085 8.26820095 25.70054443 11.49538812 23.3203125 15.2265625 C18.79579092 23.31549498 18.50282171 32.82376794 19.84765625 41.859375 C21.48227791 47.5065701 24.16401903 52.65299009 26.84765625 57.859375 C29.03068716 64.40846772 28.59453045 71.83725587 25.81640625 78.15234375 C22.1451765 84.62140585 15.16748773 88.75276451 8.28515625 91.046875 C5.59975062 91.62880187 2.95228215 91.96250205 0.21875 92.27734375 C-0.43730225 92.35380127 -1.09335449 92.43025879 -1.76928711 92.5090332 C-3.69961144 92.72565197 -5.63302259 92.91420367 -7.56640625 93.1015625 C-12.60548578 94.16646602 -15.82188312 96.14228479 -18.98046875 100.21875 C-19.4496875 101.00765625 -19.91890625 101.7965625 -20.40234375 102.609375 C-21.85546875 105.03125 -21.85546875 105.03125 -23.15234375 106.859375 C-23.81234375 106.859375 -24.47234375 106.859375 -25.15234375 106.859375 C-26.6744325 104.41578071 -27.98575956 101.88806412 -29.32421875 99.33984375 C-32.0210883 95.68062973 -34.89581412 94.29909226 -39.34863281 93.43139648 C-41.86280495 93.07146593 -44.37908312 92.77336624 -46.90234375 92.484375 C-56.21623268 91.23443729 -63.95972873 89.60975163 -70.58984375 82.484375 C-75.48970757 76.02988017 -77.23693421 69.86124239 -76.15234375 61.859375 C-75.10508494 58.39103398 -73.65116778 55.15391471 -72.15234375 51.859375 C-67.72545596 42.02742024 -64.91087993 33.25444068 -68.14453125 22.5859375 C-69.86668106 18.25382152 -71.75814655 14.22483307 -74.46484375 10.421875 C-76.4104342 7.46745987 -76.64970634 6.31974878 -76.15234375 2.859375 C-74.359375 0.98828125 -74.359375 0.98828125 -71.96484375 -0.578125 C-70.79888672 -1.38056641 -70.79888672 -1.38056641 -69.609375 -2.19921875 C-67.15234375 -3.140625 -67.15234375 -3.140625 -64.46875 -2.37109375 C-63.05340177 -1.61926459 -61.65159695 -0.84017692 -60.27734375 -0.015625 C-55.90899626 1.78310632 -51.93310657 1.13870699 -47.58203125 -0.41796875 C-45.82246094 -1.23974609 -45.82246094 -1.23974609 -44.02734375 -2.078125 C-29.25888309 -8.91298152 -14.23868024 -7.54572528 0 0 Z " fill="#FBFDFE" transform="translate(278.15234375,164.140625)"/>
<path d="M0 0 C5.38077904 1.54563085 9.02463353 4.19363878 12 9 C13.761557 13.13965896 14.21343713 16.51782019 14 21 C14.928125 21.103125 15.85625 21.20625 16.8125 21.3125 C20 22 20 22 21.375 23.6875 C21.91125 24.120625 22.4475 24.55375 23 25 C24.88450346 24.56252598 26.76715839 24.1099062 28.625 23.5703125 C34.69713177 22.11220191 40.8243332 21.889532 46.375 25 C51.4627765 28.76872333 54.48806082 32.71855378 55.4765625 39.0546875 C55.81474927 46.61939158 54.70374899 52.92479649 50 59 C44.06525675 64.16700439 37.12396686 66.42434339 29.3203125 66.265625 C25.53755483 65.83258203 20.7530825 64.7530825 18 62 C17.6596875 63.05058594 17.319375 64.10117188 16.96875 65.18359375 C13.31031883 75.96627067 9.31288415 84.1911831 -1 90 C-0.67 90.33 -0.34 90.66 0 91 C0.04080783 92.99958364 0.04254356 95.00045254 0 97 C-3.40653507 97.76673688 -6.55744637 98.12816701 -10.046875 98.1328125 C-11.43712891 98.13474609 -11.43712891 98.13474609 -12.85546875 98.13671875 C-14.28826172 98.13091797 -14.28826172 98.13091797 -15.75 98.125 C-16.72066406 98.12886719 -17.69132812 98.13273437 -18.69140625 98.13671875 C-19.61308594 98.13542969 -20.53476563 98.13414062 -21.484375 98.1328125 C-22.32709961 98.13168457 -23.16982422 98.13055664 -24.03808594 98.12939453 C-26 98 -26 98 -27 97 C-27.04063832 95.33382885 -27.042721 93.66611905 -27 92 C-26.34 92 -25.68 92 -25 92 C-25 91.34 -25 90.68 -25 90 C-25.886875 89.95875 -26.77375 89.9175 -27.6875 89.875 C-31.91887443 88.75727845 -33.77660324 86.60594528 -36 83 C-36.680625 81.2675 -36.680625 81.2675 -37.375 79.5 C-38.95796963 76.09052695 -39.67975167 75.23963731 -42.5 73.0625 C-46.53835924 69.91206753 -47.57600585 66.858333 -49 62 C-49.763125 62.639375 -50.52625 63.27875 -51.3125 63.9375 C-57.24556613 68.49078331 -64.86735184 67.52806884 -72 67 C-77.99944727 65.41643549 -81.52761741 62.00431609 -85 57 C-87.94025789 50.7974065 -88.19922294 44.00552635 -86.23046875 37.4296875 C-83.20979703 31.13217401 -78.49200871 27.44143917 -72 25 C-64.60909886 23.7365981 -57.93686393 25.47203223 -51 28 C-51.1546875 26.576875 -51.1546875 26.576875 -51.3125 25.125 C-51.29076811 19.77895389 -48.95283066 15.35192748 -46 11 C-40.72976251 5.93734298 -35.85494124 4.93518221 -28.75 4.6875 C-22.74788913 4.48639344 -22.74788913 4.48639344 -17.4375 1.9375 C-11.8903316 -1.18908582 -6.21623401 -0.70981219 0 0 Z " fill="#FDFDFE" transform="translate(268,57)"/>
<path d="M0 0 C7.92 0 15.84 0 24 0 C25.64897971 4.12244929 26.51333478 7.26056403 27.25 11.5625 C28.21775961 17.07035818 29.31979532 22.53539718 30.52734375 27.99609375 C30.93581543 29.84835571 30.93581543 29.84835571 31.35253906 31.73803711 C31.90127084 34.21037862 32.45642035 36.68130609 33.01855469 39.15063477 C34.36333032 45.23816103 35.3473337 50.76343047 35 57 C35.66 57 36.32 57 37 57 C37.09667969 55.82566406 37.19335938 54.65132812 37.29296875 53.44140625 C38.06747147 46.49800972 39.73974273 39.73344238 41.3125 32.9375 C41.6305745 31.54871194 41.94844477 30.15987708 42.26611328 28.77099609 C48.53048625 1.46951375 48.53048625 1.46951375 50 0 C51.70772358 -0.08713831 53.41898649 -0.10700007 55.12890625 -0.09765625 C56.68061523 -0.09282227 56.68061523 -0.09282227 58.26367188 -0.08789062 C59.35228516 -0.07951172 60.44089844 -0.07113281 61.5625 -0.0625 C63.2012207 -0.05573242 63.2012207 -0.05573242 64.87304688 -0.04882812 C67.58208495 -0.03699826 70.29101599 -0.02051543 73 0 C74.21447048 7.87874967 74.34822423 15.79510823 74.5625 23.75 C74.58367889 24.48990173 74.60485779 25.22980347 74.62667847 25.99212646 C75.04362311 40.66392115 75.1046736 55.3224358 75 70 C70.05 70 65.1 70 60 70 C59.01 42.775 59.01 42.775 58 15 C56.68 21.6 55.36 28.2 54 35 C52.99321348 39.22464966 51.97271526 43.42580353 50.875 47.625 C49.19909322 54.09657848 47.6311605 60.53537356 46.43408203 67.11474609 C46 69 46 69 45 70 C43.5112814 70.08669432 42.018555 70.10703494 40.52734375 70.09765625 C39.62822266 70.09443359 38.72910156 70.09121094 37.80273438 70.08789062 C36.38444336 70.07532227 36.38444336 70.07532227 34.9375 70.0625 C33.98810547 70.05798828 33.03871094 70.05347656 32.06054688 70.04882812 C29.70696935 70.0370011 27.35351523 70.02052025 25 70 C23.52298727 66.52754505 22.48196044 63.16694241 21.66796875 59.484375 C21.30541992 57.85048828 21.30541992 57.85048828 20.93554688 56.18359375 C20.68869141 55.05050781 20.44183594 53.91742188 20.1875 52.75 C19.95224609 51.69425781 19.71699219 50.63851562 19.47460938 49.55078125 C16.79884195 37.40097115 14.44097377 25.20486886 12 13 C11.67 31.81 11.34 50.62 11 70 C6.71 70 2.42 70 -2 70 C-2.16663748 54.74688473 -1.63997786 39.55063046 -1 24.3125 C-0.90329418 21.94207161 -0.80693783 19.57162894 -0.7109375 17.20117188 C-0.47861607 11.46723871 -0.23916975 5.7336677 0 0 Z " fill="#FEFAFA" transform="translate(569,115)"/>
<path d="M0 0 C0 3.3 0 6.6 0 10 C-2.64 10 -5.28 10 -8 10 C-7.505 10.515625 -7.01 11.03125 -6.5 11.5625 C-4.43025073 14.92584256 -4.5968387 17.10277407 -5 21 C-7.22893603 26.98293355 -10.51950245 29.57503332 -15.9375 32.6875 C-21.57321725 35.00216958 -27.99576132 34.75849803 -34 35 C-34 35.66 -34 36.32 -34 37 C-32.85724609 37.18175781 -32.85724609 37.18175781 -31.69140625 37.3671875 C-10.8620723 40.74772859 -10.8620723 40.74772859 -4.625 46 C-2.13937396 50.58884808 -2.25691522 54.89598333 -3 60 C-5.88287501 65.87252318 -10.01081427 69.4014216 -16.0625 71.75 C-24.48339172 74.28186279 -32.86461524 73.95055222 -40.86328125 70.25390625 C-44.41083576 68.17206896 -45.94023415 66.63891967 -48 63 C-48.72550475 59.81677763 -48.84699639 57.1660141 -48 54 C-46.1997614 51.73465416 -44.46907746 50.62959112 -42 49 C-41.34 48.34 -40.68 47.68 -40 47 C-40.969375 46.54625 -41.93875 46.0925 -42.9375 45.625 C-46 44 -46 44 -47 42 C-47.5 38.6875 -47.5 38.6875 -47 35 C-44.90724012 32.89677632 -42.58757967 31.43241017 -40 30 C-40.78375 29.278125 -41.5675 28.55625 -42.375 27.8125 C-46.39612736 23.50414926 -47.50663407 20.00820516 -47.3046875 14.05078125 C-46.62094266 9.44865255 -44.6428038 6.27920538 -41.05859375 3.48828125 C-29.26325511 -4.09288484 -13.4638529 -1.00262734 0 0 Z " fill="#FEF9F9" transform="translate(814,234)"/>
<path d="M0 0 C4.29 0 8.58 0 13 0 C13 23.43 13 46.86 13 71 C9.37 71 5.74 71 2 71 C1.34 69.68 0.68 68.36 0 67 C-0.763125 67.639375 -1.52625 68.27875 -2.3125 68.9375 C-7.38157744 72.82772222 -12.83880162 72.72484687 -19 72 C-25.4893931 69.66599979 -29.10588071 65.08116564 -32 59 C-35.28437712 50.71085774 -34.89386381 41.71885042 -32.03515625 33.35546875 C-29.29395779 27.11794924 -25.55748271 22.35667358 -19.2109375 19.62109375 C-13.63005045 18.05331806 -8.70472642 18.29459596 -3.375 20.5 C-2.199375 21.2425 -2.199375 21.2425 -1 22 C0.22784809 20.99440206 0.22784809 20.99440206 0.11352539 18.95874023 C0.10828857 18.08419189 0.10305176 17.20964355 0.09765625 16.30859375 C0.09443359 15.36435547 0.09121094 14.42011719 0.08789062 13.44726562 C0.07951172 12.45404297 0.07113281 11.46082031 0.0625 10.4375 C0.05798828 9.44041016 0.05347656 8.44332031 0.04882812 7.41601562 C0.03700023 4.94398513 0.01906415 2.47198528 0 0 Z " fill="#FEFCFC" transform="translate(1088,114)"/>
<path d="M0 0 C7.3281215 3.76837564 11.56023088 9.55486502 14.125 17.3125 C15.32275283 26.34601904 14.53587423 37.18462942 8.9375 44.75 C1.88166253 51.17865191 -4.70316273 52.09723843 -14.078125 51.69921875 C-20.13479101 51.0823361 -23.60054096 49.39742079 -28.125 45.25 C-33.23347511 36.67505963 -35.09477536 28.25551733 -33.875 18.3125 C-31.5511407 9.17861453 -26.87930303 4.18468445 -18.875 -0.6875 C-12.67928933 -2.75273689 -6.03106178 -2.50956933 0 0 Z " fill="#FEFAFA" transform="translate(1008.875,134.6875)"/>
<path d="M0 0 C14.52 0 29.04 0 44 0 C44 3.96 44 7.92 44 12 C34.1 12 24.2 12 14 12 C14 17.61 14 23.22 14 29 C21.26 29 28.52 29 36 29 C36 32.96 36 36.92 36 41 C28.74 41 21.48 41 14 41 C14 46.94 14 52.88 14 59 C23.9 59 33.8 59 44 59 C44 62.96 44 66.92 44 71 C29.48 71 14.96 71 0 71 C0 47.57 0 24.14 0 0 Z " fill="#FEF7F7" transform="translate(568,215)"/>
<path d="M0 0 C2.46800047 1.15173355 4.04783565 2.04783565 6 4 C6.09646853 5.39311903 6.12980705 6.79105319 6.125 8.1875 C6.51732558 11.98400441 7.22213795 13.80810826 10.0625 16.375 C11.68248741 17.61777013 13.33395552 18.81968962 15 20 C16.25789642 20.93608516 17.51570153 21.87229302 18.7734375 22.80859375 C20.15917898 23.81304795 21.54722557 24.81432932 22.9375 25.8125 C23.59306885 26.29315918 24.2486377 26.77381836 24.92407227 27.26904297 C29.76219875 30.63298282 34.18498073 32.11970228 40 33 C40 33.66 40 34.32 40 35 C38.05450331 36.64480169 36.10737861 38.17515065 34.0625 39.6875 C32.84850892 40.59705672 31.63496765 41.50721411 30.421875 42.41796875 C29.82826172 42.86188965 29.23464844 43.30581055 28.62304688 43.76318359 C26.63263712 45.27994289 24.7302946 46.89288812 22.8125 48.5 C15.87962154 53.93984284 7.77619272 57.90548599 0 62 C-0.6602417 62.37406982 -1.3204834 62.74813965 -2.00073242 63.13354492 C-4 64 -4 64 -8 64 C-10.47005452 60.29491822 -10.79863894 56.2978302 -10 52 C-8.63362491 49.22033566 -7.43307702 48.11571915 -5 46 C-1.6875 45.625 -1.6875 45.625 1 46 C1.33 46.66 1.66 47.32 2 48 C0.68 48.66 -0.64 49.32 -2 50 C-1.67 51.32 -1.34 52.64 -1 54 C2.465 53.505 2.465 53.505 6 53 C6.57990901 47.63829347 6.57990901 47.63829347 4.5 43 C0.95193453 41.58077381 -2.27558156 41.34106443 -6 42 C-9.75212276 44.01502889 -11.63644095 45.45466142 -14 49 C-14.38499891 50.65549531 -14.72793135 52.3222433 -15 54 C-16.65 53.67 -18.3 53.34 -20 53 C-23.73718321 42.84614373 -24.14756442 33.75580669 -24 23 C-23.443125 22.78085937 -22.88625 22.56171875 -22.3125 22.3359375 C-13.77017796 18.78625638 -6.57054267 14.27138694 -2 6 C-0.68868374 2.7417112 -0.68868374 2.7417112 0 0 Z " fill="#126BB5" transform="translate(133,237)"/>
<path d="M0 0 C4.19069463 2.84930231 6.27139702 6.46916482 7.76953125 11.203125 C8.03471911 14.13964235 8.00260681 17.05752174 7.96484375 20.00390625 C7.96201385 20.84028122 7.95918396 21.67665619 7.95626831 22.53837585 C7.94511445 25.19760726 7.92001888 27.85649618 7.89453125 30.515625 C7.88449524 32.32356283 7.87537048 34.13150596 7.8671875 35.93945312 C7.84519084 40.36080812 7.81069419 44.78190858 7.76953125 49.203125 C4.46953125 49.203125 1.16953125 49.203125 -2.23046875 49.203125 C-2.89046875 47.883125 -3.55046875 46.563125 -4.23046875 45.203125 C-5.62265625 46.1621875 -5.62265625 46.1621875 -7.04296875 47.140625 C-12.8510868 50.89881903 -18.47693263 50.85525216 -25.23046875 50.203125 C-29.26700986 48.2202627 -31.88047435 46.03732639 -34.23046875 42.203125 C-35.88224374 37.24780004 -36.58477386 31.11604848 -34.32421875 26.25390625 C-31.54041937 22.71169999 -28.35318278 20.8287861 -24.23046875 19.203125 C-20.92708676 18.85633754 -17.67216787 18.91822194 -14.35546875 19.015625 C-13.47632813 19.02916016 -12.5971875 19.04269531 -11.69140625 19.05664062 C-9.53749323 19.09175877 -7.38389871 19.14555806 -5.23046875 19.203125 C-5.49859375 17.924375 -5.76671875 16.645625 -6.04296875 15.328125 C-6.19378906 14.60882813 -6.34460938 13.88953125 -6.5 13.1484375 C-7.15355713 10.83265951 -7.15355713 10.83265951 -10.23046875 9.203125 C-17.11812458 8.57020527 -23.72874126 8.78387756 -30.23046875 11.203125 C-31.22046875 7.903125 -32.21046875 4.603125 -33.23046875 1.203125 C-22.4935251 -3.20177496 -10.760139 -5.66953521 0 0 Z " fill="#FEFAFA" transform="translate(886.23046875,235.796875)"/>
<path d="M0 0 C5.37304985 4.02353966 7.96970343 8.86787204 9.6796875 15.2578125 C9.6796875 19.5478125 9.6796875 23.8378125 9.6796875 28.2578125 C-0.8803125 28.2578125 -11.4403125 28.2578125 -22.3203125 28.2578125 C-19.4857758 37.2048369 -19.4857758 37.2048369 -14.3203125 39.2578125 C-7.2413842 40.21408878 -0.95411103 38.62904261 5.6796875 36.2578125 C7.62126767 39.77406005 7.86279818 42.2293776 7.6796875 46.2578125 C-0.76644398 50.90629764 -9.88482413 51.63322008 -19.3203125 50.2578125 C-26.57875198 47.91514156 -30.51071929 43.6184856 -34.0703125 37.0078125 C-37.15787656 28.03511253 -36.71671036 15.75203474 -32.58203125 7.20703125 C-25.71621656 -3.39990847 -10.75791576 -6.38332761 0 0 Z " fill="#FEF7F8" transform="translate(890.3203125,135.7421875)"/>
<path d="M0 0 C6.45708701 3.80699088 9.28189757 8.40819271 11.625 15.4375 C11.625 19.7275 11.625 24.0175 11.625 28.4375 C1.065 28.4375 -9.495 28.4375 -20.375 28.4375 C-18.61604531 37.77979847 -18.61604531 37.77979847 -15.3125 40.0625 C-7.43882929 41.06764945 -1.69548448 40.51980925 5.625 37.4375 C6.615 37.4375 7.605 37.4375 8.625 37.4375 C9.285 40.7375 9.945 44.0375 10.625 47.4375 C0.87583684 51.71110577 -9.58735254 53.67495399 -20 50.25 C-26.45618107 46.78279165 -31.13680993 41.42028307 -33.375 34.4375 C-34.43385794 25.52159367 -34.87097194 15.25235229 -30.07421875 7.390625 C-22.65274852 -1.13980055 -10.62015894 -4.80680308 0 0 Z " fill="#FEF9FA" transform="translate(1145.375,134.5625)"/>
<path d="M0 0 C5.97682839 3.53401679 9.57904179 8.79827015 11.5625 15.375 C11.5625 19.665 11.5625 23.955 11.5625 28.375 C1.0025 28.375 -9.5575 28.375 -20.4375 28.375 C-18.4160184 36.74200461 -18.4160184 36.74200461 -15.3125 39.4375 C-8.61741199 41.62068087 -2.83335581 40.52823451 3.6171875 38.03125 C5.5625 37.375 5.5625 37.375 8.5625 37.375 C9.2225 40.675 9.8825 43.975 10.5625 47.375 C0.83197096 51.64043739 -9.69101375 53.67365598 -20.0625 50.125 C-26.08778609 47.00077758 -29.5900092 43.85908352 -32.48046875 37.68359375 C-34.99645495 28.98547003 -35.15048215 17.94461755 -31.5 9.5625 C-25.11825332 -0.89698166 -11.18024665 -5.14206 0 0 Z " fill="#FEF9FA" transform="translate(710.4375,234.625)"/>
<path d="M0 0 C2 1 2 1 2.77783203 2.87011719 C3.01872559 3.67094727 3.25961914 4.47177734 3.5078125 5.296875 C3.90419922 6.61171875 3.90419922 6.61171875 4.30859375 7.953125 C4.57800781 8.87609375 4.84742188 9.7990625 5.125 10.75 C5.40214844 11.6575 5.67929687 12.565 5.96484375 13.5 C7.29744763 17.99015296 8 21.21939186 8 26 C17.24 26 26.48 26 36 26 C30.375 31.625 30.375 31.625 27.01171875 33.89453125 C26.30595703 34.37470703 25.60019531 34.85488281 24.87304688 35.34960938 C24.15181641 35.83236328 23.43058594 36.31511719 22.6875 36.8125 C21.94693359 37.31458984 21.20636719 37.81667969 20.44335938 38.33398438 C18.63215731 39.56092771 16.81772622 40.78275266 15 42 C17.57886312 50.69438654 20.28407771 59.3476942 23 68 C19.99561745 66.62011657 17.60784345 64.9982946 15.06640625 62.890625 C14.33486328 62.30152344 13.60332031 61.71242187 12.84960938 61.10546875 C11.3195389 59.86416478 9.79868762 58.61141352 8.28710938 57.34765625 C7.55427734 56.76371094 6.82144531 56.17976563 6.06640625 55.578125 C5.40584229 55.03575195 4.74527832 54.49337891 4.06469727 53.93457031 C1.97465059 52.72785622 1.97465059 52.72785622 -0.49121094 53.64892578 C-2.92354298 54.95882511 -5.02887085 56.34309028 -7.20703125 58.0390625 C-7.95791016 58.61914062 -8.70878906 59.19921875 -9.48242188 59.796875 C-10.25134766 60.40015625 -11.02027344 61.0034375 -11.8125 61.625 C-12.60076172 62.23601562 -13.38902344 62.84703125 -14.20117188 63.4765625 C-16.13820974 64.9792343 -18.07092079 66.48713386 -20 68 C-21.177112 64.46866401 -20.76197174 63.62990475 -19.53125 60.21875 C-19.20769531 59.29449219 -18.88414062 58.37023437 -18.55078125 57.41796875 C-17.85026042 55.47265625 -17.14973958 53.52734375 -16.44921875 51.58203125 C-16.12566406 50.65777344 -15.80210937 49.73351562 -15.46875 48.78125 C-15.16388672 47.93626953 -14.85902344 47.09128906 -14.54492188 46.22070312 C-13.75388465 43.84967927 -13.75388465 43.84967927 -15 41 C-16.87840441 39.41581465 -16.87840441 39.41581465 -19.21875 37.93359375 C-20.49298828 37.0818457 -20.49298828 37.0818457 -21.79296875 36.21289062 C-22.68628906 35.62701172 -23.57960937 35.04113281 -24.5 34.4375 C-26.26308294 33.27355997 -28.02363835 32.10577937 -29.78125 30.93359375 C-30.9578418 30.1610022 -30.9578418 30.1610022 -32.15820312 29.37280273 C-34 28 -34 28 -35 26 C-25.76 26 -16.52 26 -7 26 C-6.67 23.69 -6.34 21.38 -6 19 C-5.57463654 17.37436435 -5.10797454 15.75864486 -4.58984375 14.16015625 C-4.32236328 13.32548828 -4.05488281 12.49082031 -3.77929688 11.63085938 C-3.50150391 10.78330078 -3.22371094 9.93574219 -2.9375 9.0625 C-2.65583984 8.18787109 -2.37417969 7.31324219 -2.08398438 6.41210938 C-1.39434445 4.27305673 -0.69959171 2.13581421 0 0 Z " fill="#136CB5" transform="translate(252,170)"/>
<path d="M0 0 C3.61659531 2.67562594 5.33554275 6.10428449 6.7265625 10.27734375 C6.8119715 13.22698488 6.84239177 16.15237394 6.82421875 19.1015625 C6.8228038 19.96296341 6.82138885 20.82436432 6.81993103 21.71186829 C6.8143339 24.46289544 6.80178196 27.21384119 6.7890625 29.96484375 C6.78404713 31.83007695 6.77948429 33.69531142 6.77539062 35.56054688 C6.76436542 40.13284386 6.74710277 44.70508 6.7265625 49.27734375 C2.1065625 49.27734375 -2.5134375 49.27734375 -7.2734375 49.27734375 C-7.2827832 48.20774414 -7.29212891 47.13814453 -7.30175781 46.03613281 C-7.34167262 42.06240405 -7.40743471 38.08944831 -7.48095703 34.11621094 C-7.50915817 32.39756206 -7.53037704 30.6787837 -7.54443359 28.95996094 C-7.56587583 26.48695628 -7.61252906 24.015507 -7.6640625 21.54296875 C-7.66529114 20.77615784 -7.66651978 20.00934692 -7.66778564 19.21929932 C-7.76501168 15.66702331 -7.98890393 13.65034605 -10.17285156 10.78735352 C-12.62417542 9.0252152 -13.79031517 8.81670925 -16.7734375 8.96484375 C-17.52625 8.98933594 -18.2790625 9.01382813 -19.0546875 9.0390625 C-21.59587937 9.26051815 -21.59587937 9.26051815 -25.2734375 10.27734375 C-25.2734375 23.14734375 -25.2734375 36.01734375 -25.2734375 49.27734375 C-29.8934375 49.27734375 -34.5134375 49.27734375 -39.2734375 49.27734375 C-39.2734375 32.44734375 -39.2734375 15.61734375 -39.2734375 -1.72265625 C-35.9734375 -1.72265625 -32.6734375 -1.72265625 -29.2734375 -1.72265625 C-28.9434375 -0.07265625 -28.6134375 1.57734375 -28.2734375 3.27734375 C-27.67015625 2.92800781 -27.066875 2.57867187 -26.4453125 2.21875 C-25.64609375 1.76371094 -24.846875 1.30867187 -24.0234375 0.83984375 C-22.84007812 0.16115234 -22.84007812 0.16115234 -21.6328125 -0.53125 C-14.59182711 -4.08671448 -6.84719309 -3.83279135 0 0 Z " fill="#FEFAFA" transform="translate(725.2734375,135.72265625)"/>
<path d="M0 0 C3.63 0 7.26 0 11 0 C11 6.27 11 12.54 11 19 C12.65 18.01 14.3 17.02 16 16 C20.88593962 15.14050824 24.90477039 15.47266722 29.375 17.625 C33.77887872 21.6094617 36.72419348 25.77622866 37.23828125 31.78515625 C37.40591583 39.18754619 37.07264305 45.62387955 33 52 C28.76610749 56.25353935 24.62487384 57.69712994 18.75 58.375 C13.85827525 57.88582752 10.9094453 55.84323295 7 53 C6.67 54.32 6.34 55.64 6 57 C4.02 57 2.04 57 0 57 C0 38.19 0 19.38 0 0 Z " fill="#FEFAFA" transform="translate(662,1020)"/>
<path d="M0 0 C3.3 0 6.6 0 10 0 C10 18.81 10 37.62 10 57 C7.03 57 4.06 57 1 57 C1 55.68 1 54.36 1 53 C0.195625 53.639375 -0.60875 54.27875 -1.4375 54.9375 C-5.38681932 57.55170664 -9.30253783 58.21083762 -14 58 C-19.39145746 56.16893898 -22.26139504 53.27574068 -24.91015625 48.28515625 C-27.70430354 41.93009568 -28.14193237 35.17418217 -26.30859375 28.47265625 C-23.96655679 22.58326623 -20.74154573 18.87077287 -15 16 C-13.39924548 15.87817266 -11.79283863 15.82453402 -10.1875 15.8125 C-9.33542969 15.79832031 -8.48335937 15.78414062 -7.60546875 15.76953125 C-5 16 -5 16 0 18 C0 12.06 0 6.12 0 0 Z " fill="#FEFBFB" transform="translate(935,1020)"/>
<path d="M0 0 C4.59063175 2.70037162 7.46598655 5.71045964 9.1875 10.875 C9.27294291 12.21028807 9.30524625 13.54943888 9.30102539 14.88745117 C9.30094986 15.68805466 9.30087433 16.48865814 9.30079651 17.31352234 C9.29563522 18.17298965 9.29047394 19.03245697 9.28515625 19.91796875 C9.2837413 20.8015657 9.28232635 21.68516266 9.28086853 22.59553528 C9.27527069 25.41789128 9.26271861 28.24016797 9.25 31.0625 C9.24498472 32.97591031 9.24042186 34.88932187 9.23632812 36.80273438 C9.22530197 41.49352014 9.20803883 46.18424663 9.1875 50.875 C4.8975 50.875 0.6075 50.875 -3.8125 50.875 C-3.82708252 49.87122314 -3.84166504 48.86744629 -3.85668945 47.83325195 C-3.91482052 44.0962425 -3.99205165 40.35982631 -4.07495117 36.62329102 C-4.1081311 35.00848037 -4.13618458 33.39355569 -4.15893555 31.77856445 C-4.19261025 29.45214408 -4.24492963 27.12676217 -4.30078125 24.80078125 C-4.30717117 24.08287918 -4.3135611 23.36497711 -4.32014465 22.62532043 C-4.45995524 17.82001169 -5.35061504 14.33688496 -8.8125 10.875 C-10.81240516 10.67510237 -10.81240516 10.67510237 -13.125 10.6875 C-13.90488281 10.67332031 -14.68476562 10.65914062 -15.48828125 10.64453125 C-18.2060451 10.7744619 -18.2060451 10.7744619 -21.8125 12.875 C-22.1425 25.415 -22.4725 37.955 -22.8125 50.875 C-27.1025 50.875 -31.3925 50.875 -35.8125 50.875 C-35.8125 34.045 -35.8125 17.215 -35.8125 -0.125 C-32.8425 -0.125 -29.8725 -0.125 -26.8125 -0.125 C-24.75 2.375 -24.75 2.375 -23.8125 4.875 C-23.090625 4.25625 -22.36875 3.6375 -21.625 3 C-14.92520825 -2.06206488 -7.93986426 -2.34291076 0 0 Z " fill="#FEFCFD" transform="translate(657.8125,234.125)"/>
<path d="M0 0 C0.495 0.99 0.495 0.99 1 2 C0.22265625 3.7265625 0.22265625 3.7265625 -0.9375 5.625 C-1.618125 6.73875 -2.29875 7.8525 -3 9 C-4.60875 8.505 -4.60875 8.505 -6.25 8 C-11.79047782 6.64697779 -17.339271 6.19365155 -23 7 C-26.47677658 9.50327913 -28.4800936 12.03389231 -30 16 C-30.93782451 23.39113332 -31.66175293 32.54891931 -27.625 39.0625 C-25.33893665 41.98425785 -25.33893665 41.98425785 -23 43 C-20.44842345 43.0716735 -17.92527029 43.09308442 -15.375 43.0625 C-14.66859375 43.05798828 -13.9621875 43.05347656 -13.234375 43.04882812 C-11.48954725 43.03703875 -9.744763 43.01910324 -8 43 C-8 39.37 -8 35.74 -8 32 C-10.64 32 -13.28 32 -16 32 C-16 29.36 -16 26.72 -16 24 C-10.06 24 -4.12 24 2 24 C2 32.25 2 40.5 2 49 C-8.15837394 53.06334958 -18.16166581 56.65458156 -28.8125 52.4375 C-35.25579417 49.17551029 -39.36784208 43.6496621 -42 37 C-44.25669277 26.74230558 -44.36075666 14.83067032 -38.55859375 5.7421875 C-28.87957688 -6.42956922 -13.29100749 -6.94987796 0 0 Z " fill="#FEF8F9" transform="translate(607,1024)"/>
<path d="M0 0 C4.90346763 4.65200775 8.06920919 8.72808831 8.7734375 15.58203125 C8.85131427 22.64545463 8.9071067 28.56586282 4.4375 34.3125 C-0.05618622 38.6909635 -4.16783947 40.40276787 -10.375 40.6875 C-15.51419528 40.56495585 -19.43139256 39.41083058 -23.5625 36.3125 C-28.62850854 30.17996334 -30.09457148 24.01399237 -29.9453125 16.19921875 C-29.1282581 10.03796156 -26.34795905 5.05544812 -21.9375 0.75 C-15.56344733 -3.10797925 -6.63355979 -3.14221253 0 0 Z " fill="#FEF8F8" transform="translate(645.5625,1037.6875)"/>
<path d="M0 0 C4.92265695 2.2855193 7.81049249 5.71694706 11 10 C13.08734033 16.26202098 13.24901924 25.84083143 10.875 32.125 C7.72641138 36.95283589 3.70397847 40.54084272 -2 42 C-8.02994866 42.63833105 -12.60958058 42.00619545 -18 39 C-21.62487857 35.93899143 -23.59546444 33.50570035 -25 29 C-25.21447731 26.30649927 -25.32498534 23.75184159 -25.3125 21.0625 C-25.32861328 20.37220703 -25.34472656 19.68191406 -25.36132812 18.97070312 C-25.36668804 13.3159956 -24.14646262 9.28031775 -20.24609375 5.13671875 C-19.64925781 4.65847656 -19.05242188 4.18023438 -18.4375 3.6875 C-17.83808594 3.19636719 -17.23867188 2.70523437 -16.62109375 2.19921875 C-11.82066821 -1.35193942 -5.70992288 -0.49439576 0 0 Z " fill="#FEF9FA" transform="translate(871,1036)"/>
<path d="M0 0 C0 4.29 0 8.58 0 13 C4.62 13 9.24 13 14 13 C14 16.3 14 19.6 14 23 C9.38 23 4.76 23 0 23 C0.09687548 26.95149966 0.19956184 30.90216192 0.31738281 34.85302734 C0.37454036 36.85886971 0.42168596 38.86498918 0.46875 40.87109375 C0.50742187 42.12792969 0.54609375 43.38476562 0.5859375 44.6796875 C0.63306885 46.42354736 0.63306885 46.42354736 0.68115234 48.20263672 C0.72157869 51.13656482 0.72157869 51.13656482 3 53 C5.67813399 53.02207488 5.67813399 53.02207488 8.625 52.625 C9.62789062 52.51414063 10.63078125 52.40328125 11.6640625 52.2890625 C12.43492187 52.19367188 13.20578125 52.09828125 14 52 C14.495 56.95 14.495 56.95 15 62 C8.43276552 65.74842151 2.41922103 66.09308709 -5 65 C-8.66248936 63.07454338 -11.15004185 60.6999163 -13 57 C-13.08658569 54.44637396 -13.11562516 51.9204558 -13.09765625 49.3671875 C-13.0962413 48.61535187 -13.09482635 47.86351624 -13.09336853 47.08889771 C-13.08776465 44.6842249 -13.07521157 42.27964473 -13.0625 39.875 C-13.0574855 38.24609509 -13.0529225 36.61718873 -13.04882812 34.98828125 C-13.03779397 30.99215173 -13.02052679 26.99609158 -13 23 C-15.64 23 -18.28 23 -21 23 C-21 19.7 -21 16.4 -21 13 C-18.36 13 -15.72 13 -13 13 C-13 10.03 -13 7.06 -13 4 C-11.2097939 3.32942113 -9.41778511 2.6636531 -7.625 2 C-6.62726562 1.62875 -5.62953125 1.2575 -4.6015625 0.875 C-2 0 -2 0 0 0 Z " fill="#FEFBFC" transform="translate(835,121)"/>
<path d="M0 0 C-0.33 2.97 -0.66 5.94 -1 9 C-4 10 -4 10 -6.125 9.5625 C-10.50087738 8.70635008 -15.91802572 7.95901286 -20 10 C-20 11.65 -20 13.3 -20 15 C-18.81921875 15.58007812 -17.6384375 16.16015625 -16.421875 16.7578125 C-14.86416599 17.54605079 -13.3068972 18.33515947 -11.75 19.125 C-10.97269531 19.50398438 -10.19539062 19.88296875 -9.39453125 20.2734375 C-4.51227624 22.77715802 -1.52686736 24.9195965 1 30 C1.92125033 34.35236377 1.30127684 38.15959618 -0.1875 42.3125 C-3.58517255 47.35042827 -7.24103032 49.37746078 -13 51 C-20.62907258 51.728832 -27.0541102 51.26865403 -34 48 C-33.67 45.36 -33.34 42.72 -33 40 C-29.25 38.875 -29.25 38.875 -27 40 C-25.0027458 40.12199138 -23.00094019 40.17547512 -21 40.1875 C-19.9275 40.20167969 -18.855 40.21585938 -17.75 40.23046875 C-14.85546904 40.28585786 -14.85546904 40.28585786 -13 38 C-12.85908518 35.52673046 -12.85908518 35.52673046 -14 33 C-17.13821735 30.47411774 -20.43103072 28.7963012 -24.0625 27.125 C-28.22520317 25.10744463 -30.34879753 22.77595503 -33 19 C-34.20643566 15.38069302 -34.32268559 12.80768995 -34 9 C-27.2588131 -4.22309738 -12.56653745 -3.94244312 0 0 Z " fill="#FEF9FA" transform="translate(806,135)"/>
<path d="M0 0 C3.3 0 6.6 0 10 0 C10.33 6.27 10.66 12.54 11 19 C12.32 18.01 13.64 17.02 15 16 C21.08818607 15.06194112 26.85718787 15.40003151 32 19 C35.99404482 23.40722187 36.12129193 27.28347677 36.09765625 33.07421875 C36.0962413 33.7580513 36.09482635 34.44188385 36.09336853 35.1464386 C36.08777876 37.32683722 36.07522822 39.50713251 36.0625 41.6875 C36.05748367 43.16731622 36.052921 44.64713406 36.04882812 46.12695312 C36.03781271 49.75133557 36.02055512 53.3756577 36 57 C32.37 57 28.74 57 25 57 C24.98018066 56.23856689 24.96036133 55.47713379 24.93994141 54.69262695 C24.84450078 51.23224528 24.73489788 47.77245145 24.625 44.3125 C24.5940625 43.11431641 24.563125 41.91613281 24.53125 40.68164062 C24.49257812 39.52470703 24.45390625 38.36777344 24.4140625 37.17578125 C24.36693115 35.58117065 24.36693115 35.58117065 24.31884766 33.9543457 C23.99285294 30.93377752 23.36672351 28.70642827 22 26 C18.06771961 24.03385981 14.12218188 24.96945453 10 26 C10 36.23 10 46.46 10 57 C6.7 57 3.4 57 0 57 C0 38.19 0 19.38 0 0 Z " fill="#FEFBFB" transform="translate(1065,1020)"/>
<path d="M0 0 C-1.09068668 3.77545388 -1.9083091 6.47043472 -5 9 C-5.6909375 8.67773438 -6.381875 8.35546875 -7.09375 8.0234375 C-10.37564267 6.86771723 -13.02604562 6.66558358 -16.5 6.625 C-17.6034375 6.59664062 -18.706875 6.56828125 -19.84375 6.5390625 C-23.75675587 7.11051633 -25.29732487 8.13554502 -28 11 C-30.23655404 15.72387322 -30.36592872 20.30769296 -30.375 25.4375 C-30.39949219 26.16259766 -30.42398437 26.88769531 -30.44921875 27.63476562 C-30.4792287 33.20161184 -29.19951551 36.43173869 -26 41 C-21.5139369 43.99070873 -17.26174459 43.60094294 -12 43 C-8.76241942 41.93164486 -6.03560212 40.59244701 -3 39 C-2.01 41.97 -1.02 44.94 0 48 C-1.41328129 48.81837442 -2.83078346 49.62946219 -4.25 50.4375 C-5.03890625 50.88996094 -5.8278125 51.34242187 -6.640625 51.80859375 C-13.11220088 55.07652528 -21.36807135 55.09683764 -28.25 53 C-33.66550775 50.63141037 -37.48342963 46.07202716 -40.06640625 40.83984375 C-40.80633953 38.92745581 -41.41078065 36.96406452 -42 35 C-42.18304687 34.40058594 -42.36609375 33.80117187 -42.5546875 33.18359375 C-44.20341112 25.09906304 -44.09458265 15.32930295 -40 8 C-29.81769475 -6.33319996 -15.37895069 -7.03037746 0 0 Z " fill="#FEF8F8" transform="translate(1057,1024)"/>
<path d="M0 0 C4.01684726 2.93915653 6.95784056 6.06102168 8.5625 10.875 C8.5625 14.835 8.5625 18.795 8.5625 22.875 C0.6425 22.875 -7.2775 22.875 -15.4375 22.875 C-15.1075 25.185 -14.7775 27.495 -14.4375 29.875 C-7.57363404 32.16295532 -0.15476267 31.26336006 6.5625 28.875 C7.0575 32.835 7.0575 32.835 7.5625 36.875 C0.21290308 40.37778662 -6.61943144 42.68868862 -14.66796875 40.1796875 C-20.50474846 37.57339562 -23.9819782 33.92466472 -26.75 28.125 C-28.34336616 20.59272363 -28.2177586 12.75297051 -24.4375 5.875 C-17.65517433 -1.5981181 -9.69034422 -3.17138538 0 0 Z " fill="#FEF6F6" transform="translate(756.4375,1037.125)"/>
<path d="M0 0 C4.06690727 3.96523459 6.1077893 7.8686572 7.5 13.4375 C7.5 16.4075 7.5 19.3775 7.5 22.4375 C-0.75 22.4375 -9 22.4375 -17.5 22.4375 C-16.09628479 28.1393576 -16.09628479 28.1393576 -13.5 30.4375 C-7.22751327 31.1448451 -1.42056125 30.54258844 4.5 28.4375 C4.995 32.3975 4.995 32.3975 5.5 36.4375 C-1.84545973 39.93831485 -8.73115386 42.29745557 -16.765625 39.70703125 C-21.09786523 37.74147781 -23.8702741 35.48323215 -26.5 31.4375 C-26.85449219 30.89609375 -27.20898438 30.3546875 -27.57421875 29.796875 C-30.02207405 23.55845895 -29.74365845 13.97523759 -27.51953125 7.6484375 C-25.13399112 3.72881156 -22.24506389 0.29342193 -17.74609375 -1.109375 C-11.756975 -2.31761461 -5.60315318 -2.50140767 0 0 Z " fill="#FEF6F6" transform="translate(1184.5,1037.5625)"/>
<path d="M0 0 C3.03549679 2.33607357 4.72311506 4.66517912 5.6953125 8.3046875 C6.00327136 12.69823389 5.87740807 16.88887001 5.6953125 21.3046875 C-2.2246875 21.3046875 -10.1446875 21.3046875 -18.3046875 21.3046875 C-16.90097229 27.0065451 -16.90097229 27.0065451 -14.3046875 29.3046875 C-8.03220077 30.0120326 -2.22524875 29.40977594 3.6953125 27.3046875 C4.1903125 31.2646875 4.1903125 31.2646875 4.6953125 35.3046875 C-2.65014723 38.80550235 -9.53584136 41.16464307 -17.5703125 38.57421875 C-22.72145196 36.2371277 -25.83858917 33.25282001 -28.3828125 28.13671875 C-30.42018853 21.87783053 -30.43871144 13.16649876 -28.58203125 6.84375 C-26.37960099 2.75989146 -22.94044092 -0.87025523 -18.4453125 -2.27734375 C-11.95149696 -3.54529679 -5.79226587 -3.40031802 0 0 Z " fill="#FEF7F7" transform="translate(983.3046875,1038.6953125)"/>
<path d="M0 0 C1.134375 0.020625 2.26875 0.04125 3.4375 0.0625 C4.0975 1.3825 4.7575 2.7025 5.4375 4.0625 C6.200625 3.4025 6.96375 2.7425 7.75 2.0625 C12.27893307 -0.96037456 17.20394879 -0.57611786 22.4375 0.0625 C26.04941016 1.28796952 27.76617396 2.18884556 30.07543945 5.1940918 C31.77860478 8.7808438 31.81683654 11.88713766 31.73046875 15.76953125 C31.72622391 16.49492599 31.72197906 17.22032074 31.71760559 17.96769714 C31.70089543 20.27051891 31.6632596 22.57244553 31.625 24.875 C31.60994316 26.4420446 31.5962565 28.009103 31.58398438 29.57617188 C31.55101731 33.40528957 31.49928992 37.23374334 31.4375 41.0625 C28.1375 41.0625 24.8375 41.0625 21.4375 41.0625 C21.41768066 40.26553711 21.39786133 39.46857422 21.37744141 38.64746094 C21.28216752 35.03547528 21.17249693 31.42406601 21.0625 27.8125 C21.0315625 26.55824219 21.000625 25.30398438 20.96875 24.01171875 C20.93007813 22.80644531 20.89140625 21.60117188 20.8515625 20.359375 C20.8201416 19.24916992 20.7887207 18.13896484 20.75634766 16.99511719 C20.44660263 14.1462219 20.00287517 12.4394224 18.4375 10.0625 C14.50521961 8.09635981 10.55968188 9.03195453 6.4375 10.0625 C6.4375 20.2925 6.4375 30.5225 6.4375 41.0625 C2.8075 41.0625 -0.8225 41.0625 -4.5625 41.0625 C-4.58714705 35.38419922 -4.60533462 29.70592931 -4.61743164 24.02758789 C-4.62247256 22.09431415 -4.62930519 20.16104424 -4.63793945 18.2277832 C-4.65001565 15.45523128 -4.65573057 12.68272959 -4.66015625 9.91015625 C-4.66531754 9.04036636 -4.67047882 8.17057648 -4.67579651 7.27442932 C-4.67599185 5.20344186 -4.62458168 3.13255676 -4.5625 1.0625 C-3.5625 0.0625 -3.5625 0.0625 0 0 Z " fill="#FEF8F8" transform="translate(806.5625,1035.9375)"/>
<path d="M0 0 C0.66 0.33 1.32 0.66 2 1 C2 4.63 2 8.26 2 12 C-2.1015625 12.34179688 -2.1015625 12.34179688 -6.203125 12.68359375 C-9.22771622 12.96346926 -9.22771622 12.96346926 -13 14 C-13 26.54 -13 39.08 -13 52 C-17.62 52 -22.24 52 -27 52 C-27 35.17 -27 18.34 -27 1 C-23.7 1 -20.4 1 -17 1 C-16.34 2.65 -15.68 4.3 -15 6 C-14.05125 5.195625 -13.1025 4.39125 -12.125 3.5625 C-8.00452469 0.06905354 -5.48973774 -0.19606206 0 0 Z " fill="#FEF8F9" transform="translate(937,133)"/>
<path d="M0 0 C0.66 0.33 1.32 0.66 2 1 C2 4.63 2 8.26 2 12 C-0.6296875 12.185625 -0.6296875 12.185625 -3.3125 12.375 C-7.16904361 12.64722661 -8.71508627 12.81005752 -12 15 C-12.33771517 17.83024762 -12.48903335 20.45243967 -12.51171875 23.2890625 C-12.52966995 24.10748627 -12.54762115 24.92591003 -12.56611633 25.76913452 C-12.62037514 28.38770364 -12.65416404 31.00608894 -12.6875 33.625 C-12.72065943 35.39846317 -12.75514779 37.17190204 -12.79101562 38.9453125 C-12.87611019 43.29674264 -12.9428464 47.64811679 -13 52 C-17.62 52 -22.24 52 -27 52 C-27 35.17 -27 18.34 -27 1 C-23.7 1 -20.4 1 -17 1 C-16.67 2.65 -16.34 4.3 -16 6 C-15.43152344 5.566875 -14.86304688 5.13375 -14.27734375 4.6875 C-9.40127937 1.1708726 -6.24240301 -0.89177186 0 0 Z " fill="#FEF9F9" transform="translate(759,233)"/>
<path d="M0 0 C6.6 0 13.2 0 20 0 C20 16.83 20 33.66 20 51 C15.38 51 10.76 51 6 51 C6 37.47 6 23.94 6 10 C3.03 9.505 3.03 9.505 0 9 C0 6.03 0 3.06 0 0 Z " fill="#FEF8F8" transform="translate(945,134)"/>
<path d="M0 0 C6.6 0 13.2 0 20 0 C20 16.83 20 33.66 20 51 C15.38 51 10.76 51 6 51 C6 37.47 6 23.94 6 10 C3.03 9.505 3.03 9.505 0 9 C0 6.03 0 3.06 0 0 Z " fill="#FEF8F8" transform="translate(741,134)"/>
<path d="M0 0 C6.27 0 12.54 0 19 0 C19 16.83 19 33.66 19 51 C14.71 51 10.42 51 6 51 C6 37.47 6 23.94 6 10 C3.03 9.505 3.03 9.505 0 9 C0 6.03 0 3.06 0 0 Z " fill="#FEFDFD" transform="translate(655,134)"/>
<path d="M0 0 C6.27 0 12.54 0 19 0 C19 16.83 19 33.66 19 51 C14.71 51 10.42 51 6 51 C6 37.47 6 23.94 6 10 C3.03 9.505 3.03 9.505 0 9 C0 6.03 0 3.06 0 0 Z " fill="#FEFDFD" transform="translate(821,234)"/>
<path d="M0 0 C3.63 0 7.26 0 11 0 C11.33 15.84 11.66 31.68 12 48 C13.65 48.33 15.3 48.66 17 49 C17.09765625 55.15234375 17.09765625 55.15234375 17 57 C15.43966377 58.56033623 13.91052864 58.20707559 11.75 58.25 C7.69085534 58.19837336 5.18359011 57.70122797 2 55 C0.05670643 51.88228188 -0.24508531 49.50723203 -0.22705078 45.86425781 C-0.22689972 44.84350159 -0.22674866 43.82274536 -0.22659302 42.77105713 C-0.21627045 41.67613953 -0.20594788 40.58122192 -0.1953125 39.453125 C-0.1924826 38.3267865 -0.18965271 37.200448 -0.18673706 36.03997803 C-0.17554374 32.44321054 -0.15044037 28.84669221 -0.125 25.25 C-0.11496912 22.81120151 -0.10584346 20.37239912 -0.09765625 17.93359375 C-0.07560712 11.95563319 -0.04108277 5.97785884 0 0 Z " fill="#FEF7F7" transform="translate(1133,1020)"/>
<path d="M0 0 C0.72616947 2.41256303 1.4311239 4.82814858 2.125 7.25 C2.33253906 7.93191406 2.54007812 8.61382812 2.75390625 9.31640625 C3.57474413 12.23179596 4.17404698 14.39184748 3.328125 17.34765625 C1.87776993 19.15206859 0.6615374 20.09808589 -1.375 21.1875 C-1.96023438 21.51105469 -2.54546875 21.83460938 -3.1484375 22.16796875 C-7.3760892 24.06773629 -11.25740343 24.16267421 -15.875 24.1875 C-17.06867188 24.20167969 -18.26234375 24.21585937 -19.4921875 24.23046875 C-23.06836863 23.99550807 -25.73949988 23.48247885 -29 22 C-32.43135707 17.40327637 -32.29362176 11.48093948 -32 6 C-25.58849376 4.30955536 -19.15051863 3.04181459 -12.625 1.875 C-11.62855469 1.69324219 -10.63210938 1.51148438 -9.60546875 1.32421875 C-2.2675047 0 -2.2675047 0 0 0 Z " fill="#136CB5" transform="translate(332,308)"/>
<path d="M0 0 C1.45553382 0.20566091 2.90009083 0.48969632 4.3359375 0.8046875 C8.14625401 1.61236058 11.95634388 2.37591407 15.7890625 3.0703125 C16.74941406 3.24433594 17.70976562 3.41835938 18.69921875 3.59765625 C20.14748047 3.85869141 20.14748047 3.85869141 21.625 4.125 C23.13126953 4.39763672 23.13126953 4.39763672 24.66796875 4.67578125 C27.11183276 5.11800426 29.55584338 5.55939764 32 6 C31.86501019 7.59423719 31.72302858 9.18788331 31.578125 10.78125 C31.49981445 11.66876953 31.42150391 12.55628906 31.34082031 13.47070312 C30.88530933 16.85114276 29.95519518 19.20686403 28 22 C23.85996308 24.21106944 19.78907172 24.38521974 15.1875 24.375 C14.47698486 24.37411377 13.76646973 24.37322754 13.03442383 24.37231445 C6.48241755 24.22424227 2.32100067 22.85652505 -2.67578125 18.55859375 C-4 17 -4 17 -4.375 13.875 C-3.95978075 9.5844011 -3.22053548 3.22053548 0 0 Z " fill="#136BB5" transform="translate(179,308)"/>
<path d="M0 0 C1.29550781 -0.02126953 1.29550781 -0.02126953 2.6171875 -0.04296875 C5.27054057 0.20087522 6.80289397 0.94586529 9.125 2.1875 C9.21192074 6.45820558 9.26536515 10.72868458 9.3125 15 C9.33763672 16.21494141 9.36277344 17.42988281 9.38867188 18.68164062 C9.39833984 19.84501953 9.40800781 21.00839844 9.41796875 22.20703125 C9.4336792 23.28057861 9.44938965 24.35412598 9.46557617 25.46020508 C9.125 28.1875 9.125 28.1875 7.79418945 29.9987793 C4.54086597 32.31564811 1.05728761 32.64164169 -2.87109375 32.60546875 C-5.33305137 32.09196102 -6.18152996 31.32524083 -7.8125 29.4375 C-11.9408376 22.93224076 -11.51656533 15.71519985 -10.875 8.1875 C-8.83754095 2.1620287 -6.25781673 0.04642297 0 0 Z " fill="#EB404A" transform="translate(1078.875,143.8125)"/>
<path d="M0 0 C3.48334037 2.21667115 5.5680766 4.14140995 7 8 C7.24507189 10.81832676 7.37013036 13.49541283 7.375 16.3125 C7.39949219 17.04662109 7.42398438 17.78074219 7.44921875 18.53710938 C7.47902542 24.13579571 6.20291221 27.39804621 3 32 C-0.20220529 33.60110264 -3.52500398 33.48953317 -7 33 C-10.84931114 30.3662608 -11.77550559 27.38733743 -13 23 C-13.30078125 19.5625 -13.30078125 19.5625 -13.3125 16 C-13.32925781 14.824375 -13.34601562 13.64875 -13.36328125 12.4375 C-12.87652252 7.83161093 -11.41348664 4.46222756 -8.1875 1.125 C-5.19222268 -0.41542833 -3.329938 -0.47570543 0 0 Z " fill="#EB414B" transform="translate(1002,143)"/>
<path d="M0 0 C0 2.97 0 5.94 0 9 C-2.27864583 9.22786458 -4.55729167 9.45572917 -6.8359375 9.68359375 C-9.04272805 9.89090114 -9.04272805 9.89090114 -11 11 C-11.33 20.9 -11.66 30.8 -12 41 C-15.63 41 -19.26 41 -23 41 C-23 27.8 -23 14.6 -23 1 C-20.36 1 -17.72 1 -15 1 C-14.34 1.99 -13.68 2.98 -13 4 C-12.34 3.34 -11.68 2.68 -11 2 C-6.98141147 -0.67905902 -4.74694284 -0.32182663 0 0 Z " fill="#FEFAFA" transform="translate(796,1036)"/>
<path d="M0 0 C-1.35208597 3.1505544 -1.7654352 3.87523149 -4.9375 5.5625 C-8.02679927 6.76353734 -11.16283871 7.56858083 -14.375 8.375 C-20.54893744 9.98448162 -26.4343874 12.4343874 -31 17 C-36.1767022 17.12424085 -41.19696402 15.84732153 -46 14 C-45.52147104 9.69323935 -43.17347304 7.76834883 -40 5 C-27.57880223 -3.99740608 -14.51334126 -5.61806759 0 0 Z " fill="#176EB6" transform="translate(215,276)"/>
<path d="M0 0 C4.47229416 2.79518385 8.0659127 5.59886906 11 10 C11 10.99 11 11.98 11 13 C9.25364835 13.53293835 7.50272348 14.05090663 5.75 14.5625 C4.77546875 14.85253906 3.8009375 15.14257812 2.796875 15.44140625 C-2.54015444 16.50732135 -5.81495675 14.12580011 -10.5 11.625 C-16.04485709 8.73495328 -21.29747875 6.88815476 -27.4765625 5.703125 C-30.27593875 4.92311304 -31.91400975 4.01743658 -34 2 C-34 1.01 -34 0.02 -34 -1 C-22.54230453 -5.8608405 -11.3321132 -4.97225375 0 0 Z " fill="#166DB6" transform="translate(330,277)"/>
<path d="M0 0 C4.95 0 9.9 0 15 0 C15 13.2 15 26.4 15 40 C11.37 40 7.74 40 4 40 C4 29.11 4 18.22 4 7 C2.68 7 1.36 7 0 7 C0 4.69 0 2.38 0 0 Z " fill="#FEF8F8" transform="translate(706,1037)"/>
<path d="M0 0 C4.95 0 9.9 0 15 0 C15 13.2 15 26.4 15 40 C11.7 40 8.4 40 5 40 C5 29.11 5 18.22 5 7 C3.35 7 1.7 7 0 7 C0 4.69 0 2.38 0 0 Z " fill="#FEFDFD" transform="translate(1108,1037)"/>
<path d="M0 0 C1.921875 0.8671875 1.921875 0.8671875 2.96875 2.546875 C4.95472575 8.7475326 5.24918713 14.38155817 4.921875 20.8671875 C1.94328773 21.20655858 -1.03582185 21.53881009 -4.015625 21.8671875 C-4.84642578 21.96257812 -5.67722656 22.05796875 -6.53320312 22.15625 C-12.08396543 22.76100231 -17.494476 22.95733723 -23.078125 22.8671875 C-19.8680911 16.30755302 -15.32816679 11.8730413 -10.078125 6.8671875 C-9.11643357 5.8913188 -8.15732101 4.91288642 -7.203125 3.9296875 C-2.95948456 -0.18913999 -2.95948456 -0.18913999 0 0 Z " fill="#186FB7" transform="translate(286.078125,279.1328125)"/>
<path d="M0 0 C2.2265625 1.01171875 2.2265625 1.01171875 4 2 C4.14505175 5.43705705 4.23398014 8.87333033 4.3125 12.3125 C4.35439453 13.28896484 4.39628906 14.26542969 4.43945312 15.27148438 C4.48520009 17.93395754 4.47422345 20.37891123 4 23 C1.23651013 25.5362902 -0.39347567 25.90097562 -4.0625 26.5 C-7 26 -7 26 -9.3125 23.625 C-11.87130455 19.64463737 -12.18544303 17.43781716 -12.25 12.6875 C-12.27578125 11.55699219 -12.3015625 10.42648437 -12.328125 9.26171875 C-11.9685426 5.68729849 -11.14022123 3.85189674 -9 1 C-5.97562661 -0.5121867 -3.33758466 -0.17263369 0 0 Z " fill="#EC454F" transform="translate(931,1044)"/>
<path d="M0 0 C5.51142997 1.48179645 8.8115843 5.36891555 12.6875 9.3125 C13.36361328 9.97701172 14.03972656 10.64152344 14.73632812 11.32617188 C15.70795898 12.30360352 15.70795898 12.30360352 16.69921875 13.30078125 C17.57839966 14.18503784 17.57839966 14.18503784 18.4753418 15.0871582 C20.21427682 17.26883248 21.08282665 19.37825532 22 22 C18.06251542 22.02898816 14.12505821 22.04679464 10.1875 22.0625 C9.06794922 22.07087891 7.94839844 22.07925781 6.79492188 22.08789062 C5.18520508 22.09272461 5.18520508 22.09272461 3.54296875 22.09765625 C2.0583313 22.10551147 2.0583313 22.10551147 0.54370117 22.11352539 C-2 22 -2 22 -5 21 C-4.88485851 18.95775363 -4.75742674 16.91619841 -4.625 14.875 C-4.55539063 13.73804688 -4.48578125 12.60109375 -4.4140625 11.4296875 C-3.87321965 6.94987599 -3.24789041 3.24789041 0 0 Z " fill="#156CB5" transform="translate(224,279)"/>
<path d="M0 0 C3.29859036 0.90537125 4.29486279 2.68863612 6.03515625 5.55859375 C6.99997631 11.62032528 7.71704476 19.31397011 3.97265625 24.55859375 C1.03515625 26.55859375 1.03515625 26.55859375 -2.58984375 26.62109375 C-5.88385824 25.58408919 -6.94644834 25.20215919 -8.96484375 22.55859375 C-9.35302734 20.41381836 -9.35302734 20.41381836 -9.36328125 17.9609375 C-9.36714844 17.07728516 -9.37101563 16.19363281 -9.375 15.28320312 C-9.36339844 14.36345703 -9.35179687 13.44371094 -9.33984375 12.49609375 C-9.35144531 11.57248047 -9.36304688 10.64886719 -9.375 9.69726562 C-9.37113281 8.81490234 -9.36726562 7.93253906 -9.36328125 7.0234375 C-9.35989746 6.21511475 -9.35651367 5.40679199 -9.35302734 4.57397461 C-9.22492676 3.90889893 -9.09682617 3.24382324 -8.96484375 2.55859375 C-5.77392735 0.43131615 -3.76324601 0.22477963 0 0 Z " fill="#EB3F49" transform="translate(681.96484375,1043.44140625)"/>
<path d="M0 0 C3.4375 0.5 3.4375 0.5 5.3125 1.875 C7.77288722 5.42889266 7.65554018 8.6217692 7.6875 12.8125 C7.72617187 14.78669922 7.72617187 14.78669922 7.765625 16.80078125 C7.42381288 20.65430598 6.86329676 22.52212535 4.4375 25.5 C1 26.5625 1 26.5625 -2.5625 26.5 C-4.97531883 24.65863826 -6.21400913 23.19698174 -7.5625 20.5 C-7.73971577 18.04512577 -7.83986821 15.64438336 -7.875 13.1875 C-7.91238281 11.87136719 -7.94976563 10.55523438 -7.98828125 9.19921875 C-7.35003346 3.65407513 -5.65182199 0.79323817 0 0 Z " fill="#EB404A" transform="translate(864.5625,1043.5)"/>
<path d="M0 0 C3.2309301 0.99842562 4.29216114 2.80086782 6.03515625 5.62890625 C6.49609375 8.78515625 6.49609375 8.78515625 6.41015625 12.12890625 C6.39726563 13.23234375 6.384375 14.33578125 6.37109375 15.47265625 C5.96051719 19.33016623 4.91479236 22.24000713 2.84765625 25.50390625 C1.03515625 26.62890625 1.03515625 26.62890625 -2.46484375 26.62890625 C-5.96484375 25.62890625 -5.96484375 25.62890625 -7.66015625 23.5703125 C-9.30545282 19.86100616 -9.40552572 16.54746346 -9.33984375 12.56640625 C-9.35144531 11.85935547 -9.36304688 11.15230469 -9.375 10.42382812 C-9.35734152 7.2894484 -9.14093904 4.9681724 -7.6875 2.16796875 C-5.32686432 0.05892009 -3.08063119 0.10090699 0 0 Z " fill="#EB404A" transform="translate(636.96484375,1043.37109375)"/>
<path d="M0 0 C0.33 2.97 0.66 5.94 1 9 C-3.82798108 10.76259627 -8.5797876 11.76661317 -13.625 12.625 C-14.37523437 12.7590625 -15.12546875 12.893125 -15.8984375 13.03125 C-19.33566034 13.62849794 -22.50045616 14 -26 14 C-26.33 11.36 -26.66 8.72 -27 6 C-23.62883171 4.98676317 -20.25252736 3.99181359 -16.875 3 C-15.92367187 2.71382812 -14.97234375 2.42765625 -13.9921875 2.1328125 C-9.21867563 0.74053821 -5.03044656 -0.40650073 0 0 Z " fill="#FEF5F6" transform="translate(845,212)"/>
<path d="M0 0 C3.625 1.5 3.625 1.5 6 3 C6.44823695 6.85483779 6.27280781 8.58169469 4.125 11.875 C0.29899808 14.4766813 -2.07982579 14.52443974 -6.59765625 14.46875 C-9.49379844 13.90364908 -10.91703084 13.08296916 -13 11 C-13.49609375 9.0625 -13.49609375 9.0625 -13.4375 7 C-13.43621094 6.319375 -13.43492187 5.63875 -13.43359375 4.9375 C-11.94898982 -1.69640583 -5.41831933 -0.65523862 0 0 Z " fill="#EB3F49" transform="translate(792,283)"/>
<path d="M0 0 C2.31279611 1.15639806 4.17409828 2.17409828 6 4 C6.35010591 7.71112269 6.47959996 10.14980006 4.625 13.4375 C0.6608624 15.79710572 -3.49596604 15.83463734 -8 15 C-10.89321046 12.67637013 -11.89257336 10.8236042 -12.375 7.125 C-12 4 -12 4 -9.9375 1.625 C-6.26968272 -0.4040053 -4.14083927 -0.51760491 0 0 Z " fill="#EB404A" transform="translate(791,243)"/>
<path d="M0 0 C1.17046875 0.03609375 2.3409375 0.0721875 3.546875 0.109375 C4.43890625 0.15578125 5.3309375 0.2021875 6.25 0.25 C6.25 3.88 6.25 7.51 6.25 11.25 C1.70016577 13.43392043 -1.59449175 14.83585321 -6.75 14.25 C-9.75 12.25 -9.75 12.25 -10.6875 8.375 C-11.18133981 5.38925588 -10.94636524 4.52968647 -9.17578125 2.0078125 C-5.95614853 -0.32525469 -3.93272581 -0.15730903 0 0 Z " fill="#EB454E" transform="translate(874.75,262.75)"/>
<path d="M0 0 C4.62 0 9.24 0 14 0 C14 4.29 14 8.58 14 13 C9.38 13 4.76 13 0 13 C0 8.71 0 4.42 0 0 Z " fill="#FDF3F4" transform="translate(951,113)"/>
<path d="M0 0 C4.62 0 9.24 0 14 0 C14 4.29 14 8.58 14 13 C9.38 13 4.76 13 0 13 C0 8.71 0 4.42 0 0 Z " fill="#FDF2F3" transform="translate(747,113)"/>
<path d="M0 0 C4.62 0 9.24 0 14 0 C14 4.29 14 8.58 14 13 C9.38 13 4.76 13 0 13 C0 8.71 0 4.42 0 0 Z " fill="#FDF4F4" transform="translate(660,113)"/>
<path d="M0 0 C3.69879153 1.16443437 5.24663599 1.8273867 7.375 5.0625 C7.375 7.3725 7.375 9.6825 7.375 12.0625 C1.435 12.0625 -4.505 12.0625 -10.625 12.0625 C-9.625 5.0625 -9.625 5.0625 -7 2.0625 C-3.625 0.0625 -3.625 0.0625 0 0 Z " fill="#EB414A" transform="translate(878.625,142.9375)"/>
<path d="M0 0 C2.875 2.0625 2.875 2.0625 5 5 C5 7.31 5 9.62 5 12 C-0.61 12 -6.22 12 -12 12 C-12 5.83836226 -11.97473389 5.09163783 -8 1 C-5.11138291 -0.44430855 -3.20352299 -0.37688506 0 0 Z " fill="#EB414A" transform="translate(1138,143)"/>
<path d="M0 0 C2.875 2.0625 2.875 2.0625 5 5 C5 7.31 5 9.62 5 12 C-0.61 12 -6.22 12 -12 12 C-12 5.83836226 -11.97473389 5.09163783 -8 1 C-5.11138291 -0.44430855 -3.20352299 -0.37688506 0 0 Z " fill="#EB414A" transform="translate(703,243)"/>
<path d="M0 0 C3 1.625 3 1.625 5 4 C5.39479514 5.98878051 5.73563453 7.98972091 6 10 C2.72734339 9.5541145 -0.54267439 9.09115745 -3.8125 8.625 C-5.2056543 8.43550781 -5.2056543 8.43550781 -6.62695312 8.2421875 C-7.51962891 8.11328125 -8.41230469 7.984375 -9.33203125 7.8515625 C-10.15421143 7.73635254 -10.9763916 7.62114258 -11.82348633 7.50244141 C-14 7 -14 7 -17 5 C-11.46196492 0.36002466 -7.13566585 -0.88882855 0 0 Z " fill="#1B70B7" transform="translate(205,289)"/>
<path d="M0 0 C3.8407248 0.673916 6.33047678 2.22565097 9.515625 4.44140625 C9.515625 5.10140625 9.515625 5.76140625 9.515625 6.44140625 C6.24574201 7.11279246 2.97457451 7.77769888 -0.296875 8.44140625 C-1.22564453 8.6321875 -2.15441406 8.82296875 -3.11132812 9.01953125 C-4.00400391 9.2 -4.89667969 9.38046875 -5.81640625 9.56640625 C-7.04967651 9.81777344 -7.04967651 9.81777344 -8.30786133 10.07421875 C-10.484375 10.44140625 -10.484375 10.44140625 -13.484375 10.44140625 C-13.20047768 7.12927084 -12.45114104 5.3931634 -10.546875 2.62890625 C-6.7825193 -0.05991925 -4.52890366 -0.21017367 0 0 Z " fill="#1A70B7" transform="translate(312.484375,288.55859375)"/>
<path d="M0 0 C2.4375 2.25 2.4375 2.25 4 5 C4 6.32 4 7.64 4 9 C-0.95 9 -5.9 9 -11 9 C-10 3 -10 3 -8.875 1.125 C-5.79484632 -0.72309221 -3.49557617 -0.49060718 0 0 Z " fill="#EB434D" transform="translate(751,1044)"/>
<path d="M0 0 C3.625 0.375 3.625 0.375 6.0625 2.0625 C7.625 4.375 7.625 4.375 7.625 9.375 C3.005 9.375 -1.615 9.375 -6.375 9.375 C-5.4 0.6 -5.4 0.6 0 0 Z " fill="#EB414B" transform="translate(1173.375,1043.625)"/>
<path d="M0 0 C3.625 0.375 3.625 0.375 6.0625 2.0625 C7.625 4.375 7.625 4.375 7.625 9.375 C3.005 9.375 -1.615 9.375 -6.375 9.375 C-5.4 0.6 -5.4 0.6 0 0 Z " fill="#EB414B" transform="translate(971.375,1043.625)"/>
<path d="M0 0 C3.63 0 7.26 0 11 0 C11 3.3 11 6.6 11 10 C7.37 10 3.74 10 0 10 C0 6.7 0 3.4 0 0 Z " fill="#FEF7F7" transform="translate(1112,1020)"/>
<path d="M0 0 C3.63 0 7.26 0 11 0 C11 3.3 11 6.6 11 10 C7.37 10 3.74 10 0 10 C0 6.7 0 3.4 0 0 Z " fill="#FEF9F9" transform="translate(710,1020)"/>
<path d="M0 0 C0.99 0.33 1.98 0.66 3 1 C2.67 1.33 2.34 1.66 2 2 C1.95907063 4.33297433 1.95758277 6.66705225 2 9 C3.32 8.67 4.64 8.34 6 8 C5.67 5.69 5.34 3.38 5 1 C6.875 1.3125 6.875 1.3125 9 2 C11 5 11 5 10.875 7.5 C10 10 10 10 8.375 11.875 C4.9196228 13.51175762 2.64481875 12.92777204 -1 12 C-2.9375 10.4375 -2.9375 10.4375 -4 9 C-2.80100302 5.9168649 -1.52299523 2.93720508 0 0 Z " fill="#2376BA" transform="translate(348,317)"/>
<path d="M0 0 C2.64465038 3.1254959 3.84414715 6.08788267 5 10 C2.9375 12.0625 2.9375 12.0625 0 14 C-3.6875 13.9375 -3.6875 13.9375 -7 13 C-9.30163882 9.54754176 -9.34490322 8.05261287 -9 4 C-8.34 3.34 -7.68 2.68 -7 2 C-4.875 2.375 -4.875 2.375 -3 3 C-3.66 3.66 -4.32 4.32 -5 5 C-5 6.32 -5 7.64 -5 9 C-3.68 9 -2.36 9 -1 9 C-1.020625 7.700625 -1.04125 6.40125 -1.0625 5.0625 C-1.08399454 3.70834367 -1.07148199 2.35243917 -1 1 C-0.67 0.67 -0.34 0.34 0 0 Z " fill="#2174B9" transform="translate(161,316)"/>
<path d="M0 0 C-0.41153737 4.97093824 -0.79600832 9.44508386 -3 14 C-5.96527758 11.5546615 -6.55582214 9.55397653 -7.1875 5.8125 C-7.34605469 4.91144531 -7.50460937 4.01039063 -7.66796875 3.08203125 C-7.77753906 2.39496094 -7.88710938 1.70789063 -8 1 C-5.07175348 0.02391783 -3.04386724 -0.08226668 0 0 Z " fill="#2073B9" transform="translate(345,305)"/>
<path d="M0 0 C2.64 0.66 5.28 1.32 8 2 C7.69128878 3.79232337 7.37790936 5.58384321 7.0625 7.375 C6.88847656 8.37273437 6.71445313 9.37046875 6.53515625 10.3984375 C6 13 6 13 5 15 C4.34 15 3.68 15 3 15 C1.094753 9.89665983 -0.42589023 5.53657294 0 0 Z " fill="#1F73B9" transform="translate(165,304)"/>
<path d="M0 0 C2.475 0.495 2.475 0.495 5 1 C5.33 2.65 5.66 4.3 6 6 C4.35 6.33 2.7 6.66 1 7 C0.67 4.69 0.34 2.38 0 0 Z " fill="#ECF3F9" transform="translate(349,319)"/>
</svg>
